<?xml version="1.0" encoding="utf-8"?>
<!-- Generator: Adobe Illustrator 16.0.3, SVG Export Plug-In . SVG Version: 6.00 Build 0)  -->
<!DOCTYPE svg PUBLIC "-//W3C//DTD SVG 1.1//EN" "http://www.w3.org/Graphics/SVG/1.1/DTD/svg11.dtd">
<svg version="1.1" id="Capa_1" xmlns="http://www.w3.org/2000/svg" xmlns:xlink="http://www.w3.org/1999/xlink" x="0px" y="0px"
	 width="127.561px" height="34.02px" viewBox="0 0 127.561 34.02" enable-background="new 0 0 127.561 34.02" xml:space="preserve">
<path fill="#2AA4CA" d="M1.192,31.805c-0.377,0-0.686-0.308-0.686-0.685V6.489c0-2.771,2.255-5.025,5.025-5.025
	c2.771,0,5.026,2.254,5.026,5.025V31.12c0,0.377-0.309,0.685-0.686,0.685H1.192z"/>
<path d="M5.531,1.97c2.492,0,4.52,2.027,4.52,4.519V31.12c0,0.1-0.081,0.179-0.18,0.179H1.192c-0.1,0-0.18-0.08-0.18-0.179V6.489
	C1.011,3.997,3.039,1.97,5.531,1.97 M5.531,0.958C2.476,0.958,0,3.433,0,6.489V31.12c0,0.657,0.534,1.19,1.192,1.19h8.679
	c0.658,0,1.192-0.532,1.192-1.19V6.489C11.063,3.433,8.586,0.958,5.531,0.958"/>
<path fill="#F7F719" d="M25.066,31.805c-0.445,0-0.806-0.36-0.806-0.807V6.489c0-2.771,2.253-5.025,5.024-5.025
	c2.772,0,5.025,2.254,5.025,5.025v24.509c0,0.445-0.363,0.807-0.806,0.807H25.066z"/>
<path d="M29.283,1.97c2.491,0,4.519,2.027,4.519,4.519v24.509c0,0.166-0.134,0.301-0.301,0.301h-8.436
	c-0.167,0-0.301-0.135-0.301-0.301V6.489C24.765,3.997,26.793,1.97,29.283,1.97 M29.283,0.958c-3.056,0-5.531,2.476-5.531,5.531
	v24.509c0,0.726,0.588,1.313,1.313,1.313h8.436c0.725,0,1.313-0.587,1.313-1.313V6.489C34.814,3.433,32.339,0.958,29.283,0.958"/>
<path fill="#E93C0C" d="M12.247,31.805V13.819c0-2.846,2.315-5.162,5.16-5.162c2.846,0,5.162,2.315,5.162,5.162v17.986H12.247z"/>
<path d="M17.407,9.163c2.566,0,4.656,2.088,4.656,4.656v17.48h-9.31v-17.48C12.753,11.251,14.84,9.163,17.407,9.163 M17.407,8.151
	L17.407,8.151c-3.129,0-5.667,2.537-5.667,5.667v18.492h11.334V13.819C23.074,10.688,20.537,8.151,17.407,8.151"/>
<path d="M2.647,9.682c-0.132,0-0.241-0.108-0.241-0.24c0-0.133,0.109-0.241,0.241-0.241s0.24,0.108,0.24,0.24
	S2.78,9.682,2.647,9.682"/>
<path d="M2.647,8.694C2.234,8.694,1.9,9.028,1.9,9.441c0,0.412,0.334,0.745,0.747,0.745c0.412,0,0.746-0.333,0.746-0.745
	C3.393,9.028,3.058,8.694,2.647,8.694"/>
<path d="M8.347,9.682c-0.132,0-0.24-0.108-0.24-0.24c0-0.133,0.107-0.241,0.24-0.241c0.133,0,0.241,0.108,0.241,0.24
	S8.48,9.682,8.347,9.682"/>
<path d="M8.347,8.694c-0.413,0-0.746,0.334-0.746,0.747c0,0.412,0.333,0.745,0.746,0.745c0.412,0,0.748-0.333,0.748-0.745
	C9.094,9.028,8.759,8.694,8.347,8.694"/>
<path fill="none" stroke="#000000" stroke-linecap="round" stroke-miterlimit="10" d="M13.336,15.853l0.572-0.622
	c0.713-0.773,1.568-0.773,2.281,0l0.574,0.622"/>
<path fill="none" stroke="#000000" stroke-linecap="round" stroke-miterlimit="10" d="M18.289,15.853l0.573-0.622
	c0.714-0.773,1.568-0.773,2.282,0l0.572,0.622"/>
<path d="M2.613,12.053h5.7c0,0,0,2.443-2.782,2.578C2.748,14.768,2.613,12.053,2.613,12.053"/>
<path fill="none" stroke="#000000" stroke-miterlimit="10" d="M2.613,12.053h5.7c0,0,0,2.443-2.782,2.578
	C2.748,14.768,2.613,12.053,2.613,12.053z"/>
<path d="M26.433,11.442h5.701c0,0,0,2.444-2.783,2.58C26.569,14.157,26.433,11.442,26.433,11.442"/>
<path fill="none" stroke="#000000" stroke-miterlimit="10" d="M26.433,11.442h5.701c0,0,0,2.444-2.783,2.58
	C26.569,14.157,26.433,11.442,26.433,11.442z"/>
<path d="M14.557,17.618h5.701c0,0,0,2.444-2.783,2.579C14.693,20.333,14.557,17.618,14.557,17.618"/>
<path fill="none" stroke="#000000" stroke-miterlimit="10" d="M14.557,17.618h5.701c0,0,0,2.444-2.783,2.579
	C14.693,20.333,14.557,17.618,14.557,17.618z"/>
<path fill="#FFFFFF" d="M28.129,8.66c0,1.049-0.851,1.9-1.9,1.9s-1.9-0.851-1.9-1.9s0.851-1.9,1.9-1.9S28.129,7.611,28.129,8.66"/>
<circle fill="none" stroke="#000000" stroke-miterlimit="10" cx="26.229" cy="8.66" r="1.9"/>
<path fill="#FFFFFF" d="M34.237,8.66c0,1.049-0.85,1.9-1.899,1.9c-1.051,0-1.9-0.851-1.9-1.9s0.85-1.9,1.9-1.9
	C33.387,6.76,34.237,7.611,34.237,8.66"/>
<circle fill="none" stroke="#000000" stroke-miterlimit="10" cx="32.338" cy="8.66" r="1.899"/>
<polygon points="57.276,10.078 57.276,28.869 52.321,28.869 52.321,21.481 47.375,28.456 47.341,28.456 42.202,21.481 
	42.202,28.869 37.247,28.869 37.247,10.078 39.24,10.078 47.262,21.028 55.282,10.078 "/>
<polygon fill="none" stroke="#000000" stroke-linecap="round" stroke-linejoin="round" stroke-miterlimit="10" points="
	57.276,10.078 57.276,28.869 52.321,28.869 52.321,21.481 47.375,28.456 47.341,28.456 42.202,21.481 42.202,28.869 37.247,28.869 
	37.247,10.078 39.24,10.078 47.262,21.028 55.282,10.078 "/>
<path d="M59.805,19.568c0-5.611,4.452-9.866,10.26-9.866c5.811,0,10.261,4.255,10.261,9.866c0,5.565-4.449,9.798-10.271,9.798
	C64.245,29.365,59.805,25.133,59.805,19.568 M75.306,19.533c0-2.887-2.273-5.113-5.241-5.113c-2.967,0-5.241,2.227-5.241,5.113
	c0,2.876,2.274,5.09,5.241,5.09C73.033,24.623,75.306,22.407,75.306,19.533"/>
<path fill="none" stroke="#000000" stroke-linecap="round" stroke-linejoin="round" stroke-miterlimit="10" d="M59.805,19.568
	c0-5.611,4.452-9.866,10.26-9.866c5.811,0,10.261,4.255,10.261,9.866c0,5.565-4.449,9.798-10.271,9.798
	C64.245,29.365,59.805,25.133,59.805,19.568z M75.306,19.533c0-2.887-2.273-5.113-5.241-5.113c-2.967,0-5.241,2.227-5.241,5.113
	c0,2.876,2.274,5.09,5.241,5.09C73.033,24.623,75.306,22.407,75.306,19.533z"/>
<polygon points="102.702,10.078 102.702,28.869 97.748,28.869 97.748,21.481 92.802,28.456 92.768,28.456 87.631,21.481 
	87.631,28.869 82.674,28.869 82.674,10.078 84.667,10.078 92.69,21.028 100.709,10.078 "/>
<polygon fill="none" stroke="#000000" stroke-linecap="round" stroke-linejoin="round" stroke-miterlimit="10" points="
	102.702,10.078 102.702,28.869 97.748,28.869 97.748,21.481 92.802,28.456 92.768,28.456 87.631,21.481 87.631,28.869 
	82.674,28.869 82.674,10.078 84.667,10.078 92.69,21.028 100.709,10.078 "/>
<path d="M106.006,10.285h7.062c3.857,0,7.077,2.906,7.077,6.568c0,3.612-3.149,6.646-7.077,6.646h-2.104v5.37h-4.956L106.006,10.285
	L106.006,10.285z M115.224,16.773c0-1.109-0.928-1.945-2.215-1.945h-2.047v3.922l2.047,0.012
	C114.308,18.775,115.224,17.893,115.224,16.773"/>
<path fill="none" stroke="#000000" stroke-linecap="round" stroke-linejoin="round" stroke-miterlimit="10" d="M106.006,10.285
	h7.062c3.857,0,7.077,2.906,7.077,6.568c0,3.612-3.149,6.646-7.077,6.646h-2.104v5.37h-4.956L106.006,10.285L106.006,10.285z
	 M115.224,16.773c0-1.109-0.928-1.945-2.215-1.945h-2.047v3.922l2.047,0.012C114.308,18.775,115.224,17.893,115.224,16.773z"/>
<rect x="122.319" y="10.079" width="4.955" height="18.791"/>
<rect x="122.319" y="10.079" fill="none" stroke="#000000" stroke-linecap="round" stroke-linejoin="round" stroke-miterlimit="10" width="4.955" height="18.791"/>
<path d="M32.303,8.935c-0.132,0-0.24-0.108-0.24-0.241c0-0.132,0.108-0.241,0.24-0.241c0.133,0,0.241,0.109,0.241,0.241
	C32.545,8.827,32.437,8.935,32.303,8.935"/>
<path d="M32.303,7.948c-0.411,0-0.746,0.334-0.746,0.747c0,0.412,0.335,0.747,0.746,0.747c0.412,0,0.747-0.335,0.747-0.747
	C33.051,8.281,32.716,7.948,32.303,7.948"/>
<path d="M26.263,8.935c-0.132,0-0.241-0.108-0.241-0.241c0-0.132,0.109-0.241,0.241-0.241s0.241,0.109,0.241,0.241
	C26.505,8.827,26.396,8.935,26.263,8.935"/>
<path d="M26.263,7.948c-0.413,0-0.747,0.334-0.747,0.747c0,0.412,0.334,0.747,0.747,0.747c0.412,0,0.747-0.335,0.747-0.747
	C27.01,8.281,26.676,7.948,26.263,7.948"/>
</svg>
