<svg width="907.9525390625px" height="126.802490234375px" xmlns="http://www.w3.org/2000/svg" viewBox="-203.97626953125 11.5987548828125 907.9525390625 126.802490234375" style="background: rgba(0, 0, 0, 0);" preserveAspectRatio="xMidYMid"><defs><linearGradient id="editing-sticker-gradient" x1="0.5" y1="0.2" x2="0.5" y2="0.8"><stop offset="0" stop-color="#fd9"></stop><stop offset="1" stop-color="#9df"></stop></linearGradient><filter id="editing-sticker" x="-100%" y="-100%" width="300%" height="300%"><feMorphology operator="erode" radius="1" in="SourceAlpha" result="alpha-erode"></feMorphology><feConvolveMatrix order="3,3" divisor="1" kernelMatrix="0 1 0 1 1 1 0 1 0" in="alpha-erode" result="alpha-round"></feConvolveMatrix><feMorphology operator="dilate" radius="3.5" in="alpha-round" result="dilate-shadow"></feMorphology><feGaussianBlur in="dilate-shadow" stdDeviation="1.5" result="shadow"></feGaussianBlur><feFlood flood-color="#fff" result="flood-sticker"></feFlood><feComposite operator="in" in="flood-sticker" in2="alpha-round" result="comp-sticker"></feComposite><feMorphology operator="dilate" radius="3" in="comp-sticker" result="morph-sticker"></feMorphology><feConvolveMatrix order="3,3" divisor="1" kernelMatrix="0 1 0 1 1 1 0 1 0" in="morph-sticker" result="sticker"></feConvolveMatrix><feMerge><feMergeNode in="shadow"></feMergeNode><feMergeNode in="sticker"></feMergeNode><feMergeNode in="SourceGraphic"></feMergeNode></feMerge></filter></defs><g filter="url(#editing-sticker)"><g transform="translate(-76.28999137878418, 100.125)"><path d="M28.27-21.57L41.81-22.78L41.81-22.78Q36.98-12.19 36.98 0.07L36.98 0.07L36.98 0.07Q35.18 1.34 32.53 1.34L32.53 1.34L32.53 1.34Q29.88 1.34 28.21 0.10L28.21 0.10L28.21 0.10Q26.53-1.14 26.20-2.41L26.20-2.41L26.20-2.41Q24.52-0.67 21.81 0.34L21.81 0.34L21.81 0.34Q19.10 1.34 16.21 1.34L16.21 1.34L16.21 1.34Q13.33 1.34 10.82 0.40L10.82 0.40L10.82 0.40Q8.31-0.54 6.37-2.61L6.37-2.61L6.37-2.61Q2.08-7.17 2.08-15.81L2.08-15.81L2.08-15.81Q2.08-29.21 9.25-37.25L9.25-37.25L9.25-37.25Q16.62-45.56 29.68-45.56L29.68-45.56L29.68-45.56Q38.73-45.56 41.94-40.87L41.94-40.87L41.94-40.87Q42.95-39.40 42.95-37.62L42.95-37.62L42.95-37.62Q42.95-35.84 42.18-34.34L42.18-34.34L42.18-34.34Q41.41-32.83 40.20-31.62L40.20-31.62L40.20-31.62Q37.32-28.94 33.77-28.94L33.77-28.94L33.77-28.94Q32.36-28.94 31.02-29.41L31.02-29.41L31.02-29.41Q31.29-31.42 31.29-33.77L31.29-33.77L31.29-33.77Q31.29-36.11 31.12-37.19L31.12-37.19L31.12-37.19Q30.95-38.26 30.55-39.13L30.55-39.13L30.55-39.13Q29.68-40.94 27.77-40.94L27.77-40.94L27.77-40.94Q25.86-40.94 23.75-38.89L23.75-38.89L23.75-38.89Q21.64-36.85 19.97-33.50L19.97-33.50L19.97-33.50Q16.28-26.00 16.28-16.95L16.28-16.95L16.28-16.95Q16.28-12.80 17.89-9.85L17.89-9.85L17.89-9.85Q19.63-6.63 22.71-6.63L22.71-6.63L22.71-6.63Q23.79-6.63 24.76-7.17L24.76-7.17L24.76-7.17Q25.73-7.71 26.13-8.11L26.13-8.11L28.27-21.57ZM48.01-2.01L48.01-2.01L48.01-2.01Q46.43-3.75 45.73-6.50L45.73-6.50L45.73-6.50Q45.02-9.25 45.02-13.74L45.02-13.74L45.02-13.74Q45.02-18.22 46.57-22.31L46.57-22.31L46.57-22.31Q48.11-26.40 50.92-29.35L50.92-29.35L50.92-29.35Q56.68-35.51 66.20-35.51L66.20-35.51L66.20-35.51Q69.61-35.51 72.09-34.37L72.09-34.37L83.55-35.51L78.59-9.38L78.59-9.38Q78.39-8.58 78.39-7.10L78.39-7.10L78.39-7.10Q78.39-5.63 79.29-4.69L79.29-4.69L79.29-4.69Q80.20-3.75 81.54-3.62L81.54-3.62L81.54-3.62Q80.87-1.34 78.42 0L78.42 0L78.42 0Q75.98 1.34 73.23 1.34L73.23 1.34L73.23 1.34Q70.48 1.34 68.64 0.30L68.64 0.30L68.64 0.30Q66.80-0.74 66.26-2.48L66.26-2.48L66.26-2.48Q65.19-0.80 62.91 0.27L62.91 0.27L62.91 0.27Q60.64 1.34 57.59 1.34L57.59 1.34L57.59 1.34Q54.54 1.34 52.06 0.54L52.06 0.54L52.06 0.54Q49.58-0.27 48.01-2.01ZM62.14-29.21L62.14-29.21L62.14-29.21Q61.37-28.01 60.70-25.96L60.70-25.96L60.70-25.96Q60.03-23.92 58.93-18.46L58.93-18.46L58.93-18.46Q57.82-13.00 57.82-9.11L57.82-9.11L57.82-9.11Q57.82-5.23 58.42-4.09L58.42-4.09L58.42-4.09Q59.03-2.95 60.10-2.95L60.10-2.95L60.10-2.95Q62.24-2.95 63.82-4.99L63.82-4.99L63.82-4.99Q65.39-7.04 66.00-10.65L66.00-10.65L69.55-30.28L69.55-30.28Q68.14-31.49 66.50-31.49L66.50-31.49L66.50-31.49Q64.86-31.49 63.88-30.95L63.88-30.95L63.88-30.95Q62.91-30.42 62.14-29.21ZM135.41 1.34L135.41 1.34L135.41 1.34Q127.30 1.34 127.30-4.96L127.30-4.96L127.30-4.96Q127.30-7.71 128.47-13.03L128.47-13.03L128.47-13.03Q129.65-18.36 130.05-20.50L130.05-20.50L130.05-20.50Q130.99-25.39 130.99-26.93L130.99-26.93L130.99-26.93Q130.99-30.35 128.44-30.35L128.44-30.35L128.44-30.35Q126.76-30.35 125.16-28.04L125.16-28.04L125.16-28.04Q123.55-25.73 122.81-21.11L122.81-21.11L118.66 0L105.59 1.34L109.21-16.88L109.21-16.88Q109.81-19.90 110.35-23.32L110.35-23.32L110.35-23.32Q110.89-26.73 110.89-27.27L110.89-27.27L110.89-27.27Q110.89-30.35 108.61-30.35L108.61-30.35L108.61-30.35Q107.07-30.35 105.39-28.07L105.39-28.07L105.39-28.07Q103.72-25.80 102.78-21.11L102.78-21.11L98.69 0L85.49 1.34L92.53-34.17L103.45-35.51L102.31-28.74L102.31-28.74Q104.05-32.36 107.27-33.94L107.27-33.94L107.27-33.94Q110.48-35.51 115.51-35.51L115.51-35.51L115.51-35.51Q118.39-35.51 120.27-34.10L120.27-34.10L120.27-34.10Q122.14-32.70 122.74-30.42L122.74-30.42L122.74-30.42Q123.88-32.76 126.80-34.14L126.80-34.14L126.80-34.14Q129.71-35.51 133.30-35.51L133.30-35.51L133.30-35.51Q136.88-35.51 138.66-34.74L138.66-34.74L138.66-34.74Q140.43-33.97 141.50-32.70L141.50-32.70L141.50-32.70Q143.31-30.35 143.31-26.06L143.31-26.06L143.31-26.06Q143.31-21.84 141.50-13.07L141.50-13.07L141.50-13.07Q140.57-8.78 140.57-7.20L140.57-7.20L140.57-7.20Q140.57-5.63 141.47-4.69L141.47-4.69L141.47-4.69Q142.38-3.75 143.72-3.62L143.72-3.62L143.72-3.62Q143.05-1.34 140.73 0L140.73 0L140.73 0Q138.42 1.34 135.41 1.34ZM164.95-3.69L164.95-3.69L164.95-3.69Q162.88 1.34 156.24 1.34L156.24 1.34L156.24 1.34Q152.83 1.34 150.68-1.01L150.68-1.01L150.68-1.01Q148.87-3.08 148.87-5.16L148.87-5.16L148.87-5.16Q148.87-10.59 151.35-21.17L151.35-21.17L153.83-34.17L167.43-35.51L163.35-14.34L163.35-14.34Q162.21-9.38 162.21-7.64L162.21-7.64L162.21-7.64Q162.21-3.82 164.95-3.69ZM155.04-43.48L155.04-43.48L155.04-43.48Q155.04-46.10 157.22-47.50L157.22-47.50L157.22-47.50Q159.39-48.91 162.54-48.91L162.54-48.91L162.54-48.91Q165.69-48.91 167.60-47.50L167.60-47.50L167.60-47.50Q169.51-46.10 169.51-43.48L169.51-43.48L169.51-43.48Q169.51-40.87 167.40-39.53L167.40-39.53L167.40-39.53Q165.29-38.19 162.14-38.19L162.14-38.19L162.14-38.19Q158.99-38.19 157.01-39.53L157.01-39.53L157.01-39.53Q155.04-40.87 155.04-43.48ZM196.78-38.86L196.78-38.86L196.78-38.86Q197.72-40.47 197.72-42.21L197.72-42.21L197.72-42.21Q197.72-45.29 195.84-45.29L195.84-45.29L195.84-45.29Q192.96-45.29 191.75-39.40L191.75-39.40L190.75-34.17L196.85-34.17L196.44-31.16L190.15-31.16L184.12 0L170.58 1.34L177.01-31.16L172.26-31.16L172.86-34.17L177.55-34.17L178.96-39.46L178.96-39.46Q180.16-44.35 185.32-46.63L185.32-46.63L185.32-46.63Q189.07-48.24 195.37-48.24L195.37-48.24L195.37-48.24Q201.67-48.24 204.48-46.63L204.48-46.63L204.48-46.63Q207.30-45.02 207.30-42.88L207.30-42.88L207.30-42.88Q207.30-40.74 205.62-39.40L205.62-39.40L205.62-39.40Q203.95-38.06 202.07-38.06L202.07-38.06L202.07-38.06Q198.39-38.06 196.78-38.86ZM218.09-3.69L218.09-3.69L218.09-3.69Q216.01 1.34 209.38 1.34L209.38 1.34L209.38 1.34Q205.96 1.34 203.81-1.01L203.81-1.01L203.81-1.01Q202.01-3.08 202.01-5.16L202.01-5.16L202.01-5.16Q202.01-10.59 204.48-21.17L204.48-21.17L206.96-34.17L220.56-35.51L216.48-14.34L216.48-14.34Q215.34-9.38 215.34-7.64L215.34-7.64L215.34-7.64Q215.34-3.82 218.09-3.69ZM208.17-43.48L208.17-43.48L208.17-43.48Q208.17-46.10 210.35-47.50L210.35-47.50L210.35-47.50Q212.52-48.91 215.67-48.91L215.67-48.91L215.67-48.91Q218.82-48.91 220.73-47.50L220.73-47.50L220.73-47.50Q222.64-46.10 222.64-43.48L222.64-43.48L222.64-43.48Q222.64-40.87 220.53-39.53L220.53-39.53L220.53-39.53Q218.42-38.19 215.27-38.19L215.27-38.19L215.27-38.19Q212.12-38.19 210.15-39.53L210.15-39.53L210.15-39.53Q208.17-40.87 208.17-43.48ZM256.68-27.87L256.68-27.87L256.68-27.87Q256.68-25.06 254.33-23.32L254.33-23.32L254.33-23.32Q251.99-21.57 248.17-21.57L248.17-21.57L248.17-21.57Q246.56-21.57 245.62-22.04L245.62-22.04L245.62-22.04Q246.36-23.79 246.59-25.96L246.59-25.96L246.59-25.96Q246.83-28.14 246.83-28.74L246.83-28.74L246.83-28.74Q246.83-31.56 244.89-31.56L244.89-31.56L244.89-31.56Q243.55-31.56 242.04-29.88L242.04-29.88L242.04-29.88Q240.53-28.21 239.26-25.59L239.26-25.59L239.26-25.59Q236.44-19.56 236.44-13.47L236.44-13.47L236.44-13.47Q236.44-10.12 237.72-8.61L237.72-8.61L237.72-8.61Q238.99-7.10 241.80-7.10L241.80-7.10L241.80-7.10Q245.69-7.10 248.77-10.32L248.77-10.32L248.77-10.32Q249.64-11.32 250.11-12.46L250.11-12.46L250.11-12.46Q252.66-11.12 252.66-7.44L252.66-7.44L252.66-7.44Q252.66-3.69 248.50-1.21L248.50-1.21L248.50-1.21Q244.22 1.34 237.38 1.34L237.38 1.34L237.38 1.34Q223.78 1.34 223.78-13.07L223.78-13.07L223.78-13.07Q223.78-23.58 229.74-29.61L229.74-29.61L229.74-29.61Q235.51-35.51 246.09-35.51L246.09-35.51L246.09-35.51Q256.68-35.51 256.68-27.87ZM261.40-2.01L261.40-2.01L261.40-2.01Q259.83-3.75 259.12-6.50L259.12-6.50L259.12-6.50Q258.42-9.25 258.42-13.74L258.42-13.74L258.42-13.74Q258.42-18.22 259.96-22.31L259.96-22.31L259.96-22.31Q261.50-26.40 264.32-29.35L264.32-29.35L264.32-29.35Q270.08-35.51 279.59-35.51L279.59-35.51L279.59-35.51Q283.01-35.51 285.49-34.37L285.49-34.37L296.94-35.51L291.99-9.38L291.99-9.38Q291.79-8.58 291.79-7.10L291.79-7.10L291.79-7.10Q291.79-5.63 292.69-4.69L292.69-4.69L292.69-4.69Q293.59-3.75 294.93-3.62L294.93-3.62L294.93-3.62Q294.26-1.34 291.82 0L291.82 0L291.82 0Q289.37 1.34 286.63 1.34L286.63 1.34L286.63 1.34Q283.88 1.34 282.04 0.30L282.04 0.30L282.04 0.30Q280.19-0.74 279.66-2.48L279.66-2.48L279.66-2.48Q278.59-0.80 276.31 0.27L276.31 0.27L276.31 0.27Q274.03 1.34 270.98 1.34L270.98 1.34L270.98 1.34Q267.93 1.34 265.45 0.54L265.45 0.54L265.45 0.54Q262.98-0.27 261.40-2.01ZM275.54-29.21L275.54-29.21L275.54-29.21Q274.77-28.01 274.10-25.96L274.10-25.96L274.10-25.96Q273.43-23.92 272.32-18.46L272.32-18.46L272.32-18.46Q271.22-13.00 271.22-9.11L271.22-9.11L271.22-9.11Q271.22-5.23 271.82-4.09L271.82-4.09L271.82-4.09Q272.42-2.95 273.49-2.95L273.49-2.95L273.49-2.95Q275.64-2.95 277.21-4.99L277.21-4.99L277.21-4.99Q278.79-7.04 279.39-10.65L279.39-10.65L282.94-30.28L282.94-30.28Q281.53-31.49 279.89-31.49L279.89-31.49L279.89-31.49Q278.25-31.49 277.28-30.95L277.28-30.95L277.28-30.95Q276.31-30.42 275.54-29.21ZM315.44-6.70L315.44-6.70L315.44-6.70Q315.44-8.51 316.37-13.07L316.37-13.07L319.93-31.16L315.97-31.16L316.24-33.16L316.24-33.16Q324.28-35.58 332.05-41.47L332.05-41.47L335.27-41.47L333.66-34.17L338.89-34.17L338.28-31.16L333.12-31.16L329.71-13.07L329.71-13.07Q328.84-8.91 328.84-7.50L328.84-7.50L328.84-7.50Q328.84-4.29 331.65-3.62L331.65-3.62L331.65-3.62Q330.98-1.34 328.57 0L328.57 0L328.57 0Q326.16 1.34 322.74 1.34L322.74 1.34L322.74 1.34Q319.32 1.34 317.38-0.80L317.38-0.80L317.38-0.80Q315.44-2.95 315.44-6.70ZM360.06-2.81L360.06-2.81L360.06-2.81Q356.84 1.34 348.87 1.34L348.87 1.34L348.87 1.34Q344.72 1.34 341.70-1.17L341.70-1.17L341.70-1.17Q338.69-3.69 338.69-7.30L338.69-7.30L338.69-7.30Q338.69-9.31 338.89-10.32L338.89-10.32L343.38-34.17L356.98-35.51L352.09-9.65L352.09-9.65Q351.82-8.17 351.82-7.30L351.82-7.30L351.82-7.30Q351.82-3.42 354.16-3.42L354.16-3.42L354.16-3.42Q356.78-3.42 358.65-6.97L358.65-6.97L358.65-6.97Q359.25-8.11 359.52-9.58L359.52-9.58L364.28-34.17L377.48-35.51L372.52-9.38L372.52-9.38Q372.32-8.38 372.32-7.30L372.32-7.30L372.32-7.30Q372.32-6.23 372.92-5.06L372.92-5.06L372.92-5.06Q373.53-3.89 375.47-3.62L375.47-3.62L375.47-3.62Q375.07-2.01 373.66-0.94L373.66-0.94L373.66-0.94Q370.71 1.34 367.53 1.34L367.53 1.34L367.53 1.34Q364.35 1.34 362.47 0.20L362.47 0.20L362.47 0.20Q360.59-0.94 360.06-2.81ZM427.80-27.87L427.80-27.87L427.80-27.87Q427.80-25.06 425.45-23.32L425.45-23.32L425.45-23.32Q423.11-21.57 419.29-21.57L419.29-21.57L419.29-21.57Q417.68-21.57 416.74-22.04L416.74-22.04L416.74-22.04Q417.48-23.79 417.71-25.96L417.71-25.96L417.71-25.96Q417.95-28.14 417.95-28.74L417.95-28.74L417.95-28.74Q417.95-31.56 416.00-31.56L416.00-31.56L416.00-31.56Q414.66-31.56 413.16-29.88L413.16-29.88L413.16-29.88Q411.65-28.21 410.38-25.59L410.38-25.59L410.38-25.59Q407.56-19.56 407.56-13.47L407.56-13.47L407.56-13.47Q407.56-10.12 408.83-8.61L408.83-8.61L408.83-8.61Q410.11-7.10 412.92-7.10L412.92-7.10L412.92-7.10Q416.81-7.10 419.89-10.32L419.89-10.32L419.89-10.32Q420.76-11.32 421.23-12.46L421.23-12.46L421.23-12.46Q423.78-11.12 423.78-7.44L423.78-7.44L423.78-7.44Q423.78-3.69 419.62-1.21L419.62-1.21L419.62-1.21Q415.33 1.34 408.50 1.34L408.50 1.34L408.50 1.34Q394.90 1.34 394.90-13.07L394.90-13.07L394.90-13.07Q394.90-23.58 400.86-29.61L400.86-29.61L400.86-29.61Q406.62-35.51 417.21-35.51L417.21-35.51L417.21-35.51Q427.80-35.51 427.80-27.87ZM432.52-2.01L432.52-2.01L432.52-2.01Q430.94-3.75 430.24-6.50L430.24-6.50L430.24-6.50Q429.54-9.25 429.54-13.74L429.54-13.74L429.54-13.74Q429.54-18.22 431.08-22.31L431.08-22.31L431.08-22.31Q432.62-26.40 435.43-29.35L435.43-29.35L435.43-29.35Q441.20-35.51 450.71-35.51L450.71-35.51L450.71-35.51Q454.13-35.51 456.61-34.37L456.61-34.37L468.06-35.51L463.10-9.38L463.10-9.38Q462.90-8.58 462.90-7.10L462.90-7.10L462.90-7.10Q462.90-5.63 463.81-4.69L463.81-4.69L463.81-4.69Q464.71-3.75 466.05-3.62L466.05-3.62L466.05-3.62Q465.38-1.34 462.94 0L462.94 0L462.94 0Q460.49 1.34 457.74 1.34L457.74 1.34L457.74 1.34Q455.00 1.34 453.15 0.30L453.15 0.30L453.15 0.30Q451.31-0.74 450.78-2.48L450.78-2.48L450.78-2.48Q449.70-0.80 447.43 0.27L447.43 0.27L447.43 0.27Q445.15 1.34 442.10 1.34L442.10 1.34L442.10 1.34Q439.05 1.34 436.57 0.54L436.57 0.54L436.57 0.54Q434.09-0.27 432.52-2.01ZM446.66-29.21L446.66-29.21L446.66-29.21Q445.89-28.01 445.22-25.96L445.22-25.96L445.22-25.96Q444.55-23.92 443.44-18.46L443.44-18.46L443.44-18.46Q442.33-13.00 442.33-9.11L442.33-9.11L442.33-9.11Q442.33-5.23 442.94-4.09L442.94-4.09L442.94-4.09Q443.54-2.95 444.61-2.95L444.61-2.95L444.61-2.95Q446.76-2.95 448.33-4.99L448.33-4.99L448.33-4.99Q449.91-7.04 450.51-10.65L450.51-10.65L454.06-30.28L454.06-30.28Q452.65-31.49 451.01-31.49L451.01-31.49L451.01-31.49Q449.37-31.49 448.40-30.95L448.40-30.95L448.40-30.95Q447.43-30.42 446.66-29.21ZM492.65-18.83L492.65-18.83L492.65-18.83Q495.06-23.12 495.06-27.47L495.06-27.47L495.06-27.47Q495.06-30.35 492.99-30.35L492.99-30.35L492.99-30.35Q491.38-30.35 489.70-27.60L489.70-27.60L489.70-27.60Q487.96-24.86 487.43-21.31L487.43-21.31L483.94 0L470.07 1.34L476.91-34.17L487.96-35.51L486.76-28.74L486.76-28.74Q490.04-35.51 497.41-35.51L497.41-35.51L497.41-35.51Q501.29-35.51 503.40-33.50L503.40-33.50L503.40-33.50Q505.52-31.49 505.52-27.37L505.52-27.37L505.52-27.37Q505.52-23.25 502.80-20.64L502.80-20.64L502.80-20.64Q500.09-18.02 495.47-18.02L495.47-18.02L495.47-18.02Q493.46-18.02 492.65-18.83ZM527.56-18.83L527.56-18.83L527.56-18.83Q529.97-23.12 529.97-27.47L529.97-27.47L529.97-27.47Q529.97-30.35 527.89-30.35L527.89-30.35L527.89-30.35Q526.29-30.35 524.61-27.60L524.61-27.60L524.61-27.60Q522.87-24.86 522.33-21.31L522.33-21.31L518.85 0L504.98 1.34L511.81-34.17L522.87-35.51L521.66-28.74L521.66-28.74Q524.95-35.51 532.32-35.51L532.32-35.51L532.32-35.51Q536.20-35.51 538.31-33.50L538.31-33.50L538.31-33.50Q540.42-31.49 540.42-27.37L540.42-27.37L540.42-27.37Q540.42-23.25 537.71-20.64L537.71-20.64L537.71-20.64Q535.00-18.02 530.37-18.02L530.37-18.02L530.37-18.02Q528.36-18.02 527.56-18.83ZM568.63-11.32L568.63-11.32L568.63-11.32Q570.30-10.18 570.30-7.67L570.30-7.67L570.30-7.67Q570.30-5.16 569.03-3.55L569.03-3.55L569.03-3.55Q567.76-1.94 565.68-0.87L565.68-0.87L565.68-0.87Q561.39 1.34 556.77 1.34L556.77 1.34L556.77 1.34Q552.15 1.34 549.43 0.34L549.43 0.34L549.43 0.34Q546.72-0.67 544.91-2.55L544.91-2.55L544.91-2.55Q541.36-6.10 541.36-12.60L541.36-12.60L541.36-12.60Q541.36-22.71 546.85-28.88L546.85-28.88L546.85-28.88Q552.75-35.51 563.00-35.51L563.00-35.51L563.00-35.51Q569.37-35.51 572.52-32.83L572.52-32.83L572.52-32.83Q574.86-30.82 574.86-27.54L574.86-27.54L574.86-27.54Q574.86-15.75 554.49-15.75L554.49-15.75L554.49-15.75Q554.22-14.00 554.22-12.53L554.22-12.53L554.22-12.53Q554.22-9.45 555.60-8.27L555.60-8.27L555.60-8.27Q556.97-7.10 559.52-7.10L559.52-7.10L559.52-7.10Q562.06-7.10 564.78-8.27L564.78-8.27L564.78-8.27Q567.49-9.45 568.63-11.32ZM554.96-18.63L554.96-18.63L554.96-18.63Q559.72-18.63 562.47-21.57L562.47-21.57L562.47-21.57Q565.21-24.39 565.21-28.88L565.21-28.88L565.21-28.88Q565.21-30.42 564.64-31.26L564.64-31.26L564.64-31.26Q564.07-32.09 562.93-32.09L562.93-32.09L562.93-32.09Q561.80-32.09 560.82-31.66L560.82-31.66L560.82-31.66Q559.85-31.22 558.85-29.75L558.85-29.75L558.85-29.75Q556.37-26.40 554.96-18.63ZM598.11-18.83L598.11-18.83L598.11-18.83Q600.52-23.12 600.52-27.47L600.52-27.47L600.52-27.47Q600.52-30.35 598.44-30.35L598.44-30.35L598.44-30.35Q596.84-30.35 595.16-27.60L595.16-27.60L595.16-27.60Q593.42-24.86 592.88-21.31L592.88-21.31L589.40 0L575.53 1.34L582.36-34.17L593.42-35.51L592.21-28.74L592.21-28.74Q595.50-35.51 602.87-35.51L602.87-35.51L602.87-35.51Q606.75-35.51 608.86-33.50L608.86-33.50L608.86-33.50Q610.97-31.49 610.97-27.37L610.97-27.37L610.97-27.37Q610.97-23.25 608.26-20.64L608.26-20.64L608.26-20.64Q605.55-18.02 600.92-18.02L600.92-18.02L600.92-18.02Q598.91-18.02 598.11-18.83ZM614.96-2.01L614.96-2.01L614.96-2.01Q613.39-3.75 612.68-6.50L612.68-6.50L612.68-6.50Q611.98-9.25 611.98-13.74L611.98-13.74L611.98-13.74Q611.98-18.22 613.52-22.31L613.52-22.31L613.52-22.31Q615.06-26.40 617.87-29.35L617.87-29.35L617.87-29.35Q623.64-35.51 633.15-35.51L633.15-35.51L633.15-35.51Q636.57-35.51 639.05-34.37L639.05-34.37L650.50-35.51L645.55-9.38L645.55-9.38Q645.34-8.58 645.34-7.10L645.34-7.10L645.34-7.10Q645.34-5.63 646.25-4.69L646.25-4.69L646.25-4.69Q647.15-3.75 648.49-3.62L648.49-3.62L648.49-3.62Q647.82-1.34 645.38 0L645.38 0L645.38 0Q642.93 1.34 640.19 1.34L640.19 1.34L640.19 1.34Q637.44 1.34 635.60 0.30L635.60 0.30L635.60 0.30Q633.75-0.74 633.22-2.48L633.22-2.48L633.22-2.48Q632.15-0.80 629.87 0.27L629.87 0.27L629.87 0.27Q627.59 1.34 624.54 1.34L624.54 1.34L624.54 1.34Q621.49 1.34 619.01 0.54L619.01 0.54L619.01 0.54Q616.53-0.27 614.96-2.01ZM629.10-29.21L629.10-29.21L629.10-29.21Q628.33-28.01 627.66-25.96L627.66-25.96L627.66-25.96Q626.99-23.92 625.88-18.46L625.88-18.46L625.88-18.46Q624.78-13.00 624.78-9.11L624.78-9.11L624.78-9.11Q624.78-5.23 625.38-4.09L625.38-4.09L625.38-4.09Q625.98-2.95 627.05-2.95L627.05-2.95L627.05-2.95Q629.20-2.95 630.77-4.99L630.77-4.99L630.77-4.99Q632.35-7.04 632.95-10.65L632.95-10.65L636.50-30.28L636.50-30.28Q635.09-31.49 633.45-31.49L633.45-31.49L633.45-31.49Q631.81-31.49 630.84-30.95L630.84-30.95L630.84-30.95Q629.87-30.42 629.10-29.21Z" fill="url(#editing-sticker-gradient)" stroke="#000" stroke-width="2"></path></g></g><style>text {
  font-size: 64px;
  font-family: Arial Black;
  dominant-baseline: central;
  text-anchor: middle;
}</style></svg>