<?xml version="1.0" encoding="utf-8"?>
<!-- Generator: Adobe Illustrator 23.0.3, SVG Export Plug-In . SVG Version: 6.00 Build 0)  -->
<svg version="1.1" id="Capa_1" xmlns="http://www.w3.org/2000/svg" xmlns:xlink="http://www.w3.org/1999/xlink" x="0px" y="0px"
	 viewBox="0 0 668.13 587" style="enable-background:new 0 0 668.13 587;" xml:space="preserve">
<style type="text/css">
	.st0{fill:#E0E0E0;}
	.st1{fill:#F5F5F5;}
	.st2{opacity:0.8;}
	.st3{fill-rule:evenodd;clip-rule:evenodd;fill:#EBEBEB;}
	.st4{fill:#263238;}
	.st5{fill:#FFFFFF;}
	.st6{fill:#E8505B;}
	.st7{opacity:0.3;}
	.st8{fill:#FAFAFA;}
	.st9{fill-rule:evenodd;clip-rule:evenodd;fill:#E8505B;}
	.st10{fill-rule:evenodd;clip-rule:evenodd;fill:#FFFFFF;}
	.st11{opacity:0.4;}
	.st12{fill:#FFBE9D;}
	.st13{fill:#EB996E;}
	.st14{fill:#455A64;}
	.st15{opacity:0.2;}
</style>
<g>
	<g>
		<g>
			<g>
				<g>
					<g>
						<path class="st0" d="M560.53,161.37c0,0,0.73,0.05,1.93,0.59c1.17,0.53,2.82,1.69,3.84,3.8c0.5,1.04,0.84,2.3,0.78,3.67
							c-0.06,1.35-0.43,2.82-1.29,4.11c-0.41,0.65-0.94,1.26-1.57,1.78c-0.61,0.53-1.33,0.98-2.12,1.31
							c-1.56,0.69-3.41,0.87-5.19,0.5c-1.77-0.4-3.36-1.34-4.47-2.62c-0.57-0.63-1.02-1.33-1.34-2.07c-0.33-0.73-0.55-1.5-0.64-2.27
							c-0.22-1.53,0.09-3.01,0.63-4.26c0.55-1.26,1.41-2.25,2.31-2.99c1.84-1.48,3.84-1.84,5.13-1.83
							C559.84,161.11,560.53,161.37,560.53,161.37c-0.01,0.06-0.71-0.14-1.99-0.09c-1.26,0.05-3.18,0.45-4.92,1.9
							c-0.85,0.72-1.66,1.69-2.17,2.89c-0.5,1.2-0.78,2.61-0.56,4.06c0.09,0.72,0.3,1.45,0.62,2.14c0.31,0.7,0.74,1.37,1.28,1.96
							c1.05,1.21,2.56,2.08,4.23,2.47c1.68,0.35,3.42,0.19,4.9-0.47c0.75-0.31,1.42-0.73,2.01-1.23c0.59-0.49,1.1-1.06,1.5-1.68
							c0.83-1.22,1.19-2.61,1.27-3.9c0.07-1.3-0.24-2.51-0.7-3.52c-0.94-2.04-2.5-3.21-3.62-3.77
							C561.23,161.55,560.51,161.43,560.53,161.37z"/>
					</g>
				</g>
			</g>
		</g>
		<g>
			<g>
				<g>
					<g>
						<path class="st0" d="M567.06,152.85c-0.01,0-0.01-0.09-0.02-0.28c0-0.21-0.01-0.49-0.02-0.85c-0.01-0.78-0.03-1.9-0.05-3.36
							l0.06,0.07c-1.9-0.41-4.4-0.94-7.42-1.58l0.13-0.06c-0.59,1.23-1.25,2.6-1.95,4.06l-0.04,0.07l-0.08,0
							c-1.54,0.06-3.18,0.32-4.84,0.84l-0.09,0.03l-0.07-0.06c-1.02-0.98-2.12-2.05-3.26-3.16l0.21,0.02
							c-2.02,1.26-4.16,2.59-6.4,3.99l0.07-0.21c0.48,1.31,1.01,2.75,1.55,4.23l0.04,0.11l-0.08,0.08
							c-1.03,1.09-2.03,2.43-2.81,3.92l-0.06,0.11l-0.12,0c-1.42,0-2.99,0.01-4.59,0.02l0.2-0.16c-0.52,2.28-1.08,4.73-1.65,7.25
							l-0.12-0.24c1.29,0.6,2.71,1.26,4.14,1.92l0.12,0.06l0.01,0.13c0.06,1.5,0.33,3.13,0.84,4.71l0.04,0.13l-0.1,0.1
							c-1.01,1-2.12,2.08-3.24,3.18l0.03-0.28c1.29,1.99,2.67,4.11,4.07,6.27l-0.27-0.09c1.37-0.48,2.84-0.99,4.32-1.51l0.13-0.05
							l0.1,0.09c1.14,1.03,2.5,1.99,3.99,2.75l0,0l0,0c0.06,0.09-0.12-0.2,0.13,0.2l0,0v0.01v0.02v0.04l0,0.07l0,0.14l0,0.28l0,0.56
							l0,1.13c0,0.75,0,1.49,0,2.24l-0.18-0.22c2.5,0.55,4.97,1.09,7.41,1.63l-0.26,0.12c0.66-1.36,1.32-2.71,1.97-4.05l0.06-0.12
							l0.14-0.01c1.65-0.06,3.28-0.34,4.82-0.82l0.13-0.04l0.1,0.09c1.1,1.07,2.18,2.13,3.25,3.17l-0.28-0.03
							c2.19-1.35,4.33-2.68,6.42-3.97l-0.09,0.25c-0.52-1.44-1.03-2.84-1.53-4.23l-0.04-0.12l0.09-0.09
							c1.14-1.2,2.08-2.52,2.82-3.91l0.06-0.11H575c1.57,0,3.1,0,4.59,0l-0.19,0.15c0.59-2.55,1.15-4.95,1.68-7.24l0.1,0.2
							c-1.46-0.68-2.82-1.32-4.14-1.93l-0.09-0.04l0-0.1c-0.07-1.71-0.37-3.29-0.83-4.73l-0.03-0.09l0.07-0.06
							c1.18-1.15,2.24-2.19,3.25-3.17l-0.02,0.17c-1.56-2.44-2.89-4.51-4.03-6.29l0.12,0.04c-1.73,0.59-3.15,1.07-4.33,1.48
							l-0.04,0.01l-0.03-0.03c-1.22-1.11-2.25-1.79-2.95-2.22c-0.34-0.2-0.6-0.35-0.79-0.46
							C567.14,152.9,567.06,152.85,567.06,152.85c0.01,0,0.1,0.04,0.28,0.12c0.18,0.09,0.45,0.23,0.81,0.43
							c0.71,0.41,1.76,1.07,3.01,2.18l-0.08-0.02c1.18-0.42,2.59-0.92,4.31-1.53l0.08-0.03l0.05,0.07c1.16,1.77,2.51,3.83,4.09,6.25
							l0.06,0.09l-0.08,0.08c-1,0.99-2.05,2.03-3.23,3.19l0.04-0.15c0.48,1.46,0.8,3.06,0.87,4.81l-0.1-0.14
							c1.32,0.61,2.69,1.24,4.15,1.91l0.13,0.06l-0.03,0.14c-0.52,2.29-1.07,4.7-1.65,7.25l-0.03,0.15l-0.16,0
							c-1.49,0.01-3.01,0.01-4.59,0.02l0.18-0.11c-0.75,1.42-1.72,2.78-2.88,4l0.04-0.21c0.51,1.38,1.02,2.79,1.54,4.23l0.06,0.16
							l-0.15,0.09c-2.08,1.29-4.22,2.62-6.41,3.98l-0.15,0.09l-0.13-0.12c-1.07-1.04-2.15-2.09-3.25-3.16l0.23,0.05
							c-1.58,0.49-3.24,0.78-4.94,0.84l0.2-0.13c-0.65,1.34-1.3,2.69-1.97,4.05l-0.08,0.16l-0.18-0.04
							c-2.43-0.53-4.91-1.07-7.41-1.62l-0.18-0.04l0-0.18c0-0.74,0-1.49-0.01-2.24l0-1.12l0-0.56l0-0.28l0-0.14l0-0.07l0-0.04v-0.02
							v-0.01v0c0.25,0.4,0.07,0.11,0.12,0.2l0,0l0,0c-1.53-0.78-2.93-1.76-4.09-2.82l0.24,0.05c-1.48,0.52-2.96,1.03-4.32,1.5
							l-0.17,0.06l-0.1-0.15c-1.4-2.16-2.77-4.29-4.06-6.27l-0.1-0.15l0.13-0.13c1.12-1.1,2.23-2.18,3.24-3.18l-0.06,0.22
							c-0.52-1.62-0.8-3.29-0.86-4.83l0.13,0.19c-1.43-0.67-2.85-1.33-4.14-1.93l-0.16-0.07l0.04-0.17
							c0.58-2.51,1.15-4.97,1.67-7.24l0.04-0.16l0.17,0c1.6,0,3.16,0,4.59,0l-0.18,0.11c0.81-1.52,1.83-2.88,2.89-3.99l-0.04,0.19
							c-0.53-1.48-1.06-2.92-1.53-4.23l-0.05-0.14l0.12-0.08c2.25-1.39,4.4-2.71,6.42-3.96l0.11-0.07l0.09,0.09
							c1.14,1.11,2.23,2.19,3.24,3.18l-0.15-0.04c1.69-0.51,3.35-0.77,4.92-0.82l-0.12,0.08c0.71-1.46,1.38-2.82,1.98-4.04
							l0.04-0.08l0.09,0.02c3.01,0.68,5.5,1.24,7.4,1.67l0.06,0.01l0,0.06c-0.01,1.44-0.02,2.56-0.03,3.33
							c-0.01,0.37-0.01,0.65-0.02,0.86C567.07,152.74,567.07,152.84,567.06,152.85z"/>
					</g>
				</g>
			</g>
		</g>
	</g>
	<g>
		<g>
			<g>
				<path class="st0" d="M611.97,514.94c0,0-0.01-0.47-0.02-1.37c-0.01-0.91-0.01-2.23-0.02-3.97c-0.01-3.49-0.03-8.6-0.05-15.16
					c-0.03-13.12-0.07-32.03-0.11-55.24l0.21,0.21c-35.91,0.02-82.75,0.04-133.83,0.06h-0.01l0.27-0.27
					c-0.01,26.8-0.01,52.41-0.02,75.73l-0.25-0.25c39.19,0.05,72.62,0.09,96.26,0.12c11.83,0.03,21.21,0.05,27.64,0.07
					c3.21,0.01,5.69,0.02,7.37,0.03c0.83,0.01,1.47,0.01,1.91,0.02C611.74,514.93,611.97,514.94,611.97,514.94s-0.21,0.01-0.63,0.01
					c-0.43,0-1.06,0.01-1.88,0.01c-1.67,0.01-4.13,0.02-7.32,0.03c-6.42,0.02-15.78,0.04-27.59,0.07
					c-23.68,0.03-57.17,0.07-96.43,0.12l-0.25,0v-0.25c-0.01-23.32-0.01-48.93-0.02-75.73v-0.27h0.27h0.01
					c51.08,0.02,97.92,0.04,133.83,0.06l0.21,0l0,0.21c-0.05,23.27-0.09,42.22-0.11,55.37c-0.02,6.54-0.04,11.64-0.05,15.11
					c-0.01,1.72-0.02,3.03-0.02,3.93C611.98,514.5,611.97,514.94,611.97,514.94z"/>
			</g>
		</g>
		<g>
			<g>
				<path class="st0" d="M612.02,448.38c0,0.15-29.94,0.27-66.86,0.27c-36.93,0-66.86-0.12-66.86-0.27c0-0.15,29.93-0.27,66.86-0.27
					C582.08,448.11,612.02,448.23,612.02,448.38z"/>
			</g>
		</g>
		<g>
			<rect x="489.72" y="460.86" class="st1" width="41.34" height="40.43"/>
		</g>
		<g>
			<g>
				<g>
					<path class="st0" d="M602.26,467.53c0,0.02-0.21,0.04-0.61,0.05c-0.46,0.01-1.04,0.03-1.74,0.05
						c-1.59,0.02-3.76,0.05-6.41,0.09c-5.48,0.02-12.93,0.05-21.16,0.08c-8.23-0.03-15.68-0.06-21.16-0.08
						c-2.65-0.04-4.82-0.06-6.41-0.09c-0.71-0.02-1.28-0.04-1.74-0.05c-0.4-0.02-0.61-0.04-0.61-0.05c0-0.02,0.21-0.04,0.61-0.05
						c0.46-0.01,1.04-0.03,1.74-0.05c1.59-0.02,3.76-0.05,6.41-0.08c5.48-0.02,12.93-0.05,21.16-0.08
						c8.23,0.03,15.67,0.06,21.16,0.08c2.65,0.04,4.82,0.06,6.41,0.08c0.71,0.02,1.28,0.04,1.74,0.05
						C602.05,467.5,602.26,467.51,602.26,467.53z"/>
				</g>
			</g>
			<g>
				<g>
					<path class="st0" d="M603.59,476.56c0,0.02-0.21,0.04-0.62,0.05c-0.47,0.01-1.06,0.03-1.78,0.05
						c-1.62,0.02-3.84,0.05-6.56,0.09c-5.6,0.02-13.21,0.05-21.63,0.08c-8.41-0.03-16.03-0.06-21.63-0.08
						c-2.71-0.04-4.93-0.06-6.55-0.09c-0.72-0.02-1.31-0.04-1.78-0.05c-0.41-0.02-0.62-0.04-0.62-0.05c0-0.02,0.21-0.04,0.62-0.05
						c0.47-0.01,1.06-0.03,1.78-0.05c1.62-0.02,3.84-0.05,6.55-0.09c5.6-0.02,13.22-0.05,21.63-0.08
						c8.41,0.03,16.03,0.06,21.63,0.08c2.71,0.04,4.93,0.06,6.56,0.09c0.73,0.02,1.32,0.04,1.78,0.05
						C603.38,476.53,603.59,476.55,603.59,476.56z"/>
				</g>
			</g>
			<g>
				<g>
					<path class="st0" d="M603.59,485.6c0,0.02-0.21,0.04-0.62,0.05c-0.47,0.01-1.06,0.03-1.78,0.05c-1.62,0.02-3.84,0.05-6.56,0.08
						c-5.6,0.02-13.21,0.05-21.63,0.08c-8.41-0.03-16.03-0.06-21.63-0.08c-2.71-0.04-4.93-0.06-6.55-0.08
						c-0.72-0.02-1.31-0.04-1.78-0.05c-0.41-0.02-0.62-0.04-0.62-0.05c0-0.02,0.21-0.04,0.62-0.05c0.47-0.01,1.06-0.03,1.78-0.05
						c1.62-0.02,3.84-0.05,6.55-0.09c5.6-0.02,13.22-0.05,21.63-0.08c8.41,0.03,16.03,0.06,21.63,0.08
						c2.71,0.04,4.93,0.06,6.56,0.09c0.73,0.02,1.32,0.04,1.78,0.05C603.38,485.56,603.59,485.58,603.59,485.6z"/>
				</g>
			</g>
			<g>
				<g>
					<path class="st0" d="M603.59,494.63c0,0.02-0.21,0.04-0.62,0.05c-0.47,0.01-1.06,0.03-1.78,0.05
						c-1.62,0.02-3.84,0.05-6.56,0.09c-5.6,0.02-13.21,0.05-21.63,0.08c-8.41-0.03-16.03-0.06-21.63-0.08
						c-2.71-0.04-4.93-0.06-6.55-0.09c-0.72-0.02-1.31-0.04-1.78-0.05c-0.41-0.02-0.62-0.04-0.62-0.05c0-0.02,0.21-0.04,0.62-0.05
						c0.47-0.01,1.06-0.03,1.78-0.05c1.62-0.02,3.84-0.05,6.55-0.09c5.6-0.02,13.22-0.05,21.63-0.08
						c8.41,0.03,16.03,0.06,21.63,0.08c2.71,0.04,4.93,0.06,6.56,0.09c0.73,0.02,1.32,0.04,1.78,0.05
						C603.38,494.59,603.59,494.61,603.59,494.63z"/>
				</g>
			</g>
		</g>
	</g>
	<g>
		<g>
			<ellipse class="st1" cx="224.95" cy="101.4" rx="55.62" ry="54.4"/>
		</g>
		<g>
			<g>
				<path class="st0" d="M250.21,103.08c0,0.04-0.7,0.09-1.97,0.13c-1.39,0.03-3.21,0.06-5.41,0.11c-4.59,0.06-10.98,0.1-18.19,0.12
					l-0.36,0l0-0.35c0-1.13,0-2.32,0-3.53c0-7.88,0.04-15.01,0.11-20.18c0.05-2.49,0.09-4.55,0.11-6.11
					c0.04-1.44,0.09-2.24,0.14-2.24c0.05,0,0.1,0.8,0.14,2.24c0.03,1.56,0.07,3.63,0.11,6.11c0.07,5.16,0.11,12.3,0.11,20.18
					c0,1.21,0,2.4,0,3.53l-0.36-0.35c7.21,0.01,13.61,0.05,18.19,0.12c2.2,0.04,4.02,0.08,5.41,0.11
					C249.51,102.99,250.21,103.03,250.21,103.08z"/>
			</g>
		</g>
		<g>
			<g>
				<path class="st0" d="M224.82,55.94c0.2,0,0.36,2.05,0.36,4.57c0,2.52-0.16,4.57-0.36,4.57c-0.2,0-0.36-2.05-0.36-4.57
					C224.46,57.98,224.62,55.94,224.82,55.94z"/>
			</g>
		</g>
		<g>
			<g>
				<path class="st0" d="M250.16,63.28c0.14,0.14-1.2,1.68-3,3.43c-1.8,1.76-3.37,3.07-3.51,2.94c-0.14-0.14,1.2-1.67,3-3.43
					C248.45,64.45,250.02,63.14,250.16,63.28z"/>
			</g>
		</g>
		<g>
			<g>
				<path class="st0" d="M264.98,79.11c0.09,0.18-1.67,1.22-3.83,2.5c-2.16,1.28-3.92,2.34-4.04,2.18
					c-0.12-0.15,1.47-1.48,3.66-2.78C262.96,79.71,264.89,78.94,264.98,79.11z"/>
			</g>
		</g>
		<g>
			<g>
				<path class="st0" d="M273.66,102.61c0,0.19-2.85,0.35-6.37,0.35c-3.52,0-6.37-0.16-6.37-0.35c0-0.19,2.85-0.35,6.37-0.35
					C270.81,102.25,273.66,102.41,273.66,102.61z"/>
			</g>
		</g>
		<g>
			<g>
				<path class="st0" d="M185.31,101.77c0,0.19-2.69,0.35-6.02,0.35c-3.32,0-6.02-0.16-6.02-0.35c0-0.19,2.69-0.35,6.02-0.35
					C182.62,101.42,185.31,101.58,185.31,101.77z"/>
			</g>
		</g>
		<g>
			<g>
				<path class="st0" d="M191.56,119.27c0.13,0.15-1.91,1.95-4.55,4.03c-2.64,2.08-4.88,3.64-5,3.49c-0.12-0.16,1.92-1.96,4.55-4.03
					C189.19,120.68,191.43,119.12,191.56,119.27z"/>
			</g>
		</g>
		<g>
			<g>
				<path class="st0" d="M206.98,132.79c0.17,0.12-1.34,2.39-3.09,5.25c-1.76,2.85-3.1,5.22-3.28,5.14
					c-0.17-0.08,0.89-2.61,2.67-5.5C205.03,134.79,206.82,132.68,206.98,132.79z"/>
			</g>
		</g>
		<g>
			<g>
				<path class="st0" d="M224.82,150.24c-0.2,0-0.36-2.79-0.36-6.23c0-3.44,0.16-6.23,0.36-6.23c0.2,0,0.36,2.79,0.36,6.23
					C225.18,147.45,225.01,150.24,224.82,150.24z"/>
			</g>
		</g>
		<g>
			<g>
				<path class="st0" d="M252.28,141.94c-0.1,0.16-2.59-1.25-5.25-3.52c-2.67-2.27-4.43-4.49-4.28-4.61
					c0.16-0.14,2.13,1.85,4.76,4.08C250.12,140.13,252.39,141.77,252.28,141.94z"/>
			</g>
		</g>
		<g>
			<g>
				<path class="st0" d="M265.17,128.36c-0.14,0.14-2.03-1.49-4.22-3.63c-2.19-2.14-3.85-3.99-3.71-4.13
					c0.14-0.14,2.03,1.49,4.22,3.63C263.65,126.38,265.31,128.22,265.17,128.36z"/>
			</g>
		</g>
		<g>
			<g>
				<path class="st0" d="M190.98,85.02c-0.14,0.14-1.81-1.27-3.72-3.14c-1.92-1.87-3.36-3.5-3.21-3.64
					c0.14-0.14,1.81,1.27,3.72,3.14C189.68,83.25,191.12,84.88,190.98,85.02z"/>
			</g>
		</g>
		<g>
			<g>
				<path class="st0" d="M206.88,68.63c-0.14,0.14-1.78-1.24-3.66-3.07c-1.88-1.83-3.29-3.43-3.15-3.57
					c0.14-0.14,1.78,1.24,3.66,3.07C205.61,66.9,207.02,68.49,206.88,68.63z"/>
			</g>
		</g>
	</g>
	<g class="st2">
		<g>
			<g>
				<path class="st3" d="M527.5,73.53c2.94,1.5,5.62,3.36,8,5.51l8.55-2.98l8.04,12.41l-6.4,6.29c0.97,3.02,1.55,6.19,1.68,9.43
					l8.2,3.81l-3.29,14.33l-9.07,0.02c-1.53,2.88-3.44,5.5-5.64,7.83l3.04,8.36l-12.68,7.86l-6.43-6.26
					c-3.09,0.95-6.33,1.51-9.64,1.64l-3.89,8.02l-14.65-3.21l-0.02-8.87c-2.94-1.5-5.62-3.36-8-5.51l-8.55,2.98l-8.04-12.41
					l6.41-6.29c-0.97-3.02-1.55-6.19-1.68-9.43l-8.19-3.81l3.29-14.33l9.07-0.02c1.53-2.88,3.44-5.5,5.64-7.83l-3.04-8.36
					l12.68-7.86l6.43,6.26c3.09-0.95,6.33-1.52,9.64-1.64l3.89-8.01l14.65,3.21L527.5,73.53L527.5,73.53z M514.58,90.4
					c-8.68-1.9-17.3,3.43-19.24,11.92c-1.95,8.49,3.51,16.92,12.19,18.82c8.68,1.9,17.3-3.43,19.24-11.92
					C528.72,100.73,523.26,92.3,514.58,90.4z"/>
			</g>
		</g>
	</g>
	<g>
		<path class="st1" d="M96.9,199.6h95.07c0,0-8.41-14.96-32.88-12.79c-23.37,2.08-24.56-7.36-36.44-8.52
			C110.76,177.13,100.86,186.04,96.9,199.6z"/>
	</g>
	<g>
		<path class="st1" d="M302.66,368.66h76.95c0,0-6.8-12.11-26.61-10.35c-18.92,1.68-19.88-5.96-29.5-6.9
			C313.88,350.47,305.87,357.68,302.66,368.66z"/>
	</g>
	<g>
		<path class="st4" d="M632.13,554.38c0,0.18-132.44,0.33-295.78,0.33c-163.39,0-295.81-0.15-295.81-0.33
			c0-0.18,132.41-0.33,295.81-0.33C499.69,554.05,632.13,554.2,632.13,554.38z"/>
	</g>
	<g>
		<g>
			<g>
				<rect x="413.33" y="177.65" class="st5" width="186.72" height="122.28"/>
			</g>
			<g>
				<g>
					<path class="st6" d="M600.06,299.93c0,0-0.02-0.76-0.03-2.22c-0.01-1.47-0.02-3.63-0.03-6.45c-0.02-5.66-0.04-13.96-0.07-24.59
						c-0.03-21.24-0.08-51.78-0.14-89.01l0.27,0.26c-51.45,0.02-116.36,0.04-186.71,0.07h-0.01l0.33-0.33
						c-0.01,43.56-0.02,84.99-0.03,122.28l-0.31-0.3c54.97,0.06,101.61,0.11,134.52,0.15c16.47,0.03,29.5,0.06,38.43,0.08
						c4.46,0.02,7.89,0.03,10.22,0.04c1.15,0.01,2.03,0.01,2.64,0.02C599.74,299.92,600.06,299.93,600.06,299.93
						s-0.29,0.01-0.87,0.02c-0.6,0-1.47,0.01-2.6,0.02c-2.32,0.01-5.73,0.02-10.16,0.04c-8.91,0.02-21.92,0.05-38.36,0.08
						c-32.96,0.04-79.67,0.09-134.72,0.15l-0.31,0v-0.3c-0.01-37.29-0.02-78.72-0.03-122.28l0-0.33h0.33h0.01
						c70.35,0.02,135.26,0.05,186.71,0.07l0.27,0l0,0.26c-0.06,37.3-0.11,67.89-0.14,89.17c-0.03,10.61-0.05,18.89-0.07,24.53
						c-0.01,2.8-0.02,4.94-0.03,6.4C600.07,299.21,600.06,299.93,600.06,299.93z"/>
				</g>
			</g>
		</g>
		<g>
			<g>
				<path class="st6" d="M413.33,188.57c0-0.18,41.77-0.33,93.28-0.33c51.53,0,93.29,0.15,93.29,0.33c0,0.18-41.76,0.33-93.29,0.33
					C455.1,188.89,413.33,188.75,413.33,188.57z"/>
			</g>
		</g>
		<g>
			<g class="st7">
				<path class="st6" d="M420.7,183.06c0,0.81-0.67,1.46-1.5,1.46s-1.5-0.66-1.5-1.46c0-0.81,0.67-1.46,1.5-1.46
					S420.7,182.25,420.7,183.06z"/>
			</g>
			<g class="st7">
				<path class="st6" d="M425.83,183.06c0,0.81-0.67,1.46-1.5,1.46c-0.83,0-1.5-0.66-1.5-1.46c0-0.81,0.67-1.46,1.5-1.46
					C425.16,181.6,425.83,182.25,425.83,183.06z"/>
			</g>
			<g class="st7">
				<path class="st6" d="M430.88,183.06c0,0.81-0.67,1.46-1.5,1.46c-0.83,0-1.5-0.66-1.5-1.46c0-0.81,0.67-1.46,1.5-1.46
					C430.21,181.6,430.88,182.25,430.88,183.06z"/>
			</g>
		</g>
		<g class="st7">
			<rect x="429.39" y="201.32" class="st6" width="49.81" height="48.71"/>
		</g>
		<g>
			<g>
				<path class="st6" d="M574.45,215.09c0,0.18-19.43,0.33-43.38,0.33c-23.97,0-43.39-0.15-43.39-0.33s19.42-0.33,43.39-0.33
					C555.02,214.76,574.45,214.91,574.45,215.09z"/>
			</g>
		</g>
		<g>
			<g>
				<path class="st6" d="M574.45,224.14c0,0.18-19.43,0.33-43.38,0.33c-23.97,0-43.39-0.15-43.39-0.33c0-0.18,19.42-0.33,43.39-0.33
					C555.02,223.81,574.45,223.96,574.45,224.14z"/>
			</g>
		</g>
		<g>
			<g>
				<path class="st6" d="M574.45,233.19c0,0.18-19.43,0.33-43.38,0.33c-23.97,0-43.39-0.15-43.39-0.33s19.42-0.33,43.39-0.33
					C555.02,232.87,574.45,233.01,574.45,233.19z"/>
			</g>
		</g>
		<g>
			<g>
				<path class="st6" d="M538.96,242.25c0,0.05-0.72,0.09-2.02,0.13c-1.42,0.03-3.27,0.06-5.5,0.1c-4.64,0.06-11.05,0.1-18.13,0.1
					c-7.08,0-13.49-0.04-18.13-0.1c-2.23-0.04-4.08-0.08-5.5-0.1c-1.3-0.04-2.01-0.08-2.01-0.13c0-0.05,0.72-0.09,2.01-0.13
					c1.42-0.03,3.27-0.06,5.5-0.1c4.64-0.06,11.05-0.1,18.13-0.1c7.08,0,13.49,0.04,18.13,0.1c2.23,0.04,4.08,0.08,5.5,0.1
					C538.24,242.16,538.96,242.2,538.96,242.25z"/>
			</g>
		</g>
		<g class="st7">
			<rect x="432.5" y="266.46" class="st6" width="23.41" height="22.89"/>
		</g>
		<g class="st7">
			<rect x="474.95" y="266.46" class="st6" width="23.41" height="22.89"/>
		</g>
		<g class="st7">
			<rect x="517.4" y="266.46" class="st6" width="23.41" height="22.89"/>
		</g>
		<g class="st7">
			<rect x="559.85" y="266.46" class="st6" width="23.41" height="22.89"/>
		</g>
	</g>
	<g>
		<g>
			<g>
				<rect x="71.85" y="221.71" class="st5" width="166.34" height="66.08"/>
			</g>
			<g>
				<g>
					<path class="st6" d="M238.19,287.79c0,0-0.01-0.41-0.02-1.18c0-0.78-0.01-1.93-0.02-3.43c-0.01-3.02-0.03-7.44-0.05-13.15
						c-0.02-11.41-0.06-27.9-0.1-48.32l0.18,0.18c-42.31,0.02-101.22,0.05-166.33,0.08h-0.01l0.26-0.26
						c0,23.14-0.01,45.48-0.01,66.08l-0.25-0.25c48.2,0.05,89.75,0.09,119.26,0.12c14.77,0.03,26.52,0.05,34.6,0.07
						c4.03,0.01,7.14,0.02,9.26,0.03c1.05,0.01,1.85,0.01,2.4,0.02C237.9,287.78,238.19,287.79,238.19,287.79s-0.26,0.01-0.79,0.02
						c-0.54,0-1.33,0.01-2.37,0.02c-2.1,0.01-5.2,0.02-9.21,0.03c-8.06,0.02-19.8,0.04-34.54,0.07
						c-29.56,0.03-71.17,0.07-119.43,0.12l-0.25,0v-0.25c0-20.6-0.01-42.94-0.01-66.08v-0.26h0.26h0.01
						c65.11,0.03,124.01,0.06,166.33,0.08l0.19,0l0,0.18c-0.04,20.46-0.08,37-0.1,48.43c-0.02,5.69-0.04,10.1-0.05,13.11
						c-0.01,1.49-0.02,2.62-0.02,3.4C238.2,287.4,238.19,287.79,238.19,287.79z"/>
				</g>
			</g>
		</g>
		<g>
			<g>
				<path class="st6" d="M72.01,230.62c0-0.14,37.18-0.26,83.03-0.26c45.87,0,83.04,0.12,83.04,0.26c0,0.14-37.17,0.26-83.04,0.26
					C109.19,230.87,72.01,230.76,72.01,230.62z"/>
			</g>
		</g>
		<g>
			<g class="st7">
				<path class="st6" d="M78.98,226.63c0,0.65-0.54,1.18-1.21,1.18c-0.67,0-1.21-0.53-1.21-1.18c0-0.65,0.54-1.18,1.21-1.18
					C78.44,225.45,78.98,225.98,78.98,226.63z"/>
			</g>
			<g class="st7">
				<path class="st6" d="M83.11,226.63c0,0.65-0.54,1.18-1.21,1.18c-0.67,0-1.21-0.53-1.21-1.18c0-0.65,0.54-1.18,1.21-1.18
					C82.57,225.45,83.11,225.98,83.11,226.63z"/>
			</g>
			<g class="st7">
				<path class="st6" d="M87.19,226.63c0,0.65-0.54,1.18-1.21,1.18c-0.67,0-1.21-0.53-1.21-1.18c0-0.65,0.54-1.18,1.21-1.18
					C86.65,225.45,87.19,225.98,87.19,226.63z"/>
			</g>
		</g>
		<g class="st7">
			<rect x="85.98" y="241.36" class="st6" width="40.18" height="39.3"/>
		</g>
		<g>
			<g>
				<g>
					<path class="st6" d="M226.68,251.89c0,0.14-20.67,0.26-46.17,0.26c-25.51,0-46.18-0.12-46.18-0.26
						c0-0.14,20.67-0.26,46.18-0.26C206,251.63,226.68,251.75,226.68,251.89z"/>
				</g>
			</g>
			<g>
				<g>
					<path class="st6" d="M226.68,259.89c0,0.14-20.67,0.26-46.17,0.26c-25.51,0-46.18-0.12-46.18-0.26
						c0-0.14,20.67-0.26,46.18-0.26C206,259.64,226.68,259.75,226.68,259.89z"/>
				</g>
			</g>
			<g>
				<g>
					<path class="st6" d="M193.78,267.9c0,0.02-0.21,0.04-0.6,0.05c-0.45,0.01-1.03,0.03-1.73,0.05c-1.57,0.02-3.73,0.05-6.37,0.08
						c-5.44,0.02-12.84,0.05-21.02,0.08c-8.18-0.03-15.58-0.06-21.02-0.08c-2.64-0.03-4.8-0.06-6.37-0.08
						c-0.71-0.02-1.28-0.04-1.73-0.05c-0.4-0.02-0.6-0.03-0.6-0.05c0-0.02,0.21-0.04,0.6-0.05c0.45-0.01,1.03-0.03,1.73-0.05
						c1.57-0.02,3.73-0.05,6.37-0.08c5.44-0.02,12.84-0.05,21.02-0.08c8.18,0.03,15.57,0.06,21.02,0.08
						c2.64,0.03,4.8,0.06,6.37,0.08c0.71,0.02,1.28,0.04,1.73,0.05C193.57,267.86,193.78,267.88,193.78,267.9z"/>
				</g>
			</g>
		</g>
	</g>
	<path class="st1" d="M360.41,138.67c-2.79-1.82-6.62-0.72-9.4,1.1c-2.79,1.82-5.17,4.31-8.29,5.5c-5.87,2.23-13.56-0.41-18.12,3.83
		c-2.89,2.69-3.19,7.11-5.4,10.37c-3.72,5.48-12.66,7.54-13.43,14.08c-0.45,3.81,2.64,7.47,6.41,8.54
		c3.77,1.07,7.92-0.06,11.18-2.18c3.82-2.48,6.82-6.31,11.17-7.72c4.45-1.44,9.93-0.23,13.44-3.27c3.51-3.04,2.98-8.62,5.5-12.49
		c1.34-2.06,3.45-3.5,5.34-5.1c1.89-1.6,3.69-3.57,4.01-6C363.13,142.89,362.11,138.76,360.41,138.67"/>
	<g>
		<g>
			<path class="st4" d="M287.99,405.72c0.16-0.09,0.68,0.41,1.16,1.13c0.49,0.72,0.76,1.39,0.6,1.49c-0.15,0.1-0.67-0.4-1.16-1.14
				C288.1,406.49,287.83,405.82,287.99,405.72z"/>
		</g>
		<g>
			<path class="st4" d="M282.48,394.38c0.18-0.06,0.86,1.19,1.53,2.78c0.67,1.6,1.08,2.95,0.91,3.03c-0.17,0.08-0.85-1.17-1.53-2.79
				C282.71,395.8,282.31,394.44,282.48,394.38z"/>
		</g>
		<g>
			<path class="st4" d="M279.5,382.16c0.18-0.02,0.59,1.34,0.92,3.03c0.32,1.7,0.44,3.11,0.26,3.15c-0.18,0.04-0.59-1.31-0.92-3.03
				C279.43,383.6,279.32,382.19,279.5,382.16z"/>
		</g>
		<g>
			<path class="st4" d="M279.05,369.61c0.18,0.01,0.31,1.42,0.29,3.15c-0.02,1.73-0.19,3.13-0.38,3.14
				c-0.18,0.01-0.31-1.4-0.29-3.15C278.7,371,278.87,369.59,279.05,369.61z"/>
		</g>
		<g>
			<path class="st4" d="M281.13,357.21c0.18,0.05,0.02,1.46-0.35,3.14c-0.37,1.69-0.82,3.03-1.01,3.01
				c-0.18-0.03-0.03-1.43,0.35-3.14C280.5,358.51,280.95,357.16,281.13,357.21z"/>
		</g>
		<g>
			<path class="st4" d="M285.75,345.49c0.16,0.08-0.29,1.43-1.01,3c-0.72,1.57-1.45,2.8-1.62,2.74c-0.17-0.06,0.28-1.41,1.01-3
				C284.86,346.63,285.59,345.41,285.75,345.49z"/>
		</g>
		<g>
			<path class="st4" d="M292.83,335.02c0.14,0.11-0.59,1.33-1.65,2.72c-1.05,1.39-2.04,2.42-2.18,2.34
				c-0.17-0.11,0.57-1.32,1.64-2.73C291.71,335.95,292.69,334.9,292.83,335.02z"/>
		</g>
		<g>
			<path class="st4" d="M301.47,325.71c0.13,0.13-0.75,1.25-1.97,2.5c-1.22,1.26-2.32,2.17-2.46,2.05s0.75-1.24,1.97-2.5
				C300.24,326.5,301.34,325.58,301.47,325.71z"/>
		</g>
		<g>
			<path class="st4" d="M310.52,316.77c0.13,0.13-0.77,1.23-2.02,2.47c-1.25,1.24-2.37,2.14-2.5,2.01
				c-0.13-0.13,0.77-1.23,2.02-2.47C309.27,317.54,310.39,316.64,310.52,316.77z"/>
		</g>
		<g>
			<path class="st4" d="M318.97,307.29c0.15,0.11-0.65,1.29-1.78,2.64c-1.13,1.35-2.16,2.34-2.3,2.22c-0.14-0.12,0.66-1.3,1.78-2.64
				C317.79,308.18,318.82,307.18,318.97,307.29z"/>
		</g>
		<g>
			<path class="st4" d="M325.53,296.5c0.17,0.07-0.25,1.44-1.08,2.99c-0.82,1.56-1.71,2.69-1.87,2.6c-0.16-0.1,0.46-1.36,1.27-2.9
				C324.67,297.66,325.36,296.43,325.53,296.5z"/>
		</g>
		<g>
			<path class="st4" d="M328.66,284.35c0.18,0.01,0.23,1.44-0.07,3.17c-0.29,1.73-0.81,3.07-0.99,3.03
				c-0.18-0.05,0.04-1.43,0.33-3.13C328.22,285.72,328.47,284.34,328.66,284.35z"/>
		</g>
		<g>
			<path class="st4" d="M327.7,271.86c0.18-0.04,0.68,1.3,0.95,3.03c0.28,1.73,0.22,3.16,0.03,3.17c-0.19,0.01-0.42-1.37-0.7-3.07
				C327.73,273.29,327.52,271.9,327.7,271.86z"/>
		</g>
		<g>
			<path class="st4" d="M322.65,260.36c0.15-0.1,1.09,0.99,1.94,2.54c0.85,1.55,1.26,2.92,1.1,2.99c-0.17,0.07-0.85-1.16-1.69-2.68
				C323.18,261.7,322.5,260.46,322.65,260.36z"/>
		</g>
		<g>
			<path class="st4" d="M313.68,251.44c0.1-0.15,1.4,0.52,2.78,1.65c1.38,1.13,2.28,2.26,2.15,2.38c-0.14,0.13-1.23-0.78-2.58-1.88
				C314.69,252.49,313.58,251.59,313.68,251.44z"/>
		</g>
		<g>
			<path class="st4" d="M302,246.34c0.04-0.17,1.5,0,3.19,0.57c1.7,0.57,2.96,1.3,2.88,1.46c-0.08,0.17-1.44-0.29-3.1-0.84
				C303.32,246.97,301.96,246.52,302,246.34z"/>
		</g>
		<g>
			<path class="st4" d="M289.23,245.77c-0.03-0.17,1.38-0.56,3.18-0.65c1.8-0.09,3.25,0.14,3.23,0.32c-0.01,0.18-1.44,0.24-3.2,0.33
				C290.69,245.85,289.26,245.95,289.23,245.77z"/>
		</g>
		<g>
			<path class="st4" d="M277.38,250.39c-0.11-0.14,1-1.09,2.59-1.93c1.59-0.84,3.01-1.21,3.07-1.04c0.07,0.17-1.21,0.8-2.76,1.62
				C278.73,249.85,277.48,250.54,277.38,250.39z"/>
		</g>
		<g>
			<path class="st4" d="M268.55,259.43c-0.16-0.09,0.47-1.39,1.58-2.78c1.1-1.39,2.23-2.31,2.36-2.18c0.13,0.13-0.76,1.23-1.83,2.58
				C269.58,258.4,268.71,259.52,268.55,259.43z"/>
		</g>
		<g>
			<path class="st4" d="M264.22,271.17c-0.18-0.02-0.18-1.46,0.25-3.17c0.42-1.71,1.09-3,1.26-2.93c0.18,0.07-0.2,1.42-0.61,3.09
				C264.7,269.82,264.41,271.19,264.22,271.17z"/>
		</g>
		<g>
			<path class="st4" d="M265.75,283.55c-0.17,0.06-0.83-1.22-1.26-2.93c-0.43-1.71-0.44-3.15-0.26-3.17
				c0.19-0.02,0.49,1.35,0.91,3.01C265.55,282.13,265.92,283.48,265.75,283.55z"/>
		</g>
		<g>
			<path class="st4" d="M272.26,294.32c-0.14,0.12-1.2-0.86-2.25-2.29c-1.05-1.42-1.65-2.73-1.5-2.82c0.16-0.09,1.01,1.04,2.04,2.44
				C271.58,293.04,272.41,294.2,272.26,294.32z"/>
		</g>
		<g>
			<path class="st4" d="M281.73,302.79c-0.1,0.15-1.38-0.55-2.77-1.65c-1.39-1.1-2.36-2.17-2.23-2.3c0.13-0.13,1.28,0.71,2.65,1.79
				C280.75,301.72,281.84,302.64,281.73,302.79z"/>
		</g>
		<g>
			<path class="st4" d="M292.87,309.04c-0.07,0.17-1.42-0.34-3.02-1.13c-1.59-0.79-2.81-1.56-2.71-1.72
				c0.09-0.16,1.44,0.35,3.02,1.13C291.73,308.11,292.94,308.88,292.87,309.04z"/>
		</g>
		<g>
			<path class="st4" d="M305.1,312.85c-0.03,0.18-1.49,0.07-3.22-0.37c-1.73-0.43-3.06-1.02-3.01-1.19
				c0.06-0.17,1.46,0.13,3.17,0.55C303.75,312.27,305.13,312.67,305.1,312.85z"/>
		</g>
		<g>
			<path class="st4" d="M317.9,313.49c0.02,0.18-1.41,0.48-3.2,0.51c-1.79,0.04-3.23-0.21-3.22-0.38c0.01-0.18,1.45-0.24,3.21-0.27
				C316.44,313.32,317.88,313.31,317.9,313.49z"/>
		</g>
		<g>
			<path class="st4" d="M330.27,310.26c0.08,0.16-1.18,0.9-2.86,1.49c-1.69,0.6-3.14,0.8-3.18,0.63c-0.05-0.18,1.3-0.66,2.96-1.25
				C328.84,310.56,330.19,310.09,330.27,310.26z"/>
		</g>
		<g>
			<path class="st4" d="M340.99,303.39c0.12,0.13-0.85,1.2-2.28,2.26c-1.42,1.07-2.73,1.71-2.82,1.56c-0.1-0.15,1.02-1.03,2.42-2.08
				C339.71,304.09,340.87,303.26,340.99,303.39z"/>
		</g>
		<g>
			<path class="st4" d="M349.36,293.88c0.15,0.1-0.5,1.37-1.58,2.77c-1.07,1.4-2.15,2.37-2.28,2.26c-0.14-0.12,0.69-1.27,1.75-2.65
				C348.31,294.88,349.2,293.78,349.36,293.88z"/>
		</g>
		<g>
			<path class="st4" d="M354.93,282.58c0.17,0.05-0.12,1.45-0.79,3.08c-0.67,1.63-1.45,2.83-1.61,2.75c-0.17-0.08,0.33-1.4,0.99-3
				C354.17,283.81,354.75,282.52,354.93,282.58z"/>
		</g>
		<g>
			<path class="st4" d="M357.41,270.26c0.18,0.01,0.23,1.44-0.01,3.17c-0.24,1.73-0.68,3.09-0.86,3.06
				c-0.18-0.04-0.04-1.44,0.2-3.15C356.98,271.64,357.23,270.25,357.41,270.26z"/>
		</g>
		<g>
			<path class="st4" d="M357.08,257.71c0.18-0.02,0.44,1.37,0.58,3.11c0.14,1.74,0.1,3.16-0.09,3.16s-0.45-1.39-0.58-3.11
				C356.86,259.15,356.9,257.73,357.08,257.71z"/>
		</g>
		<g>
			<path class="st4" d="M354.29,245.44c0.18-0.06,0.7,1.27,1.16,2.95c0.47,1.69,0.7,3.08,0.52,3.12c-0.18,0.04-0.7-1.28-1.16-2.95
				C354.35,246.89,354.12,245.49,354.29,245.44z"/>
		</g>
		<g>
			<path class="st4" d="M349.37,233.82c0.16-0.08,0.94,1.12,1.71,2.69c0.72,1.6,1.17,2.95,1,3.02c-0.17,0.07-0.89-1.16-1.6-2.74
				C349.71,235.23,349.2,233.9,349.37,233.82z"/>
		</g>
		<g>
			<path class="st4" d="M343.05,222.87c0.16-0.09,1.02,1.05,1.92,2.55c0.9,1.5,1.5,2.79,1.34,2.88c-0.16,0.09-1.02-1.05-1.92-2.55
				C343.49,224.25,342.89,222.96,343.05,222.87z"/>
		</g>
		<g>
			<path class="st4" d="M336.67,211.95c0.16-0.08,0.99,1.08,1.85,2.59c0.86,1.52,1.42,2.82,1.26,2.91
				c-0.16,0.09-0.99-1.07-1.85-2.59C337.07,213.34,336.5,212.03,336.67,211.95z"/>
		</g>
		<g>
			<path class="st4" d="M331.65,200.39c0.18-0.05,0.82,1.22,1.43,2.83c0.62,1.62,0.98,2.98,0.81,3.06
				c-0.17,0.07-0.81-1.19-1.43-2.83C331.83,201.81,331.47,200.44,331.65,200.39z"/>
		</g>
		<g>
			<path class="st4" d="M329.46,188.03c0.19-0.01,0.38,1.39,0.57,3.1c0.18,1.71,0.29,3.12,0.11,3.15c-0.18,0.03-0.59-1.34-0.78-3.08
				C329.17,189.46,329.28,188.03,329.46,188.03z"/>
		</g>
		<g>
			<path class="st4" d="M330.52,175.52c0.18,0.04,0.02,1.44-0.23,3.14c-0.26,1.71-0.51,3.09-0.7,3.08
				c-0.18-0.01-0.23-1.44,0.03-3.17C329.88,176.84,330.34,175.48,330.52,175.52z"/>
		</g>
		<g>
			<path class="st4" d="M334.71,163.66c0.17,0.08-0.35,1.4-1.02,2.99c-0.68,1.59-1.28,2.87-1.45,2.81
				c-0.17-0.06,0.14-1.45,0.84-3.06C333.76,164.78,334.55,163.58,334.71,163.66z"/>
		</g>
		<g>
			<path class="st4" d="M341.88,153.25c0.14,0.12-0.71,1.26-1.79,2.62c-1.08,1.36-1.99,2.45-2.15,2.35
				c-0.15-0.1,0.52-1.36,1.62-2.75C340.66,154.09,341.74,153.13,341.88,153.25z"/>
		</g>
		<g>
			<path class="st4" d="M351.52,144.98c0.1,0.15-1.01,1.05-2.4,2.1c-1.4,1.05-2.56,1.88-2.69,1.74c-0.12-0.13,0.86-1.19,2.28-2.26
				C350.13,145.49,351.42,144.83,351.52,144.98z"/>
		</g>
		<g>
			<path class="st4" d="M362.96,139.29c0.06,0.17-1.24,0.77-2.86,1.46c-1.62,0.68-2.96,1.2-3.04,1.04
				c-0.08-0.16,1.13-0.94,2.78-1.64C361.48,139.45,362.9,139.12,362.96,139.29z"/>
		</g>
		<g>
			<path class="st4" d="M372.28,136.99c0.03,0.18-0.65,0.45-1.52,0.61c-0.87,0.16-1.6,0.14-1.64-0.04
				c-0.04-0.18,0.64-0.45,1.52-0.61C371.52,136.79,372.26,136.81,372.28,136.99z"/>
		</g>
	</g>
	<g>
		<path class="st6" d="M398.51,99.97c0,0,15.1-10.53,35.99-3.73c0,0,1.72,16.91-15.04,30.37"/>
		<path class="st6" d="M350.92,131.23c0.64,0.94,17.02,26.7,17.02,26.7l49.19-29.64c8.59-5.18,10.81-16.43,4.8-24.36l0,0
			c-5.48-7.23-15.79-8.97-23.43-3.96L350.92,131.23z"/>
		<path class="st4" d="M367.95,157.93l-1.1,18.12c0,0,31.88-15.1,23.92-31.87L367.95,157.93z"/>
		<path class="st4" d="M373.71,116.26c0,0-21.61-9.33-39.41,4.35l16.63,10.61L373.71,116.26z"/>
		<path class="st4" d="M373.56,131.24l-30.76,18.82c0,0,1.06,3.24,1.88,2.97c0.69-0.23,23.81-13.58,31.3-17.91
			c1.23-0.71,1.51-2.31,0.6-3.39l0,0C375.85,130.84,374.55,130.63,373.56,131.24z"/>
		<g>
			<ellipse class="st8" cx="401.89" cy="116.98" rx="9.85" ry="9.63"/>
			<g>
				<path class="st4" d="M411.74,116.98c-0.08,0-0.04-0.86-0.43-2.32c-0.39-1.43-1.39-3.54-3.6-5.15c-1.09-0.79-2.47-1.46-4.05-1.72
					c-1.57-0.25-3.34-0.2-5.02,0.43c-1.68,0.59-3.28,1.71-4.42,3.26c-1.17,1.53-1.83,3.48-1.85,5.5c0.02,2.02,0.68,3.98,1.85,5.5
					c1.14,1.55,2.74,2.67,4.42,3.26c1.68,0.63,3.45,0.69,5.02,0.43c1.58-0.26,2.95-0.93,4.05-1.72c2.21-1.62,3.2-3.72,3.6-5.15
					C411.71,117.83,411.66,116.97,411.74,116.98c0.02,0,0.03,0.21,0.04,0.62c0.01,0.41-0.04,1.01-0.22,1.76
					c-0.33,1.49-1.28,3.71-3.56,5.46c-1.13,0.85-2.57,1.58-4.23,1.89c-1.66,0.29-3.53,0.26-5.33-0.4c-1.8-0.62-3.51-1.8-4.74-3.45
					c-1.26-1.63-1.97-3.72-1.99-5.88c0.02-2.16,0.73-4.26,1.99-5.88c1.22-1.65,2.94-2.83,4.74-3.45c1.8-0.65,3.67-0.69,5.33-0.4
					c1.67,0.3,3.1,1.04,4.23,1.89c2.28,1.75,3.24,3.97,3.56,5.46c0.17,0.76,0.23,1.36,0.22,1.76
					C411.78,116.76,411.76,116.98,411.74,116.98z"/>
			</g>
		</g>
		<g>
			<path class="st4" d="M423.73,123.4c-0.13,0.01-0.28-1.87-1.03-4.8c-0.37-1.47-0.94-3.17-1.71-5.02c-0.8-1.83-1.81-3.79-3.08-5.73
				c-1.29-1.92-2.69-3.63-4.07-5.1c-1.4-1.44-2.76-2.66-3.97-3.59c-2.42-1.88-4.11-2.78-4.05-2.89c0.02-0.04,0.46,0.16,1.23,0.57
				c0.39,0.2,0.85,0.45,1.37,0.79c0.52,0.33,1.13,0.69,1.74,1.17c1.27,0.9,2.68,2.1,4.13,3.54c1.42,1.47,2.87,3.2,4.18,5.16
				c1.29,1.97,2.3,3.98,3.09,5.85c0.75,1.89,1.29,3.64,1.6,5.14c0.19,0.74,0.27,1.43,0.37,2.03c0.11,0.6,0.15,1.12,0.17,1.55
				C423.77,122.92,423.78,123.39,423.73,123.4z"/>
		</g>
		<g>
			<path class="st4" d="M421.08,124.78c-0.13,0.01-0.28-1.9-1.05-4.88c-0.37-1.49-0.96-3.23-1.74-5.11
				c-0.81-1.86-1.84-3.86-3.12-5.83c-1.3-1.96-2.73-3.71-4.12-5.21c-1.42-1.48-2.79-2.72-4.02-3.68c-2.45-1.92-4.16-2.86-4.1-2.97
				c0.02-0.04,0.46,0.17,1.24,0.59c0.39,0.2,0.87,0.47,1.39,0.82c0.52,0.34,1.14,0.71,1.76,1.2c1.28,0.92,2.71,2.15,4.18,3.63
				c1.44,1.5,2.91,3.27,4.23,5.26c1.3,2.01,2.33,4.05,3.13,5.96c0.76,1.92,1.31,3.7,1.63,5.23c0.2,0.75,0.28,1.46,0.38,2.06
				c0.11,0.61,0.16,1.14,0.18,1.57C421.11,124.3,421.13,124.78,421.08,124.78z"/>
		</g>
	</g>
	<g>
		<g>
			<g>
				<g>
					<path class="st6" d="M120.21,524.39c-1.1-4.27,1.78-8.54,5.01-11.62c3.22-3.08,7.08-5.83,8.77-9.92
						c2.74-6.62-0.84-15.23,3.8-20.73c2.73-3.24,7.61-4.3,10.03-7.77c1.27-1.82,1.7-4.06,2.2-6.2c2.6-10.95,8.26-21.18,16.22-29.29
						c0.49,9.76-1.77,19.65-6.46,28.28c-1.89,3.47-4.2,6.85-4.84,10.73c-1.04,6.3,2.52,12.82,0.9,19
						c-1.85,7.07-10.01,11.76-10.44,19.05c-0.36,6.16,5.1,11.6,4.65,17.75c-0.19,2.62-1.45,5.05-2.85,7.29
						c-4.92,7.89-12.11,13.31-22.95,13.07l-13.29,0.38L120.21,524.39z"/>
				</g>
			</g>
		</g>
		<g class="st7">
			<g>
				<g>
					<g>
						<path d="M120.21,524.39c-1.1-4.27,1.78-8.54,5.01-11.62c3.22-3.08,7.08-5.83,8.77-9.92c2.74-6.62-0.84-15.23,3.8-20.73
							c2.73-3.24,7.61-4.3,10.03-7.77c1.27-1.82,1.7-4.06,2.2-6.2c2.6-10.95,8.26-21.18,16.22-29.29
							c0.49,9.76-1.77,19.65-6.46,28.28c-1.89,3.47-4.2,6.85-4.84,10.73c-1.04,6.3,2.52,12.82,0.9,19
							c-1.85,7.07-10.01,11.76-10.44,19.05c-0.36,6.16,5.1,11.6,4.65,17.75c-0.19,2.62-1.45,5.05-2.85,7.29
							c-4.92,7.89-12.11,13.31-22.95,13.07l-13.29,0.38L120.21,524.39z"/>
					</g>
				</g>
			</g>
		</g>
		<g>
			<g>
				<g>
					<g>
						<g>
							<g>
								<path class="st4" d="M108.28,554.74c0,0-1.27,0.28-3.66-0.1c-1.19-0.18-2.65-0.49-4.31-1.09c-1.65-0.6-3.52-1.45-5.32-2.89
									c-0.86-0.74-1.72-1.66-2.18-2.87c-0.45-1.21-0.53-2.53-0.6-3.89c-0.06-1.36-0.06-2.77-0.29-4.21
									c-0.22-1.43-0.78-2.84-1.6-4.19c-1.55-2.7-4.14-5.26-4.96-8.92c-0.89-3.6-0.21-7.49,0.43-11.39
									c0.64-3.89,1.26-8.14-0.24-12.21c-1.4-4.07-4.29-7.76-5.72-12.35c-1.42-4.64-0.72-9.61-1-14.52
									c-0.13-2.47-0.6-4.93-1.69-7.22c-1.06-2.31-2.54-4.48-3.69-6.91c-2.33-4.91-2.71-10.46-3.33-15.9
									c-0.3-2.74-0.6-5.51-0.9-8.31c-0.3-2.81-0.54-5.61-1.43-8.32c-0.8-2.73-1.97-5.37-3.13-8.06c-0.57-1.35-1.17-2.71-1.52-4.21
									c-0.25-1.53-0.32-2.97-0.4-4.47c-0.13-2.98,0.01-6,0.41-8.99c0.38-3,0.95-5.97,1.3-8.97c0.02-0.18,0.04-0.35,0.06-0.52
									l0.07-0.6l0.54,0.27c2.84,1.41,5.26,3.5,7.12,5.94c1.89,2.43,3.26,5.16,4.35,7.94c2.19,5.6,2.95,11.45,4.04,17.04
									c1.06,5.59,2.47,11.09,5.37,15.75c1.44,2.32,3.19,4.44,4.72,6.71c1.52,2.25,2.86,4.72,3.25,7.42
									c0.75,5.5-2.37,10.31-1.75,15.18c0.22,2.42,1.19,4.69,2.38,6.76c1.19,2.08,2.6,4.02,3.94,5.96c1.33,1.94,2.6,3.91,3.53,6.01
									c0.95,2.1,1.46,4.34,1.59,6.52c0.3,4.38-0.36,8.54-0.06,12.46c0.25,3.93,1.64,7.5,3.22,10.7c1.59,3.21,3.36,6.11,4.84,8.92
									c0.75,1.4,1.43,2.78,1.99,4.15c0.59,1.37,0.88,2.78,1.14,4.11c0.42,2.7,0.36,5.21,0.06,7.42c-0.6,4.45-2.32,7.64-3.86,9.44
									c-0.35,0.48-0.76,0.82-1.08,1.13c-0.31,0.33-0.62,0.55-0.88,0.72C108.55,554.58,108.28,554.74,108.28,554.74
									c-0.06-0.07,1.1-0.66,2.59-2.47c1.47-1.8,3.11-4.98,3.66-9.37c0.28-2.19,0.31-4.66-0.13-7.31
									c-0.27-1.31-0.56-2.69-1.15-4.02c-0.56-1.34-1.25-2.71-2-4.1c-1.49-2.79-3.28-5.68-4.91-8.9
									c-1.61-3.21-3.06-6.85-3.33-10.89c-0.33-4.01,0.32-8.18,0-12.46c-0.14-2.14-0.64-4.28-1.56-6.3
									c-0.91-2.04-2.16-3.97-3.49-5.89c-1.33-1.93-2.76-3.87-3.98-6c-1.23-2.11-2.26-4.47-2.49-7.03
									c-0.61-5.19,2.49-10.03,1.72-15.14c-0.37-2.53-1.64-4.89-3.14-7.1c-1.5-2.22-3.26-4.35-4.75-6.73
									c-2.99-4.79-4.42-10.4-5.49-16.01c-1.1-5.62-1.86-11.42-4.01-16.9c-1.07-2.72-2.41-5.39-4.23-7.74
									c-1.8-2.36-4.11-4.35-6.82-5.7l0.61-0.33c-0.02,0.16-0.04,0.34-0.06,0.52c-0.35,3.04-0.92,6.01-1.3,8.98
									c-0.39,2.96-0.53,5.92-0.4,8.86c0.08,1.45,0.16,2.97,0.38,4.34c0.32,1.37,0.9,2.72,1.47,4.06c1.15,2.68,2.34,5.36,3.16,8.15
									c0.91,2.77,1.15,5.68,1.45,8.46c0.3,2.8,0.6,5.57,0.89,8.31c0.6,5.46,0.99,10.92,3.23,15.66c1.11,2.36,2.58,4.54,3.68,6.92
									c1.13,2.38,1.62,4.98,1.74,7.49c0.26,5.02-0.44,9.91,0.93,14.36c1.35,4.43,4.23,8.13,5.67,12.33
									c1.54,4.25,0.87,8.63,0.21,12.51c-0.66,3.91-1.33,7.71-0.49,11.17c0.75,3.49,3.26,6.03,4.84,8.81
									c0.82,1.38,1.41,2.87,1.62,4.35c0.22,1.48,0.2,2.91,0.25,4.26c0.06,1.34,0.13,2.65,0.54,3.78c0.41,1.12,1.22,2.02,2.04,2.75
									c1.73,1.41,3.57,2.28,5.19,2.9c1.63,0.61,3.08,0.95,4.25,1.15c1.18,0.22,2.09,0.25,2.7,0.27
									C107.96,554.73,108.28,554.74,108.28,554.74z"/>
							</g>
						</g>
					</g>
				</g>
				<g>
					<g>
						<g>
							<g>
								<path class="st4" d="M67.19,401.43c0.01,0,0.06,0.13,0.13,0.39c0.08,0.31,0.17,0.7,0.29,1.17c0.25,1.02,0.56,2.57,1.05,4.5
									c0.51,1.93,1.7,4.11,2.72,6.8c1.06,2.67,2.12,5.76,3.1,9.23c0.99,3.47,1.87,7.32,2.78,11.45c0.94,4.12,1.89,8.54,4.18,12.71
									c1.08,2.12,2.29,4.26,3.25,6.6c0.98,2.34,1.51,4.9,1.87,7.47c0.61,5.15,1.54,10.38,2.77,15.74
									c2.6,10.66,5.08,20.82,7.34,30.07c2.31,9.22,4.4,17.52,6.15,24.52c1.71,6.94,3.1,12.57,4.08,16.55
									c0.45,1.91,0.81,3.41,1.07,4.51c0.1,0.48,0.19,0.86,0.26,1.18c0.05,0.27,0.07,0.4,0.06,0.41c-0.01,0-0.06-0.13-0.14-0.39
									c-0.09-0.31-0.2-0.69-0.34-1.16c-0.3-1.09-0.71-2.58-1.22-4.47c-1.04-3.96-2.52-9.58-4.34-16.49
									c-1.81-6.99-3.95-15.28-6.33-24.48c-2.28-9.25-4.78-19.41-7.41-30.08c-1.23-5.35-2.17-10.68-2.77-15.8
									c-0.35-2.55-0.85-5.01-1.8-7.29c-0.93-2.28-2.12-4.41-3.2-6.55c-2.31-4.25-3.26-8.81-4.17-12.91
									c-0.89-4.14-1.72-7.98-2.67-11.44c-0.94-3.47-1.96-6.55-2.97-9.22c-0.96-2.68-2.12-4.89-2.59-6.88
									c-0.45-1.98-0.69-3.51-0.9-4.55c-0.08-0.48-0.15-0.87-0.2-1.19C67.19,401.57,67.18,401.43,67.19,401.43z"/>
							</g>
						</g>
					</g>
				</g>
			</g>
			<g>
				<g>
					<g>
						<g>
							<path class="st6" d="M105.93,554.77c-8.65-5.09-11.05-20.42-7.38-29.62c3.67-9.2,10.06-17.58,11.09-27.4
								c0.79-7.55-1.69-15.32,0.15-22.69c2.49-9.95,12.48-17.61,12.42-27.86c-0.03-5.75-3.34-11.17-3.04-16.91
								c0.37-7.04,5.93-12.6,9.39-18.78c5.29-9.47,5.7-20.69,7.56-31.33c1.85-10.64,6.07-22.02,15.75-27.2
								c1.37,9.05,3.77,15.25,2.93,27.49c-0.3,4.4-5.57,12.79-6.34,22.42c-0.46,5.76-0.79,11.53-1.18,17.29
								c-0.38,5.61-0.79,11.32-2.87,16.56c-1.6,4.01-4.15,7.65-5.35,11.8c-2.25,7.8,0.6,16.28-1.23,24.18
								c-1.54,6.7-6.32,12.44-7.33,19.24c-1.42,9.55,4.85,19.51,1.56,28.6c-1.63,4.51-5.46,8.12-6.56,12.79
								c-0.86,3.62,0.03,7.46-0.75,11.09c-1.26,5.86-12.72,10.35-18.82,9.95"/>
						</g>
					</g>
				</g>
				<g>
					<g>
						<g>
							<g>
								<path class="st4" d="M149.43,361.94c0.01,0,0,0.18-0.04,0.51c-0.05,0.38-0.12,0.87-0.2,1.48c-0.21,1.3-0.44,3.22-0.91,5.7
									c-0.5,2.49-1.83,5.29-2.9,8.67c-1.13,3.37-2.25,7.25-3.25,11.6c-1.02,4.35-1.87,9.16-2.77,14.35
									c-0.93,5.14-1.88,10.83-4.54,16.21c-1.23,2.71-2.61,5.41-3.66,8.3c-1.07,2.88-1.57,5.97-1.88,9.16
									c-0.49,6.4-1.4,13.05-2.66,19.76c-2.74,13.38-5.34,26.12-7.71,37.72c-2.5,11.55-4.74,21.96-6.64,30.72
									c-1.91,8.7-3.46,15.75-4.55,20.7c-0.55,2.4-0.97,4.28-1.28,5.62c-0.15,0.6-0.26,1.08-0.35,1.46
									c-0.08,0.33-0.13,0.49-0.15,0.49c-0.01,0,0.01-0.17,0.06-0.51c0.07-0.38,0.16-0.86,0.27-1.47c0.27-1.35,0.64-3.24,1.12-5.65
									c1.02-4.96,2.48-12.03,4.28-20.75c1.84-8.77,4.03-19.19,6.46-30.76c2.35-11.6,4.93-24.33,7.64-37.71
									c1.26-6.71,2.17-13.27,2.67-19.69c0.32-3.2,0.84-6.4,1.95-9.34c1.07-2.95,2.47-5.67,3.71-8.35
									c2.65-5.31,3.6-10.86,4.56-16.02c0.93-5.17,1.82-10,2.88-14.36c1.04-4.36,2.21-8.25,3.39-11.62
									c1.12-3.39,2.49-6.16,3.03-8.59c0.51-2.43,0.8-4.37,1.06-5.65c0.12-0.61,0.21-1.09,0.29-1.47
									C149.37,362.11,149.41,361.94,149.43,361.94z"/>
							</g>
						</g>
					</g>
				</g>
			</g>
		</g>
	</g>
	<g>
		<g>
			<rect x="532.29" y="356.95" class="st6" width="8.96" height="28.3"/>
		</g>
		<g>
			<rect x="548.78" y="345.3" class="st6" width="8.96" height="39.95"/>
		</g>
		<g>
			<rect x="566.33" y="339.86" class="st6" width="8.96" height="45.39"/>
		</g>
		<g>
			<rect x="583.88" y="334.12" class="st6" width="8.96" height="51.13"/>
		</g>
	</g>
	<g>
		<g>
			<g>
				<g>
					<g>
						<path class="st4" d="M230.33,393.67c0,0,0.73,0.05,1.93,0.59c1.17,0.53,2.82,1.69,3.84,3.8c0.5,1.04,0.84,2.3,0.78,3.67
							c-0.06,1.35-0.43,2.82-1.29,4.11c-0.41,0.65-0.94,1.26-1.57,1.78c-0.61,0.53-1.33,0.98-2.12,1.31
							c-1.56,0.69-3.41,0.87-5.19,0.5c-1.77-0.4-3.36-1.34-4.47-2.62c-0.57-0.63-1.02-1.33-1.34-2.07c-0.33-0.73-0.55-1.5-0.64-2.27
							c-0.22-1.53,0.09-3.01,0.63-4.26c0.55-1.26,1.41-2.25,2.31-2.99c1.84-1.48,3.84-1.84,5.13-1.83
							C229.64,393.41,230.33,393.67,230.33,393.67c-0.01,0.06-0.71-0.14-1.99-0.09c-1.26,0.05-3.18,0.45-4.92,1.9
							c-0.85,0.72-1.66,1.69-2.17,2.89c-0.5,1.2-0.78,2.61-0.56,4.06c0.09,0.72,0.3,1.45,0.62,2.14c0.31,0.7,0.74,1.37,1.28,1.96
							c1.05,1.21,2.56,2.09,4.23,2.47c1.68,0.35,3.42,0.19,4.9-0.46c0.75-0.31,1.42-0.73,2.01-1.23c0.59-0.49,1.1-1.06,1.5-1.68
							c0.83-1.22,1.19-2.61,1.27-3.9c0.07-1.3-0.24-2.51-0.7-3.52c-0.94-2.04-2.5-3.21-3.62-3.77
							C231.03,393.84,230.31,393.72,230.33,393.67z"/>
					</g>
				</g>
			</g>
		</g>
		<g>
			<g>
				<g>
					<g>
						<path class="st4" d="M236.86,385.15c-0.01,0-0.01-0.09-0.02-0.28c0-0.21-0.01-0.49-0.02-0.85c-0.01-0.78-0.03-1.9-0.05-3.36
							l0.06,0.07c-1.9-0.41-4.4-0.94-7.42-1.58l0.13-0.06c-0.59,1.23-1.25,2.6-1.95,4.06l-0.04,0.07l-0.08,0
							c-1.54,0.06-3.18,0.32-4.84,0.84l-0.09,0.03l-0.07-0.06c-1.02-0.98-2.12-2.05-3.26-3.16l0.21,0.02
							c-2.02,1.26-4.16,2.59-6.4,3.99l0.07-0.21c0.48,1.31,1.01,2.75,1.55,4.23l0.04,0.11l-0.08,0.08
							c-1.03,1.09-2.03,2.43-2.81,3.92l-0.06,0.11l-0.12,0c-1.42,0-2.99,0.01-4.59,0.02l0.2-0.16c-0.52,2.28-1.08,4.73-1.65,7.25
							l-0.12-0.24c1.29,0.6,2.71,1.25,4.14,1.92l0.12,0.06l0.01,0.13c0.06,1.5,0.33,3.13,0.84,4.71l0.04,0.13l-0.1,0.1
							c-1.01,1-2.12,2.08-3.24,3.18l0.03-0.28c1.29,1.99,2.67,4.11,4.07,6.27l-0.27-0.09c1.37-0.48,2.84-0.99,4.32-1.51l0.13-0.05
							l0.1,0.09c1.14,1.03,2.5,1.99,3.99,2.75l0,0l0,0c0.06,0.09-0.12-0.2,0.13,0.2v0v0.01l0,0.02v0.04l0,0.07l0,0.14l0,0.28l0,0.56
							l0,1.12c0,0.75,0,1.49,0,2.24l-0.18-0.22c2.5,0.55,4.97,1.09,7.41,1.63l-0.26,0.12c0.66-1.36,1.32-2.71,1.97-4.05l0.06-0.12
							l0.14-0.01c1.65-0.06,3.28-0.34,4.82-0.82l0.13-0.04l0.1,0.09c1.1,1.07,2.18,2.13,3.25,3.17l-0.28-0.03
							c2.19-1.35,4.33-2.68,6.42-3.97l-0.09,0.25c-0.52-1.44-1.03-2.84-1.53-4.23l-0.04-0.12l0.09-0.09
							c1.14-1.2,2.08-2.52,2.82-3.91l0.06-0.11l0.12,0c1.57,0,3.1,0,4.59,0l-0.19,0.15c0.59-2.55,1.15-4.95,1.68-7.24l0.1,0.2
							c-1.46-0.68-2.82-1.32-4.14-1.93l-0.09-0.04l0-0.1c-0.07-1.71-0.37-3.29-0.83-4.73l-0.03-0.09l0.07-0.06
							c1.18-1.15,2.24-2.19,3.25-3.17l-0.02,0.17c-1.56-2.44-2.89-4.51-4.03-6.29l0.12,0.04c-1.73,0.59-3.15,1.07-4.33,1.48
							l-0.04,0.01l-0.03-0.03c-1.22-1.11-2.25-1.79-2.95-2.22c-0.34-0.2-0.6-0.35-0.79-0.46
							C236.94,385.2,236.85,385.15,236.86,385.15c0.01,0,0.1,0.04,0.28,0.12c0.18,0.09,0.45,0.23,0.81,0.43
							c0.71,0.41,1.76,1.07,3.01,2.18l-0.08-0.02c1.18-0.42,2.59-0.92,4.31-1.53l0.08-0.03l0.05,0.07c1.16,1.77,2.51,3.83,4.09,6.25
							l0.06,0.09l-0.08,0.08c-1,0.99-2.05,2.03-3.23,3.19l0.04-0.15c0.48,1.46,0.8,3.06,0.87,4.81l-0.1-0.14
							c1.32,0.61,2.69,1.24,4.15,1.91l0.13,0.06l-0.03,0.14c-0.52,2.29-1.07,4.7-1.65,7.25l-0.03,0.15l-0.16,0
							c-1.49,0.01-3.01,0.01-4.59,0.02l0.18-0.11c-0.75,1.42-1.72,2.78-2.88,4l0.04-0.21c0.51,1.38,1.02,2.79,1.54,4.23l0.06,0.16
							l-0.15,0.09c-2.08,1.29-4.22,2.62-6.41,3.98l-0.15,0.09l-0.13-0.12c-1.07-1.04-2.15-2.09-3.25-3.16l0.23,0.05
							c-1.58,0.49-3.24,0.78-4.94,0.84l0.2-0.13c-0.65,1.34-1.3,2.69-1.97,4.05l-0.08,0.16l-0.18-0.04
							c-2.43-0.53-4.9-1.07-7.41-1.62l-0.18-0.04l0-0.18c0-0.74,0-1.49-0.01-2.24l0-1.13l0-0.56l0-0.28l0-0.14l0-0.07l0-0.04v-0.02
							v-0.01v0c0.25,0.4,0.07,0.11,0.12,0.2l0,0l0,0c-1.53-0.78-2.93-1.76-4.09-2.82l0.24,0.05c-1.48,0.52-2.96,1.03-4.32,1.5
							l-0.17,0.06l-0.1-0.15c-1.4-2.16-2.77-4.29-4.06-6.27l-0.1-0.15l0.13-0.13c1.12-1.1,2.23-2.18,3.24-3.18l-0.06,0.22
							c-0.52-1.62-0.8-3.29-0.86-4.83l0.13,0.19c-1.43-0.67-2.85-1.33-4.14-1.93l-0.16-0.07l0.04-0.17
							c0.58-2.51,1.15-4.97,1.67-7.24l0.04-0.16l0.17,0c1.6,0,3.16,0,4.59,0l-0.18,0.11c0.81-1.52,1.83-2.88,2.89-3.99l-0.04,0.19
							c-0.53-1.48-1.06-2.92-1.53-4.23l-0.05-0.14l0.12-0.08c2.25-1.39,4.4-2.71,6.42-3.96l0.11-0.07l0.09,0.09
							c1.14,1.11,2.23,2.19,3.24,3.18l-0.15-0.04c1.69-0.51,3.35-0.77,4.92-0.82l-0.12,0.08c0.71-1.46,1.38-2.82,1.98-4.04
							l0.04-0.08l0.09,0.02c3.01,0.68,5.5,1.24,7.4,1.67l0.06,0.01l0,0.06c-0.01,1.44-0.02,2.56-0.03,3.33
							c-0.01,0.37-0.01,0.65-0.02,0.86C236.87,385.04,236.86,385.14,236.86,385.15z"/>
					</g>
				</g>
			</g>
		</g>
	</g>
	<g>
		<g>
			<g>
				<g>
					<path class="st9" d="M222.87,328.76c1.64,0.84,3.14,1.88,4.47,3.08l4.78-1.66l4.49,6.93l-3.58,3.52
						c0.54,1.69,0.87,3.46,0.94,5.27l4.58,2.13l-1.84,8.01l-5.07,0.01c-0.86,1.61-1.92,3.07-3.15,4.37l1.7,4.67l-7.09,4.39l-3.6-3.5
						c-1.73,0.53-3.54,0.85-5.39,0.92l-2.17,4.48l-8.19-1.8l-0.01-4.96c-1.64-0.84-3.14-1.88-4.47-3.08l-4.78,1.66l-4.49-6.93
						l3.58-3.52c-0.54-1.69-0.87-3.46-0.94-5.27l-4.58-2.13l1.84-8.01l5.07-0.01c0.86-1.61,1.92-3.08,3.15-4.38l-1.7-4.67l7.09-4.39
						l3.6,3.5c1.73-0.53,3.54-0.85,5.39-0.92l2.17-4.48l8.19,1.8L222.87,328.76L222.87,328.76z M215.65,338.18
						c-4.85-1.06-9.67,1.92-10.76,6.66c-1.09,4.75,1.96,9.45,6.81,10.52c4.85,1.06,9.67-1.92,10.76-6.66
						C223.55,343.95,220.5,339.24,215.65,338.18z"/>
				</g>
			</g>
		</g>
		<g class="st2">
			<g>
				<g>
					<path class="st10" d="M222.87,328.76c1.64,0.84,3.14,1.88,4.47,3.08l4.78-1.66l4.49,6.93l-3.58,3.52
						c0.54,1.69,0.87,3.46,0.94,5.27l4.58,2.13l-1.84,8.01l-5.07,0.01c-0.86,1.61-1.92,3.07-3.15,4.37l1.7,4.67l-7.09,4.39l-3.6-3.5
						c-1.73,0.53-3.54,0.85-5.39,0.92l-2.17,4.48l-8.19-1.8l-0.01-4.96c-1.64-0.84-3.14-1.88-4.47-3.08l-4.78,1.66l-4.49-6.93
						l3.58-3.52c-0.54-1.69-0.87-3.46-0.94-5.27l-4.58-2.13l1.84-8.01l5.07-0.01c0.86-1.61,1.92-3.08,3.15-4.38l-1.7-4.67l7.09-4.39
						l3.6,3.5c1.73-0.53,3.54-0.85,5.39-0.92l2.17-4.48l8.19,1.8L222.87,328.76L222.87,328.76z M215.65,338.18
						c-4.85-1.06-9.67,1.92-10.76,6.66c-1.09,4.75,1.96,9.45,6.81,10.52c4.85,1.06,9.67-1.92,10.76-6.66
						C223.55,343.95,220.5,339.24,215.65,338.18z"/>
				</g>
			</g>
		</g>
	</g>
	<g>
		<g>
			<g>
				<g>
					<path class="st9" d="M193.26,375.94c0.96,0.49,1.83,1.09,2.6,1.79l2.78-0.97l2.61,4.04l-2.08,2.05
						c0.32,0.98,0.5,2.01,0.55,3.07l2.67,1.24l-1.07,4.66l-2.95,0.01c-0.5,0.94-1.12,1.79-1.83,2.55l0.99,2.72l-4.13,2.56
						l-2.09-2.04c-1.01,0.31-2.06,0.49-3.14,0.53l-1.27,2.61l-4.77-1.05l-0.01-2.89c-0.96-0.49-1.83-1.09-2.6-1.79l-2.78,0.97
						l-2.61-4.04l2.08-2.05c-0.32-0.98-0.5-2.01-0.55-3.07L173,385.6l1.07-4.66l2.95-0.01c0.5-0.94,1.12-1.79,1.83-2.55l-0.99-2.72
						l4.13-2.56l2.09,2.04c1.01-0.31,2.06-0.49,3.14-0.53l1.27-2.61l4.77,1.05L193.26,375.94L193.26,375.94z M189.06,381.42
						c-2.82-0.62-5.63,1.12-6.26,3.88c-0.63,2.76,1.14,5.5,3.97,6.12c2.82,0.62,5.63-1.12,6.26-3.88
						C193.66,384.78,191.88,382.04,189.06,381.42z"/>
				</g>
			</g>
		</g>
		<g class="st11">
			<g>
				<g>
					<path class="st10" d="M193.26,375.94c0.96,0.49,1.83,1.09,2.6,1.79l2.78-0.97l2.61,4.04l-2.08,2.05
						c0.32,0.98,0.5,2.01,0.55,3.07l2.67,1.24l-1.07,4.66l-2.95,0.01c-0.5,0.94-1.12,1.79-1.83,2.55l0.99,2.72l-4.13,2.56
						l-2.09-2.04c-1.01,0.31-2.06,0.49-3.14,0.53l-1.27,2.61l-4.77-1.05l-0.01-2.89c-0.96-0.49-1.83-1.09-2.6-1.79l-2.78,0.97
						l-2.61-4.04l2.08-2.05c-0.32-0.98-0.5-2.01-0.55-3.07L173,385.6l1.07-4.66l2.95-0.01c0.5-0.94,1.12-1.79,1.83-2.55l-0.99-2.72
						l4.13-2.56l2.09,2.04c1.01-0.31,2.06-0.49,3.14-0.53l1.27-2.61l4.77,1.05L193.26,375.94L193.26,375.94z M189.06,381.42
						c-2.82-0.62-5.63,1.12-6.26,3.88c-0.63,2.76,1.14,5.5,3.97,6.12c2.82,0.62,5.63-1.12,6.26-3.88
						C193.66,384.78,191.88,382.04,189.06,381.42z"/>
				</g>
			</g>
		</g>
	</g>
	<g>
		<g>
			<g>
				<path class="st4" d="M477.11,329.68c5.41-1.37,9.43-6.79,9.08-12.25c-0.16-2.46-1.09-4.85-0.99-7.32
					c0.17-3.82,2.76-7.05,4.71-10.37c1.95-3.32,3.26-7.69,0.99-10.8c-1.48-2.02-4.08-2.93-5.87-4.69c-1.75-1.72-2.58-4.11-3.52-6.36
					c-0.94-2.25-2.15-4.57-4.31-5.77c-2.16-1.2-5.47-0.67-6.34,1.6"/>
				<path class="st4" d="M453.76,267.67c3.85-2.39,4.78-7.94,2.69-11.9c-2.09-3.97-6.51-6.37-11.02-7.09
					c-6.52-1.03-13.48,1.23-18.08,5.86c-2.49,2.5-4.5,5.77-7.87,6.91c-2.96,1.01-6.24,0.1-9.35,0.49c-4.17,0.53-7.74,3.43-9.88,6.97
					c-2.14,3.54-3.02,7.67-3.51,11.75c-0.45,3.75-0.75,7.86-3.41,10.59c-2.59,2.67-6.69,3.23-9.91,5.13
					c-6.06,3.57-8.03,12.41-4.03,18.12c1.28,1.82,3.11,3.49,3.26,5.69c0.14,2.01-1.19,3.8-1.82,5.72
					c-1.6,4.95,2.54,10.82,7.83,11.12c2.67,0.15,5.54-0.87,7.93,0.3c2.38,1.16,3.27,3.97,4.79,6.1c2.99,4.2,9.26,5.78,13.96,3.53
					c1.97-0.94,3.82-2.5,6.01-2.36c2.18,0.14,3.9,1.96,6.04,2.37c2.81,0.53,5.48-1.49,7.15-3.76c1.67-2.27,2.83-4.95,4.97-6.81
					c2.8-2.44,6.73-3.04,10.27-4.23c7.82-2.63,14.35-8.7,17.44-16.2c3.09-7.5,2.69-16.3-1.08-23.5"/>
				<g>
					<g>
						<g>
							<g>
								<g>
									<g>
										<g>
											<g>
												<g>
													<g>
														<g>
															<g>
																<g>
																	<path class="st12" d="M462.22,272.62c3.18,0.34,5.56,2.99,5.49,6.12l0,0l-3.67,81.29
																		c-0.15,9.6-14.5,15-25.01,14.76l0,0c-10.61-0.24-10.96-5.33-11.09-14.47c-0.22-15.26-0.2-20.99-0.21-20.9
																		c0,0-13.41-2.21-16.15-19.33c-1.36-8.51-0.89-22.47-0.13-33.87c0.68-10.27,7.67-22.85,18.13-21.74L462.22,272.62z"
																		/>
																</g>
															</g>
														</g>
													</g>
												</g>
											</g>
											<g>
												<g>
													<g>
														<g>
															<g>
																<g>
																	<g>
																		<path class="st4" d="M415.3,297.29c-0.04,1.16,0.92,2.15,2.16,2.22c1.23,0.07,2.27-0.81,2.32-1.97
																			c0.04-1.16-0.92-2.15-2.16-2.22C416.39,295.25,415.35,296.14,415.3,297.29z"/>
																	</g>
																</g>
															</g>
														</g>
													</g>
												</g>
												<g>
													<g>
														<g>
															<g>
																<g>
																	<g>
																		<g>
																			<path class="st4" d="M414.53,293.48c0.28,0.29,1.98-0.94,4.4-0.93c2.41-0.02,4.18,1.2,4.44,0.91
																				c0.13-0.13-0.15-0.64-0.92-1.2c-0.76-0.55-2.05-1.08-3.56-1.08c-1.5,0-2.77,0.54-3.5,1.1
																				C414.65,292.83,414.39,293.35,414.53,293.48z"/>
																		</g>
																	</g>
																</g>
															</g>
														</g>
													</g>
												</g>
											</g>
											<g>
												<g>
													<g>
														<g>
															<g>
																<g>
																	<g>
																		<path class="st4" d="M439.37,297.29c-0.04,1.16,0.92,2.15,2.16,2.22c1.23,0.07,2.27-0.81,2.32-1.97
																			c0.04-1.16-0.92-2.15-2.16-2.22C440.46,295.25,439.42,296.14,439.37,297.29z"/>
																	</g>
																</g>
															</g>
														</g>
													</g>
												</g>
												<g>
													<g>
														<g>
															<g>
																<g>
																	<g>
																		<g>
																			<path class="st4" d="M438.27,293.97c0.28,0.29,1.98-0.94,4.4-0.93c2.41-0.02,4.18,1.2,4.44,0.91
																				c0.13-0.13-0.15-0.64-0.92-1.2c-0.76-0.55-2.05-1.08-3.56-1.08c-1.5,0.01-2.77,0.54-3.5,1.1
																				C438.38,293.33,438.13,293.84,438.27,293.97z"/>
																		</g>
																	</g>
																</g>
															</g>
														</g>
													</g>
												</g>
											</g>
											<g>
												<g>
													<g>
														<g>
															<g>
																<g>
																	<g>
																		<path class="st4" d="M429.46,311.47c0.01-0.13-1.49-0.39-3.92-0.7c-0.62-0.06-1.2-0.18-1.3-0.6
																			c-0.14-0.44,0.12-1.09,0.42-1.79c0.58-1.46,1.19-2.99,1.83-4.59c2.55-6.53,4.39-11.91,4.12-12
																			c-0.27-0.1-2.55,5.12-5.1,11.65c-0.61,1.61-1.2,3.15-1.76,4.62c-0.23,0.68-0.64,1.46-0.33,2.37
																			c0.17,0.45,0.62,0.78,1.01,0.88c0.39,0.12,0.74,0.13,1.05,0.14C427.93,311.59,429.45,311.6,429.46,311.47z"/>
																	</g>
																</g>
															</g>
														</g>
													</g>
												</g>
											</g>
											<g>
												<g>
													<g>
														<g>
															<g>
																<g>
																	<path class="st13" d="M427.73,339.42c0,0,11.77,0.77,23.45-6.06c0,0-5.94,12.07-23.45,10.43V339.42z"/>
																</g>
															</g>
														</g>
													</g>
												</g>
											</g>
											<g>
												<g>
													<g>
														<g>
															<g>
																<g>
																	<path class="st6" d="M430.47,317.16c0.87-1.12,2.39-1.73,3.9-1.57c1.05,0.11,2.11,0.61,2.74,1.45
																		c0.63,0.84,0.77,2.02,0.19,2.82c-0.65,0.89-2.02,1.1-3.17,0.78c-1.15-0.32-2.14-1.07-3.08-1.81
																		c-0.26-0.21-0.53-0.42-0.69-0.7c-0.16-0.28-0.2-0.65,0.01-0.88"/>
																</g>
															</g>
														</g>
													</g>
												</g>
											</g>
											<g>
												<g>
													<g>
														<g>
															<g>
																<g>
																	<g>
																		<path class="st4" d="M436.57,313.12c-0.39-0.02-0.4,2.54-2.65,4.36c-2.24,1.82-5.04,1.53-5.06,1.89
																			c-0.04,0.16,0.62,0.5,1.8,0.53c1.16,0.04,2.85-0.32,4.22-1.43c1.37-1.11,1.96-2.6,2.05-3.65
																			C437.04,313.74,436.74,313.1,436.57,313.12z"/>
																	</g>
																</g>
															</g>
														</g>
													</g>
												</g>
											</g>
										</g>
									</g>
								</g>
								<g>
									<g>
										<g>
											<g>
												<g>
													<g>
														<path class="st4" d="M437.19,289.83c0.24,0.64,2.65,0.34,5.48,0.68c2.84,0.28,5.12,1.1,5.5,0.53
															c0.17-0.28-0.23-0.88-1.15-1.5c-0.91-0.62-2.37-1.22-4.07-1.4c-1.7-0.19-3.26,0.08-4.29,0.48
															C437.61,289.03,437.09,289.53,437.19,289.83z"/>
													</g>
												</g>
											</g>
										</g>
									</g>
								</g>
								<g>
									<g>
										<g>
											<g>
												<g>
													<g>
														<path class="st4" d="M415.43,286.65c0.42,0.54,2.09-0.02,4.09-0.04c2-0.09,3.69,0.37,4.08-0.19
															c0.17-0.27-0.09-0.81-0.83-1.32c-0.73-0.51-1.95-0.92-3.32-0.89c-1.37,0.04-2.57,0.52-3.26,1.07
															C415.48,285.83,415.25,286.38,415.43,286.65z"/>
													</g>
												</g>
											</g>
										</g>
									</g>
								</g>
							</g>
						</g>
					</g>
				</g>
				<path class="st4" d="M450.73,267.05c4.01-2.64,9.2-3.85,13.87-2.54c4.67,1.31,8.54,5.43,8.69,10.08
					c0.1,3.02-1.23,6.24,0.14,8.96c1.31,2.59,4.52,3.65,6.8,5.53c3.58,2.95,4.64,8.36,2.42,12.35c-1.91,3.43-5.93,5.95-6.26,9.82
					c-0.32,3.64,2.82,6.72,3.59,10.3c0.84,3.95-1.39,8.04-4.6,10.66c-3.21,2.62-7.26,4.07-11.22,5.46c-3.09,1.09-6.4,2.19-9.6,1.48
					c-3.82-0.85-6.67-4.31-7.2-8.03c-0.52-3.72,1.04-7.53,3.64-10.33c2.25-2.42,5.4-4.48,5.94-7.67c0.84-4.98-5.22-9.07-4.85-14.1
					c0.19-2.59,2.06-4.74,3.62-6.87c1.56-2.13,2.91-4.81,1.96-7.25c-1.24-3.16-5.49-3.99-8.06-6.31c-2.15-1.94-3.01-5.08-2.15-7.78
					c0.87-2.7,3.43-4.84,6.34-5.29"/>
				<path class="st4" d="M452.62,263.19c0.01,3.43-1.6,6.82-4.29,9.02c-2.69,2.2-6.39,3.16-9.84,2.54c-2.67-0.48-5.6-1.8-7.92-0.41
					c-2.43,1.47-2.53,5.05-4.69,6.89c-3.08,2.62-7.99,0.16-11.91,1.3c-3.02,0.88-4.91,3.7-6.92,6.08c-2.01,2.38-5.02,4.64-8.04,3.76
					c0.19-2.66,0.39-5.35,1.2-7.89c0.81-2.55,2.3-4.97,4.58-6.43c1.25-0.8,2.71-1.28,3.87-2.2c2.51-1.98,3.09-5.43,4.64-8.2
					c2-3.57,5.86-6.07,10-6.49c3.44-0.34,6.99,0.67,10.34-0.16c2.48-0.61,4.65-2.19,7.16-2.65c4.89-0.91,9.44,2.52,12.99,5.94"/>
			</g>
			<g>
				<path class="st14" d="M484.58,304.1c-0.09-0.03,0.52-0.65,0.39-1.97c-0.11-1.29-1.21-3.13-3.52-3.94
					c-1.12-0.44-2.43-0.7-3.85-1.01c-1.41-0.33-2.98-0.74-4.36-1.76c-1.42-1-2.18-2.81-2.27-4.58c-0.11-1.79,0.18-3.58,0.27-5.39
					c0.04-0.9,0.01-1.79-0.14-2.63c-0.18-0.84-0.53-1.6-1.03-2.25c-1.05-1.28-2.7-1.85-4.21-2.36c-1.54-0.48-3.04-1.04-4.29-1.81
					c-1.26-0.75-2.31-1.63-3.16-2.53c-1.71-1.79-2.61-3.61-3.09-4.88c-0.24-0.64-0.38-1.15-0.45-1.5c-0.07-0.35-0.1-0.53-0.08-0.54
					c0.06-0.02,0.23,0.71,0.77,1.94c0.54,1.22,1.48,2.95,3.19,4.65c1.68,1.73,4.17,3.24,7.31,4.08c1.52,0.5,3.3,1.07,4.53,2.53
					c0.58,0.73,0.98,1.6,1.18,2.52c0.17,0.92,0.19,1.86,0.15,2.79c-0.1,1.86-0.39,3.63-0.28,5.32c0.09,1.67,0.74,3.23,1.99,4.15
					c1.23,0.93,2.73,1.36,4.11,1.7c1.4,0.33,2.74,0.62,3.9,1.11c1.16,0.47,2.13,1.17,2.71,1.99c0.59,0.81,0.85,1.66,0.89,2.35
					c0.04,0.7-0.14,1.23-0.32,1.55C484.74,303.98,484.59,304.11,484.58,304.1z"/>
			</g>
			<g>
				<path class="st14" d="M381.51,314.78c-0.01,0.01-0.1-0.03-0.29-0.13c-0.18-0.1-0.43-0.3-0.66-0.65
					c-0.44-0.7-0.46-2.06,0.36-3.38c0.39-0.66,1.02-1.32,1.87-1.75c0.84-0.44,1.8-0.78,2.81-1.16c1-0.38,2.08-0.83,2.94-1.63
					c0.86-0.8,1.41-1.96,1.68-3.25c0.29-1.29,0.38-2.69,0.62-4.15c0.22-1.45,0.7-3.02,1.74-4.31c2.04-2.63,5.38-4.02,7.87-6.48
					c1.23-1.24,2.15-2.8,2.73-4.53c0.61-1.72,0.94-3.58,1.24-5.48c0.54-3.76,1.09-7.97,3.68-11.41c1.26-1.71,3.19-2.97,5.28-3.34
					c2.09-0.4,4.15-0.1,6.09,0.15c1.95,0.26,3.87,0.55,5.69,0.33c1.83-0.2,3.46-1.07,4.65-2.35c2.39-2.52,3.76-5.91,6.7-7.65
					c2.84-1.72,6.16-1.93,8.84-1.19c2.72,0.74,4.73,2.55,5.82,4.42c1.13,1.88,1.48,3.77,1.51,5.28c0.03,1.52-0.28,2.68-0.56,3.42
					c-0.28,0.75-0.52,1.1-0.52,1.1c-0.03-0.01,0.15-0.39,0.39-1.14c0.24-0.74,0.5-1.89,0.43-3.37c-0.07-1.47-0.45-3.3-1.57-5.1
					c-1.09-1.79-3.02-3.48-5.63-4.17c-2.57-0.68-5.75-0.44-8.42,1.2c-1.33,0.82-2.41,2.04-3.38,3.41c-0.99,1.35-1.89,2.86-3.17,4.2
					c-0.64,0.66-1.38,1.27-2.23,1.71c-0.87,0.42-1.8,0.74-2.78,0.84c-1.95,0.24-3.92-0.05-5.86-0.31c-1.94-0.25-3.94-0.53-5.87-0.15
					c-1.93,0.34-3.68,1.49-4.88,3.09c-1.21,1.6-1.98,3.47-2.5,5.36c-0.53,1.9-0.76,3.84-1.06,5.75c-0.3,1.91-0.65,3.8-1.28,5.59
					c-0.61,1.79-1.59,3.45-2.9,4.75c-2.64,2.56-5.95,3.92-7.87,6.39c-0.98,1.2-1.43,2.64-1.67,4.07c-0.25,1.43-0.35,2.84-0.67,4.17
					c-0.3,1.33-0.9,2.59-1.85,3.45c-0.95,0.86-2.09,1.3-3.1,1.67c-1.03,0.37-1.98,0.68-2.8,1.09c-0.82,0.39-1.41,0.99-1.8,1.61
					c-0.81,1.24-0.83,2.51-0.46,3.18C381.08,314.61,381.54,314.74,381.51,314.78z"/>
			</g>
		</g>
		<g>
			<path class="st6" d="M338.57,432.61l31.04-2.78c0,0,19.1-49.21,42.65-61.14l15.25,26.06l-32.65,60H331.1L338.57,432.61z"/>
			<path class="st7" d="M338.57,432.61l31.04-2.78c0,0,19.1-49.21,42.65-61.14l15.25,26.06l-32.65,60H331.1L338.57,432.61z"/>
			<g>
				<path class="st8" d="M350.83,446.51c-0.16-0.09,1.01-2.29,2.62-4.92c1.6-2.62,3.03-4.67,3.19-4.58
					c0.16,0.09-1.01,2.29-2.62,4.92C352.42,444.55,350.99,446.6,350.83,446.51z"/>
			</g>
			<g>
				<path class="st8" d="M372.82,445.91c-0.14,0.11-1.84-1.72-3.79-4.09c-1.95-2.37-3.42-4.39-3.27-4.5s1.84,1.72,3.79,4.09
					C371.5,443.78,372.97,445.8,372.82,445.91z"/>
			</g>
			<g>
				<path class="st8" d="M376.64,434.63c-0.18,0-0.33-1.78-0.33-3.98c0-2.2,0.15-3.98,0.33-3.98s0.33,1.78,0.33,3.98
					C376.98,432.85,376.83,434.63,376.64,434.63z"/>
			</g>
			<g>
				<path class="st8" d="M365.72,452.23c-0.1,0.15-1.43-0.52-2.97-1.51c-1.54-0.98-2.7-1.9-2.6-2.05c0.1-0.15,1.43,0.52,2.97,1.51
					C364.65,451.15,365.82,452.07,365.72,452.23z"/>
			</g>
			<g>
				<path class="st8" d="M383.54,406.99c0.17,0.07-0.79,2.53-2.14,5.48c-1.35,2.95-2.59,5.29-2.76,5.21
					c-0.17-0.07,0.79-2.53,2.14-5.48C382.14,409.25,383.37,406.92,383.54,406.99z"/>
			</g>
			<g>
				<path class="st8" d="M396.12,387.05c0.11,0.14-1,1.15-2.48,2.25c-1.48,1.1-2.77,1.87-2.88,1.73c-0.11-0.14,1-1.15,2.48-2.25
					C394.72,387.68,396.01,386.91,396.12,387.05z"/>
			</g>
			<path class="st6" d="M442.55,450.86l16.01-63.24c2.79-11.01,13.84-18.01,25.25-16l0,0c11.75,2.07,19.66,12.93,17.83,24.47
				l-9.8,61.81c-2.41,12.95-12.94,22.99-26.23,25.02l-12.73,1.94L442.55,450.86z"/>
			<g>
				<path class="st4" d="M493,367.54c-0.08,0.15-1.79-1.9-5.71-2.81c-1.93-0.44-4.34-0.55-6.89,0.05c-2.55,0.58-5.16,1.93-7.49,3.82
					c-4.69,3.85-7.25,8.84-8.98,12.35c-0.86,1.78-1.51,3.24-1.98,4.24c-0.46,1.01-0.74,1.55-0.78,1.54
					c-0.04-0.02,0.15-0.6,0.54-1.63c0.39-1.04,0.98-2.53,1.79-4.34c0.82-1.81,1.86-3.95,3.29-6.17c1.43-2.23,3.3-4.52,5.69-6.49
					c2.4-1.95,5.12-3.33,7.78-3.9c2.66-0.58,5.17-0.42,7.14,0.09c1.99,0.52,3.45,1.36,4.34,2.05c0.44,0.35,0.77,0.64,0.97,0.86
					C492.92,367.4,493.02,367.52,493,367.54z"/>
			</g>
			<g>
				<path class="st4" d="M402.31,381.77c0.02,0.02-0.14,0.22-0.45,0.59c-0.36,0.42-0.81,0.95-1.37,1.6c-1.18,1.4-2.88,3.43-4.8,6.07
					c-3.83,5.23-8.65,13.06-10.93,22.69c-2.23,9.64-2.34,18.67-2.72,25.14c-0.16,3.24-0.32,5.87-0.46,7.68
					c-0.08,0.85-0.14,1.54-0.19,2.08c-0.05,0.48-0.09,0.73-0.11,0.72c-0.02,0-0.03-0.25-0.02-0.73c0.02-0.55,0.04-1.24,0.06-2.09
					c0.06-1.9,0.14-4.51,0.25-7.68c0.26-6.47,0.29-15.53,2.54-25.27c2.31-9.77,7.26-17.63,11.2-22.82c1.99-2.61,3.74-4.61,4.99-5.96
					c0.62-0.68,1.13-1.18,1.47-1.53C402.1,381.92,402.29,381.75,402.31,381.77z"/>
			</g>
			<path class="st6" d="M504.9,381.63c-1.76-11.31-8.14-14.02-14.76-17.54c-2.16-1.15-12.59-3.77-20.85-5.74
				c-0.79-4.9-2.2-13.66-2.51-15.52c-0.44-2.6-42.1,3.9-42.63,4.88c-0.35,0.65-1.31,10.8-1.92,17.57l-9.97,3.41l-13.02,16.19
				l-6.78,9.41c-3.93,5.46-6.91,11.55-8.39,18.07c-1.64,7.21-1.87,14.24-1.87,21.9l-2.01,41.51l87.17,24.11l6.75-42.05l22.49-29.94
				C498.52,415.77,507.05,395.53,504.9,381.63z"/>
			<g>
				<path class="st4" d="M430.5,366.58c-0.09,0.01-0.31-1.09-0.58-2.88c-0.27-1.79-0.6-4.27-0.93-7.01
					c-0.15-1.36-0.3-2.65-0.43-3.87c-0.11-1.19-0.27-2.26-0.23-3.2c0.03-0.93,0.29-1.7,0.62-2.12c0.34-0.43,0.63-0.54,0.64-0.52
					c0.04,0.04-0.19,0.23-0.42,0.65c-0.23,0.43-0.4,1.11-0.37,1.99c0.02,0.87,0.22,1.94,0.37,3.12c0.15,1.22,0.31,2.51,0.48,3.86
					c0.32,2.74,0.58,5.23,0.73,7.03S430.59,366.57,430.5,366.58z"/>
			</g>
			<g>
				<path class="st4" d="M441.61,364.01c-0.08,0.02-0.48-0.97-0.93-2.64c-0.45-1.66-0.93-4.01-1.18-6.63
					c-0.25-2.62-0.22-5.01-0.08-6.73c0.13-1.72,0.33-2.77,0.42-2.76c0.21,0.02-0.17,4.24,0.33,9.42
					C440.65,359.87,441.81,363.96,441.61,364.01z"/>
			</g>
			<g>
				<path class="st4" d="M462.3,361.07c-0.22-0.02,0.7-4.25-0.24-9.38c-0.88-5.14-3.2-8.81-3-8.91c0.07-0.04,0.73,0.82,1.53,2.37
					c0.8,1.54,1.67,3.81,2.14,6.43c0.46,2.62,0.42,5.04,0.2,6.76C462.7,360.06,462.37,361.09,462.3,361.07z"/>
			</g>
			<g>
				<path class="st8" d="M403.1,398.05c-0.15-0.1,1.29-2.52,3.41-5.28c2.12-2.77,4.09-4.8,4.23-4.68c0.14,0.12-1.59,2.33-3.7,5.08
					C404.94,395.9,403.26,398.15,403.1,398.05z"/>
			</g>
			<g>
				<path class="st8" d="M422.74,382.43c-0.15,0.11-1.7-1.63-3.47-3.9c-1.77-2.26-3.08-4.18-2.93-4.29c0.15-0.11,1.7,1.63,3.47,3.9
					C421.57,380.4,422.88,382.32,422.74,382.43z"/>
			</g>
			<g>
				<path class="st8" d="M443.26,372.61c0.12,0.14-1.81,1.86-4.1,4.06c-2.3,2.19-4.11,4.03-4.25,3.9c-0.14-0.11,1.46-2.16,3.79-4.37
					C441.01,373.99,443.15,372.48,443.26,372.61z"/>
			</g>
			<g>
				<path class="st8" d="M437.5,360.65c-0.12,0.13-1.56-0.94-3.2-2.4c-1.65-1.46-2.88-2.75-2.76-2.88c0.12-0.13,1.56,0.94,3.2,2.4
					C436.39,359.23,437.62,360.52,437.5,360.65z"/>
			</g>
			<g>
				<path class="st8" d="M455.47,351.27c0.04,0.18-1.9,0.73-4.33,1.24c-2.43,0.51-4.43,0.78-4.47,0.6c-0.04-0.18,1.9-0.73,4.33-1.24
					C453.44,351.36,455.44,351.09,455.47,351.27z"/>
			</g>
			<g>
				<path class="st8" d="M459.07,379.11c-0.18,0.01-0.44-1.95-0.56-4.38c-0.13-2.43-0.08-4.41,0.11-4.42
					c0.18-0.01,0.44,1.95,0.56,4.38C459.3,377.12,459.26,379.1,459.07,379.11z"/>
			</g>
			<g>
				<path class="st8" d="M452.52,392.5c-0.17,0.06-1.18-2.21-2.25-5.08c-1.07-2.87-1.8-5.25-1.62-5.31
					c0.17-0.06,1.18,2.21,2.25,5.08C451.96,390.06,452.69,392.44,452.52,392.5z"/>
			</g>
			<g>
				<path class="st8" d="M434.71,401.94c-0.17,0.07-1.28-2.32-2.47-5.32c-1.19-3-2.02-5.49-1.85-5.56c0.17-0.07,1.28,2.32,2.47,5.32
					C434.05,399.38,434.88,401.87,434.71,401.94z"/>
			</g>
			<g>
				<path class="st8" d="M417.94,412.64c-0.18,0.04-0.83-2.32-1.44-5.27c-0.62-2.95-0.97-5.36-0.79-5.4
					c0.18-0.04,0.83,2.32,1.44,5.27C417.77,410.18,418.12,412.6,417.94,412.64z"/>
			</g>
			<g>
				<path class="st8" d="M398.03,413.06c-0.17,0.08-1.37-2.01-2.69-4.66c-1.32-2.65-2.26-4.87-2.09-4.95
					c0.17-0.08,1.37,2.01,2.69,4.66C397.26,410.77,398.19,412.98,398.03,413.06z"/>
			</g>
			<g>
				<path class="st8" d="M397.6,425.55c0.08,0.16-2.26,1.45-5.22,2.89c-2.97,1.43-5.43,2.46-5.52,2.3
					c-0.08-0.16,2.25-1.45,5.22-2.89C395.05,426.42,397.52,425.39,397.6,425.55z"/>
			</g>
			<g>
				<path class="st8" d="M397.85,445.31c-0.17,0.06-1.1-1.95-1.81-4.58c-0.72-2.63-0.93-4.83-0.76-4.85
					c0.19-0.03,0.69,2.09,1.4,4.68C397.38,443.16,398.03,445.25,397.85,445.31z"/>
			</g>
			<g>
				<path class="st8" d="M393.73,459.19c-0.12,0.13-2-1.35-4.2-3.31c-2.19-1.96-3.87-3.66-3.74-3.8c0.12-0.13,2,1.35,4.2,3.31
					C392.18,457.36,393.85,459.06,393.73,459.19z"/>
			</g>
			<g>
				<path class="st8" d="M419.97,449.72c0.05,0.19-2.9,1.01-6.35,2.5c-3.45,1.47-6.07,3.03-6.18,2.87c-0.1-0.14,2.4-1.97,5.91-3.47
					C416.86,450.11,419.94,449.56,419.97,449.72z"/>
			</g>
			<g>
				<path class="st8" d="M412.29,442.84c-0.17,0.06-1.02-1.87-1.89-4.3c-0.87-2.44-1.43-4.46-1.26-4.52
					c0.17-0.06,1.02,1.87,1.89,4.3C411.91,440.76,412.47,442.78,412.29,442.84z"/>
			</g>
			<g>
				<path class="st8" d="M427.86,425.84c0.16,0.1-1.42,2.82-3.52,6.07c-2.1,3.26-3.93,5.82-4.09,5.73c-0.16-0.1,1.42-2.82,3.52-6.07
					C425.88,428.31,427.71,425.75,427.86,425.84z"/>
			</g>
			<g>
				<path class="st8" d="M444.59,427.47c-0.14,0.11-2.22-2.35-4.27-5.71c-2.07-3.36-3.3-6.3-3.14-6.37
					c0.17-0.08,1.67,2.71,3.71,6.04C442.92,424.76,444.74,427.36,444.59,427.47z"/>
			</g>
			<g>
				<path class="st8" d="M454.6,411.33c0.04,0.17-2.14,0.72-4.89,0.85c-2.75,0.14-4.97-0.2-4.96-0.37c0.02-0.19,2.22-0.15,4.92-0.28
					C452.38,411.4,454.57,411.15,454.6,411.33z"/>
			</g>
			<g>
				<path class="st8" d="M478.39,392.94c0.08,0.16-2.74,1.64-6.3,3.3c-3.56,1.66-6.51,2.87-6.59,2.71c-0.08-0.16,2.74-1.64,6.3-3.3
					C475.36,393.99,478.31,392.78,478.39,392.94z"/>
			</g>
			<g>
				<path class="st8" d="M479.97,381.25c-0.17-0.08,0.84-2.4,2.25-5.18c1.41-2.78,2.69-4.97,2.85-4.89c0.17,0.08-0.84,2.4-2.25,5.18
					C481.42,379.14,480.14,381.33,479.97,381.25z"/>
			</g>
			<g>
				<path class="st8" d="M495.09,390.42c-0.19,0.04-0.94-2.55-1.95-5.72c-1.01-3.17-1.91-5.72-1.73-5.79
					c0.17-0.07,1.35,2.4,2.37,5.59C494.8,387.7,495.27,390.39,495.09,390.42z"/>
			</g>
			<g>
				<path class="st8" d="M497.46,402.59c0.06,0.16-2.42,1.21-5.64,2.02c-3.22,0.81-5.91,1.06-5.94,0.89
					c-0.03-0.19,2.59-0.72,5.77-1.52C494.84,403.18,497.39,402.42,497.46,402.59z"/>
			</g>
			<g>
				<path class="st8" d="M471.56,417.45c-0.19-0.04,0.36-3.1,0.51-6.91c0.18-3.81-0.11-6.9,0.09-6.92c0.17-0.03,0.76,3.08,0.58,6.95
					C472.58,414.45,471.73,417.49,471.56,417.45z"/>
			</g>
			<g>
				<path class="st8" d="M466.39,432.74c-0.12,0.13-2.38-1.75-4.7-4.5c-2.33-2.74-3.8-5.26-3.65-5.35c0.16-0.1,1.86,2.23,4.17,4.93
					C464.5,430.54,466.53,432.6,466.39,432.74z"/>
			</g>
			<g>
				<path class="st8" d="M492.37,429.52c0.07,0.17-2.33,1.31-5.36,2.54c-3.03,1.24-5.55,2.11-5.62,1.94
					c-0.07-0.17,2.33-1.31,5.36-2.54C489.78,430.22,492.3,429.36,492.37,429.52z"/>
			</g>
			<g>
				<path class="st8" d="M483.06,458.3c-0.18,0-0.3-3.1-0.26-6.92c0.04-3.82,0.22-6.91,0.41-6.91c0.18,0,0.3,3.1,0.26,6.92
					C483.43,455.21,483.25,458.3,483.06,458.3z"/>
			</g>
			<g>
				<path class="st8" d="M463.12,456.65c-0.17-0.02,0.15-3.24,1.14-7.11c0.99-3.87,2.26-6.85,2.42-6.79
					c0.18,0.06-0.8,3.12-1.77,6.95C463.93,453.53,463.31,456.68,463.12,456.65z"/>
			</g>
			<g>
				<path class="st8" d="M464.04,464.2c0.01,0.19-3.19,0.49-7.1,1.13c-3.91,0.63-7.04,1.35-7.09,1.17
					c-0.05-0.16,3.03-1.18,6.98-1.81C460.78,464.04,464.03,464.03,464.04,464.2z"/>
			</g>
			<g>
				<path class="st8" d="M441.98,459.36c-0.13-0.13,1.57-2.06,3.81-4.33c2.24-2.27,4.16-4,4.29-3.88c0.13,0.13-1.57,2.06-3.81,4.33
					C444.04,457.75,442.12,459.48,441.98,459.36z"/>
			</g>
			<g>
				<path class="st8" d="M427.7,472.95c-0.19,0.04-0.76-2.23-1.74-4.92c-0.96-2.7-1.97-4.81-1.8-4.9c0.15-0.08,1.44,1.93,2.43,4.68
					C427.59,470.56,427.87,472.92,427.7,472.95z"/>
			</g>
			<g>
				<path class="st8" d="M450.76,480.72c-0.08,0.17-2.96-0.93-6.45-2.44c-3.49-1.51-6.25-2.87-6.18-3.04
					c0.07-0.17,2.96,0.93,6.45,2.44C448.07,479.19,450.83,480.55,450.76,480.72z"/>
			</g>
			<g>
				<path class="st8" d="M410.57,478.44c-0.18-0.06,0.37-2.12,1.21-4.6c0.84-2.48,1.67-4.45,1.84-4.39c0.18,0.06-0.37,2.12-1.21,4.6
					C411.57,476.53,410.74,478.5,410.57,478.44z"/>
			</g>
			<g>
				<path class="st8" d="M437.05,482.82c-0.04,0.19-3.69-0.39-8.24-0.62c-4.54-0.25-8.24-0.05-8.26-0.24
					c-0.02-0.17,3.69-0.66,8.29-0.41C433.44,481.78,437.08,482.66,437.05,482.82z"/>
			</g>
			<g>
				<path class="st4" d="M442.55,445.76c-0.02,0-0.03-0.17-0.03-0.5c-0.01-0.33,0.02-0.82,0.21-1.43c0.17-0.6,0.57-1.37,1.4-1.87
					c0.81-0.52,1.94-0.69,3.14-0.51l-0.26,0.15c1.41-4.82,3.66-11.86,5.9-19.76c2.11-7.39,3.53-14.19,4.52-19.13
					c0.48-2.39,0.88-4.36,1.18-5.85c0.28-1.38,0.46-2.14,0.51-2.13c0.05,0.01-0.05,0.78-0.25,2.17c-0.2,1.39-0.53,3.41-0.97,5.89
					c-0.88,4.96-2.23,11.8-4.34,19.22c-2.26,7.91-4.58,14.93-6.12,19.71l-0.06,0.19l-0.2-0.04c-1.06-0.19-2.13-0.06-2.86,0.37
					c-0.75,0.42-1.16,1.09-1.35,1.65C442.56,445.06,442.63,445.77,442.55,445.76z"/>
			</g>
			<g>
				<path class="st4" d="M471.37,463.24c-0.11,0.05-0.9-1.65-2.53-4.19c-1.63-2.54-4.21-5.85-7.66-8.93
					c-3.47-3.07-7.09-5.27-9.82-6.61c-2.74-1.35-4.55-1.96-4.51-2.07c0.01-0.04,0.48,0.08,1.3,0.33c0.83,0.24,2,0.69,3.41,1.32
					c2.82,1.25,6.55,3.42,10.07,6.54c3.51,3.13,6.07,6.55,7.61,9.18c0.77,1.31,1.34,2.41,1.67,3.19
					C471.24,462.78,471.41,463.22,471.37,463.24z"/>
			</g>
			<g class="st15">
				<path d="M447.57,440.51c4.91,0.35,8.94,0.71,13.55,2.4c4.61,1.69,8.88,4.93,10.57,9.45c0.41,1.08,0.6,2.45-0.24,3.27
					c-0.62,0.6-1.62,0.67-2.44,0.38c-0.82-0.28-1.49-0.86-2.13-1.43c-2.83-2.56-5.77-4.83-8.7-7.29c-2.93-2.46-7.17-5.05-10.99-5.62
					"/>
			</g>
			<g>
				<path class="st4" d="M438.3,432.5c0.02,0.03-0.45,0.33-1.34,0.76c-0.89,0.44-2.23,0.98-3.95,1.46
					c-3.41,0.98-8.52,1.51-13.85,0.15c-5.34-1.36-9.53-4.25-12.03-6.73c-1.26-1.24-2.17-2.35-2.73-3.16
					c-0.57-0.8-0.83-1.28-0.79-1.3c0.11-0.08,1.28,1.77,3.85,4.12c2.54,2.35,6.67,5.11,11.87,6.43c5.2,1.32,10.18,0.88,13.56,0.03
					C436.31,433.43,438.25,432.38,438.3,432.5z"/>
			</g>
			<g class="st15">
				<path d="M404.3,424.65c2.16,4.6,4.71,9.23,8.81,12.32c2.37,1.78,5.13,3.28,8.12,3.33c4.29,0.07,7.97-2.79,11.25-5.51
					C421.87,436.42,409.92,431.72,404.3,424.65"/>
			</g>
			<g>
				<path class="st4" d="M451.82,363.05c-0.2-0.01,0.04-4.32-0.49-9.58c-0.5-5.27-1.58-9.45-1.38-9.5c0.08-0.02,0.46,1,0.89,2.7
					c0.43,1.7,0.89,4.08,1.16,6.74c0.26,2.66,0.27,5.09,0.17,6.83C452.08,361.99,451.91,363.06,451.82,363.05z"/>
			</g>
		</g>
		<g>
			<path class="st6" d="M299.37,531.27c0,0-13.97,2.95-26.44,1.12c-11.69-1.71-37.87,0.06-37.86,15.13
				c0.01,16.81,34.92,12.66,48.54,9.99c13.62-2.66,27.18-5.08,27.18-5.08L299.37,531.27z"/>
			<g>
				<path class="st4" d="M268.02,552.81c-0.18,0.04-0.94-2.58-1.69-5.85c-0.75-3.27-1.21-5.95-1.03-5.99
					c0.18-0.04,0.94,2.58,1.69,5.85C267.73,550.08,268.2,552.77,268.02,552.81z"/>
			</g>
			<g>
				<path class="st4" d="M272.78,553.03c-0.18,0.02-0.71-2.66-1.18-6c-0.47-3.34-0.7-6.06-0.52-6.09c0.18-0.02,0.71,2.66,1.18,6
					C272.73,550.28,272.97,553,272.78,553.03z"/>
			</g>
			<g>
				<path class="st4" d="M277.38,551.27c-0.18,0.02-0.62-2.33-0.98-5.24c-0.36-2.92-0.5-5.3-0.32-5.32
					c0.18-0.02,0.62,2.32,0.98,5.24C277.42,548.87,277.57,551.25,277.38,551.27z"/>
			</g>
			<g>
				<path class="st4" d="M284.61,549.51c-0.16,0.07-1.15-1.89-1.8-4.5c-0.65-2.61-0.69-4.79-0.51-4.81c0.19-0.02,0.52,2.1,1.16,4.65
					C284.09,547.41,284.79,549.44,284.61,549.51z"/>
			</g>
			<g>
				<path class="st4" d="M286.16,543.36c0-0.04,0.64-0.14,1.83-0.12c1.18,0.03,2.9,0.22,4.9,0.94c0.5,0.19,1.03,0.42,1.51,0.8
					c0.48,0.36,0.93,0.95,0.95,1.67c0.02,1.49-1.65,2.56-3.16,2.25c-1.53-0.28-2.69-1.38-3.65-2.54c-0.97-1.19-1.67-2.64-2.06-4.2
					c-0.77-3.14-0.2-6.38,1.54-8.7c0.25-0.28,0.6-0.55,1.04-0.61c0.42-0.07,0.88,0.09,1.16,0.35c0.57,0.53,0.77,1.2,0.87,1.83
					c0.16,1.23,0.07,2.4-0.18,3.42c-0.5,2.05-1.55,3.48-2.36,4.31c-0.41,0.42-0.77,0.71-1.02,0.88c-0.26,0.17-0.39,0.26-0.41,0.24
					c-0.04-0.05,0.49-0.43,1.23-1.29c0.73-0.86,1.67-2.27,2.09-4.24c0.22-0.98,0.27-2.08,0.1-3.24c-0.09-0.54-0.31-1.13-0.71-1.48
					c-0.4-0.36-0.96-0.26-1.35,0.22c-1.51,2.08-2.09,5.22-1.35,8.15c0.37,1.47,1.02,2.84,1.93,3.96c0.89,1.11,1.99,2.11,3.24,2.34
					c1.19,0.29,2.52-0.62,2.5-1.64c0-0.51-0.31-0.96-0.72-1.29c-0.41-0.33-0.88-0.57-1.35-0.75c-1.92-0.75-3.6-1.01-4.75-1.12
					C286.81,543.4,286.16,543.42,286.16,543.36z"/>
			</g>
			<g>
				<path class="st4" d="M309.41,550.22c0,0.01-0.12,0.05-0.35,0.11c-0.27,0.07-0.62,0.15-1.05,0.26c-0.97,0.22-2.33,0.52-4.05,0.9
					c-3.52,0.76-8.63,1.82-14.98,3.02c-6.35,1.19-13.94,2.55-22.44,3.69c-4.24,0.56-8.78,1.06-13.48,0.66
					c-2.35-0.17-4.73-0.56-7.06-1.32c-1.15-0.41-2.31-0.85-3.39-1.47c-1.08-0.63-2.12-1.31-2.98-2.35l0.05,0.06
					c-0.43-0.41-0.88-0.88-1.21-1.43c-1.43-2.23-1.47-5-0.71-7.36c0.78-2.4,2.53-4.32,4.48-5.73c1.97-1.4,4.16-2.38,6.37-3.09
					c1.11-0.31,2.2-0.68,3.3-0.93c1.11-0.22,2.19-0.5,3.29-0.65c8.75-1.35,16.72-0.66,23.33-0.66c3.32,0.06,6.31-0.03,8.94-0.19
					c2.62-0.19,4.87-0.48,6.69-0.83c0.9-0.18,1.7-0.35,2.41-0.49c0.67-0.19,1.25-0.35,1.73-0.48c0.44-0.12,0.79-0.21,1.07-0.29
					c0.24-0.06,0.37-0.09,0.37-0.08c0,0.01-0.11,0.06-0.35,0.14c-0.27,0.09-0.62,0.21-1.05,0.35c-0.48,0.15-1.06,0.33-1.72,0.55
					c-0.71,0.16-1.51,0.35-2.41,0.56c-1.82,0.38-4.08,0.71-6.71,0.94c-2.64,0.19-5.65,0.31-8.97,0.28
					c-6.63,0.05-14.59-0.58-23.23,0.79c-1.08,0.15-2.15,0.44-3.24,0.65c-1.09,0.24-2.15,0.62-3.25,0.92
					c-2.16,0.69-4.29,1.66-6.18,3.01c-1.87,1.35-3.51,3.18-4.23,5.41c-0.72,2.2-0.65,4.79,0.64,6.81c0.3,0.5,0.71,0.92,1.09,1.29
					l0.02,0.02l0.03,0.04c0.71,0.86,1.74,1.57,2.76,2.15c1.03,0.6,2.15,1.03,3.27,1.42c2.26,0.74,4.6,1.13,6.9,1.3
					c4.63,0.41,9.11-0.07,13.35-0.61c8.49-1.1,16.08-2.41,22.43-3.54c6.36-1.14,11.48-2.14,15.02-2.82c1.73-0.33,3.1-0.6,4.07-0.78
					c0.44-0.08,0.79-0.14,1.06-0.19C309.28,550.22,309.41,550.21,309.41,550.22z"/>
			</g>
			<g>
				<path class="st4" d="M258.33,558.31c-0.1,0-0.18-1.34-0.34-3.49c-0.16-2.15-0.42-5.13-0.87-8.39c-0.45-3.26-0.99-6.2-1.42-8.32
					c-0.43-2.12-0.71-3.43-0.61-3.46c0.08-0.02,0.53,1.25,1.07,3.35c0.55,2.1,1.17,5.05,1.62,8.33c0.45,3.29,0.64,6.28,0.68,8.45
					C258.5,556.97,258.42,558.31,258.33,558.31z"/>
			</g>
			<polygon class="st11" points="295.07,532 303.92,553.68 310.79,552.44 297.63,531.27 			"/>
		</g>
		<path class="st4" d="M410.43,472.57c-1.42,0.46-92.9-24.61-129.89-34.78c-9.72-2.67-20.14-1.13-28.61,4.23l-0.45,0.28
			c-12.44,7.87-18.49,22.53-15.13,36.64v0c2.13,8.96,7.84,16.71,15.86,21.51c24.4,14.62,76.02,45.37,77.6,44.77
			c2.07-0.78,66.54-2.42,66.54-2.42l-77.57-54.56l36.9,23.33L410.43,472.57L410.43,472.57z"/>
		<path class="st12" d="M334.06,445.34l19.45-9.84l19.07,11.69l71.39,2.28l10.33,33.99l-103.33-23.43c0,0-18.81,1.63-20.22-2.51
			C329.34,453.4,334.06,445.34,334.06,445.34z"/>
		<path class="st4" d="M392.55,499.82l-9.61,30.87l1.2,9.41l0,0c17.51,17.26,45.42,19.1,65.14,4.29h0
			c11.99-9,18.99-22.97,18.92-37.75l-0.14-32.25L392.55,499.82z"/>
		<g>
			<path class="st14" d="M335.31,500.02c-0.11,0.14-11.27-7.81-24.92-17.77c-13.65-9.96-24.63-18.15-24.52-18.29
				c0.11-0.14,11.27,7.81,24.92,17.77C324.45,491.68,335.42,499.87,335.31,500.02z"/>
		</g>
		<g>
			<path class="st13" d="M352.19,441.66c0.06,0.17-4.2,1.66-9.51,3.32c-5.31,1.66-9.66,2.87-9.72,2.7c-0.06-0.17,4.2-1.66,9.51-3.32
				C347.79,442.7,352.14,441.49,352.19,441.66z"/>
		</g>
		<g>
			<path class="st13" d="M353.65,447.46c0.01,0.1-1.26,0.28-3.31,0.61c-2.05,0.33-4.87,0.82-7.95,1.51
				c-3.08,0.69-5.84,1.46-7.83,2.04c-1.99,0.58-3.22,0.96-3.25,0.87c-0.03-0.08,1.14-0.61,3.1-1.31c1.96-0.7,4.72-1.54,7.82-2.24
				c3.11-0.7,5.96-1.12,8.04-1.33C352.35,447.4,353.64,447.38,353.65,447.46z"/>
		</g>
		<g>
			<path class="st13" d="M352.02,452.78c0.04,0.18-4.76,1.26-10.71,2.41c-5.95,1.15-10.81,1.95-10.84,1.77
				c-0.04-0.18,4.76-1.26,10.71-2.41C347.13,453.39,351.98,452.6,352.02,452.78z"/>
		</g>
		<g>
			<path class="st14" d="M326.79,399.74l17.94,57.72c0.21,0.66,0.8,1.13,1.51,1.18l48.88,3.59c0.89,0.07,1.58,0.79,1.58,1.67v2.98
				c0,0.94-0.79,1.69-1.74,1.67l-133.61-2.46c-0.7-0.01-1.32-0.44-1.57-1.08l-23.5-60.21c-0.42-1.06,0.35-2.21,1.52-2.27l87.28-3.99
				C325.86,398.52,326.57,399,326.79,399.74z"/>
			<path class="st0" d="M289.14,424.61c-0.95,0.24-2.46,1.56-2.64,2.94c-0.19,1.38,0.57,2.78,1.73,3.6
				c1.41,0.99,3.45,1.12,4.88,0.18c1.44-0.95,2.08-2.81,1.33-4.82C293.85,424.9,290.87,423.79,289.14,424.61"/>
		</g>
		<g>
			<path class="st4" d="M310.79,552.44l-14.12-22.72l103.85-79.6c6.46-5.18,14.36-8.35,22.68-9.09h0
				c25.83-2.3,47.53,18.76,45.37,44.04l-1.66,19.42l-68.93,21.66L310.79,552.44z"/>
			<g>
				<path class="st14" d="M443.97,498.49c0.01,0.01-0.09,0.09-0.27,0.25c-0.22,0.18-0.5,0.4-0.85,0.68
					c-0.79,0.62-1.9,1.48-3.31,2.58c-0.73,0.56-1.53,1.18-2.4,1.85c-0.88,0.68-1.91,1.31-2.98,2.05c-1.08,0.72-2.23,1.5-3.45,2.31
					c-0.61,0.41-1.23,0.84-1.89,1.25c-0.67,0.39-1.36,0.8-2.06,1.21c-2.82,1.65-5.87,3.53-9.32,5.24c-1.71,0.88-3.46,1.83-5.3,2.72
					c-1.86,0.86-3.78,1.75-5.74,2.66c-7.91,3.52-16.76,7.07-26.25,10.23c-18.97,6.39-36.51,11-49.07,14.72
					c-3.15,0.91-5.99,1.75-8.47,2.52c-2.49,0.75-4.64,1.4-6.37,1.98c-1.71,0.54-3.06,0.97-4.02,1.28c-0.43,0.13-0.78,0.23-1.05,0.32
					c-0.24,0.07-0.36,0.1-0.37,0.09c0-0.01,0.11-0.06,0.34-0.15c0.27-0.1,0.61-0.22,1.03-0.38c0.96-0.33,2.29-0.8,3.98-1.39
					c1.73-0.62,3.86-1.3,6.34-2.09c2.48-0.8,5.31-1.68,8.45-2.62c12.53-3.84,30.05-8.51,48.98-14.89
					c9.48-3.15,18.32-6.67,26.22-10.16c1.96-0.9,3.88-1.78,5.74-2.63c1.84-0.88,3.59-1.82,5.3-2.69c3.45-1.68,6.5-3.54,9.33-5.16
					c0.71-0.41,1.4-0.8,2.07-1.19c0.66-0.41,1.28-0.83,1.9-1.23c1.23-0.8,2.38-1.56,3.47-2.27c1.07-0.72,2.12-1.33,3-2
					c0.89-0.66,1.7-1.26,2.43-1.8c1.44-1.06,2.57-1.89,3.38-2.48c0.37-0.26,0.66-0.47,0.89-0.63
					C443.85,498.55,443.96,498.48,443.97,498.49z"/>
			</g>
			<g>
				<path class="st14" d="M446.49,509.11c0.02,0.04-0.36,0.23-1.05,0.54c-0.69,0.31-1.71,0.71-2.98,1.18
					c-2.54,0.93-6.13,2.03-10.18,2.88c-4.06,0.85-7.79,1.29-10.5,1.47c-1.35,0.09-2.45,0.13-3.21,0.12c-0.76,0-1.18-0.02-1.18-0.07
					c0-0.1,1.67-0.22,4.35-0.52c2.68-0.29,6.38-0.8,10.4-1.64c4.02-0.85,7.6-1.87,10.17-2.68
					C444.87,509.58,446.45,509.02,446.49,509.11z"/>
			</g>
			<g>
				<path class="st14" d="M396.36,453.93c0.11,0.14-22.11,17.22-49.64,38.15c-27.53,20.93-49.94,37.78-50.05,37.64
					c-0.11-0.14,22.11-17.22,49.64-38.15C373.84,470.64,396.25,453.79,396.36,453.93z"/>
			</g>
			<g>
				<g>
					<path class="st6" d="M390.36,538.41c-4.98-2.6-10.57-1.06-15.34,0.51c-3.17,1.05-6.47,2.7-9.69,1.81
						c-2.33-0.64-4.06-2.49-5.84-4.09c-7.18-6.47-17.07-10.01-26.84-9.41c-2.77,0.17-5.49,1.26-7.37,3.26
						c-4.89,5.18-1.2,11.93,3.17,16.29c7.72,7.69,18.23,12.65,29.19,13.77c9.11,0.93,21.64-0.3,30.88-4.17
						c5.7-2.39,8.62-8.96,5.63-14.27C393.27,540.56,392,539.26,390.36,538.41z"/>
					<g class="st11">
						<path d="M390.35,542.55c-4.98-2.6-10.57-1.06-15.34,0.51c-3.17,1.05-6.47,2.7-9.69,1.81c-2.33-0.64-4.06-2.49-5.84-4.09
							c-7.18-6.47-17.07-10.01-26.84-9.41c-2.77,0.17-5.49,1.26-7.37,3.26c-1.08,1.15-1.73,2.37-2.05,3.63
							c0.72,3.12,2.87,6.16,5.22,8.51c7.72,7.69,18.23,12.65,29.19,13.77c9.11,0.93,21.64-0.3,30.88-4.17
							c3.43-1.43,5.83-4.38,6.57-7.66c-0.19-0.84-0.49-1.66-0.94-2.46C393.26,544.71,391.99,543.41,390.35,542.55z"/>
					</g>
				</g>
				<g>
					<path class="st4" d="M395.07,548.72c-0.09,0.03-0.07-1.19-1.22-2.89c-0.58-0.83-1.44-1.76-2.67-2.55
						c-1.21-0.8-2.77-1.49-4.58-1.71c-3.7-0.42-7.98,1.1-12.75,2.36c-2.35,0.61-4.92,1.54-7.74,1.2c-1.37-0.17-2.75-0.62-3.98-1.35
						c-1.22-0.72-2.34-1.6-3.42-2.52c-4.1-3.92-8.97-6.37-13.62-7.92c-2.33-0.76-4.61-1.27-6.78-1.54c-2.17-0.28-4.2-0.31-6.03-0.03
						c-1.82,0.28-3.41,0.86-4.66,1.59c-1.25,0.74-2.18,1.6-2.86,2.37c-1.32,1.57-1.77,2.64-1.84,2.6c0,0,0.35-1.11,1.64-2.76
						c0.66-0.81,1.59-1.72,2.86-2.52c1.28-0.78,2.91-1.42,4.78-1.74c1.87-0.32,3.97-0.31,6.17-0.05c2.2,0.25,4.53,0.74,6.9,1.5
						c2.37,0.76,4.78,1.79,7.15,3.09c1.17,0.67,2.37,1.36,3.48,2.22c1.11,0.85,2.16,1.78,3.23,2.69c1.07,0.91,2.16,1.77,3.32,2.46
						c1.16,0.69,2.43,1.1,3.72,1.27c2.61,0.34,5.11-0.53,7.49-1.14c4.74-1.21,9.1-2.73,12.97-2.23c3.84,0.6,6.31,2.85,7.4,4.58
						c0.56,0.89,0.81,1.67,0.92,2.2C395.08,548.43,395.09,548.72,395.07,548.72z"/>
				</g>
				<g>
					<path class="st4" d="M395.07,548.72c-0.09,0.03-0.07-1.19-1.22-2.89c-0.58-0.83-1.44-1.76-2.67-2.55
						c-1.21-0.8-2.77-1.49-4.58-1.71c-3.7-0.42-7.98,1.1-12.75,2.36c-2.35,0.61-4.92,1.54-7.74,1.2c-1.37-0.17-2.75-0.62-3.98-1.35
						c-1.22-0.72-2.34-1.6-3.42-2.52c-4.1-3.92-8.97-6.37-13.62-7.92c-2.33-0.76-4.61-1.27-6.78-1.54c-2.17-0.28-4.2-0.31-6.03-0.03
						c-1.82,0.28-3.41,0.86-4.66,1.59c-1.25,0.74-2.18,1.6-2.86,2.37c-1.32,1.57-1.77,2.64-1.84,2.6c0,0,0.35-1.11,1.64-2.76
						c0.66-0.81,1.59-1.72,2.86-2.52c1.28-0.78,2.91-1.42,4.78-1.74c1.87-0.32,3.97-0.31,6.17-0.05c2.2,0.25,4.53,0.74,6.9,1.5
						c2.37,0.76,4.78,1.79,7.15,3.09c1.17,0.67,2.37,1.36,3.48,2.22c1.11,0.85,2.16,1.78,3.23,2.69c1.07,0.91,2.16,1.77,3.32,2.46
						c1.16,0.69,2.43,1.1,3.72,1.27c2.61,0.34,5.11-0.53,7.49-1.14c4.74-1.21,9.1-2.73,12.97-2.23c3.84,0.6,6.31,2.85,7.4,4.58
						c0.56,0.89,0.81,1.67,0.92,2.2C395.08,548.43,395.09,548.72,395.07,548.72z"/>
				</g>
				<g>
					<path class="st4" d="M333.29,547.54c-0.05-0.07,0.92-0.75,2.55-1.73c1.63-0.97,3.95-2.23,6.6-3.45
						c2.65-1.22,5.11-2.16,6.92-2.77c1.81-0.61,2.96-0.9,2.99-0.82c0.03,0.09-1.06,0.53-2.82,1.25c-1.76,0.72-4.18,1.72-6.81,2.93
						c-2.63,1.21-4.96,2.39-6.65,3.26C334.39,547.08,333.34,547.62,333.29,547.54z"/>
				</g>
				<g>
					<path class="st4" d="M335,552.42c-0.08-0.16,4.28-2.39,9.73-4.96c5.45-2.58,9.94-4.54,10.02-4.37
						c0.08,0.16-4.27,2.38-9.73,4.96C339.57,550.62,335.08,552.58,335,552.42z"/>
				</g>
				<g>
					<path class="st4" d="M355.64,554.53c-0.1,0.15-5.41-2.94-11.85-6.92c-6.45-3.97-11.6-7.32-11.5-7.47
						c0.1-0.15,5.41,2.94,11.86,6.92C350.59,551.03,355.74,554.38,355.64,554.53z"/>
				</g>
				<g>
					<path class="st4" d="M358.63,549.47c-0.06,0.07-1.04-0.6-2.6-1.7c-1.56-1.1-3.72-2.62-6.13-4.26
						c-2.41-1.63-4.63-3.07-6.23-4.12c-1.6-1.04-2.59-1.7-2.54-1.78c0.05-0.08,1.12,0.44,2.79,1.39c1.67,0.95,3.94,2.33,6.36,3.97
						c2.42,1.64,4.54,3.23,6.03,4.43C357.81,548.61,358.68,549.41,358.63,549.47z"/>
				</g>
			</g>
		</g>
	</g>
</g>
</svg>
