<svg version="1.1" id="Capa_1" xmlns="http://www.w3.org/2000/svg" x="0" y="0" viewBox="0 0 668.13 587" style="enable-background:new 0 0 668.13 587" xml:space="preserve"><style>.st0{fill:#e0e0e0}.st1{fill:#f5f5f5}.st2{opacity:.8}.st4{fill:#263238}.st5{fill:#fff}.st6{fill:#e8505b}.st7{opacity:.3}.st8{fill:#fafafa}.st10,.st9{fill-rule:evenodd;clip-rule:evenodd;fill:#e8505b}.st10{fill:#fff}.st11{opacity:.4}.st12{fill:#ffbe9d}.st13{fill:#eb996e}.st14{fill:#455a64}.st15{opacity:.2}</style><path class="st0" d="M560.53 161.37s.73.05 1.93.59c1.17.53 2.82 1.69 3.84 3.8.5 1.04.84 2.3.78 3.67-.06 1.35-.43 2.82-1.29 4.11-.41.65-.94 1.26-1.57 1.78-.61.53-1.33.98-2.12 1.31-1.56.69-3.41.87-5.19.5-1.77-.4-3.36-1.34-4.47-2.62a7.566 7.566 0 0 1-1.34-2.07c-.33-.73-.55-1.5-.64-2.27-.22-1.53.09-3.01.63-4.26.55-1.26 1.41-2.25 2.31-2.99 1.84-1.48 3.84-1.84 5.13-1.83 1.31.02 2 .28 2 .28-.01.06-.71-.14-1.99-.09-1.26.05-3.18.45-4.92 1.9-.85.72-1.66 1.69-2.17 2.89-.5 1.2-.78 2.61-.56 4.06.09.72.3 1.45.62 2.14.31.7.74 1.37 1.28 1.96 1.05 1.21 2.56 2.08 4.23 2.47 1.68.35 3.42.19 4.9-.47.75-.31 1.42-.73 2.01-1.23.59-.49 1.1-1.06 1.5-1.68.83-1.22 1.19-2.61 1.27-3.9.07-1.3-.24-2.51-.7-3.52a7.965 7.965 0 0 0-3.62-3.77c-1.15-.58-1.87-.7-1.85-.76z"/><path class="st0" d="M567.06 152.85c-.01 0-.01-.09-.02-.28 0-.21-.01-.49-.02-.85-.01-.78-.03-1.9-.05-3.36l.06.07c-1.9-.41-4.4-.94-7.42-1.58l.13-.06c-.59 1.23-1.25 2.6-1.95 4.06l-.04.07h-.08c-1.54.06-3.18.32-4.84.84l-.09.03-.07-.06c-1.02-.98-2.12-2.05-3.26-3.16l.21.02c-2.02 1.26-4.16 2.59-6.4 3.99l.07-.21c.48 1.31 1.01 2.75 1.55 4.23l.04.11-.08.08a17.843 17.843 0 0 0-2.81 3.92l-.06.11h-.12c-1.42 0-2.99.01-4.59.02l.2-.16c-.52 2.28-1.08 4.73-1.65 7.25l-.12-.24c1.29.6 2.71 1.26 4.14 1.92l.12.06.01.13c.06 1.5.33 3.13.84 4.71l.04.13-.1.1c-1.01 1-2.12 2.08-3.24 3.18l.03-.28c1.29 1.99 2.67 4.11 4.07 6.27l-.27-.09c1.37-.48 2.84-.99 4.32-1.51l.13-.05.1.09c1.14 1.03 2.5 1.99 3.99 2.75.06.09-.12-.2.13.2v4.49l-.18-.22c2.5.55 4.97 1.09 7.41 1.63l-.26.12c.66-1.36 1.32-2.71 1.97-4.05l.06-.12.14-.01c1.65-.06 3.28-.34 4.82-.82l.13-.04.1.09c1.1 1.07 2.18 2.13 3.25 3.17l-.28-.03c2.19-1.35 4.33-2.68 6.42-3.97l-.09.25c-.52-1.44-1.03-2.84-1.53-4.23l-.04-.12.09-.09c1.14-1.2 2.08-2.52 2.82-3.91l.06-.11h4.74l-.19.15c.59-2.55 1.15-4.95 1.68-7.24l.1.2c-1.46-.68-2.82-1.32-4.14-1.93l-.09-.04v-.1c-.07-1.71-.37-3.29-.83-4.73l-.03-.09.07-.06c1.18-1.15 2.24-2.19 3.25-3.17l-.02.17c-1.56-2.44-2.89-4.51-4.03-6.29l.12.04c-1.73.59-3.15 1.07-4.33 1.48l-.04.01-.03-.03a19.192 19.192 0 0 0-2.95-2.22c-.34-.2-.6-.35-.79-.46-.2-.12-.28-.17-.28-.17.01 0 .1.04.28.12.18.09.45.23.81.43.71.41 1.76 1.07 3.01 2.18l-.08-.02c1.18-.42 2.59-.92 4.31-1.53l.08-.03.05.07c1.16 1.77 2.51 3.83 4.09 6.25l.06.09-.08.08c-1 .99-2.05 2.03-3.23 3.19l.04-.15c.48 1.46.8 3.06.87 4.81l-.1-.14c1.32.61 2.69 1.24 4.15 1.91l.13.06-.03.14c-.52 2.29-1.07 4.7-1.65 7.25l-.03.15h-.16c-1.49.01-3.01.01-4.59.02l.18-.11c-.75 1.42-1.72 2.78-2.88 4l.04-.21c.51 1.38 1.02 2.79 1.54 4.23l.06.16-.15.09c-2.08 1.29-4.22 2.62-6.41 3.98l-.15.09-.13-.12-3.25-3.16.23.05c-1.58.49-3.24.78-4.94.84l.2-.13c-.65 1.34-1.3 2.69-1.97 4.05l-.08.16-.18-.04c-2.43-.53-4.91-1.07-7.41-1.62l-.18-.04v-.18c0-.74 0-1.49-.01-2.24V185.29c.25.4.07.11.12.2-1.53-.78-2.93-1.76-4.09-2.82l.24.05c-1.48.52-2.96 1.03-4.32 1.5l-.17.06-.1-.15c-1.4-2.16-2.77-4.29-4.06-6.27l-.1-.15.13-.13c1.12-1.1 2.23-2.18 3.24-3.18l-.06.22c-.52-1.62-.8-3.29-.86-4.83l.13.19c-1.43-.67-2.85-1.33-4.14-1.93l-.16-.07.04-.17c.58-2.51 1.15-4.97 1.67-7.24l.04-.16h4.76l-.18.11c.81-1.52 1.83-2.88 2.89-3.99l-.04.19c-.53-1.48-1.06-2.92-1.53-4.23l-.05-.14.12-.08c2.25-1.39 4.4-2.71 6.42-3.96l.11-.07.09.09c1.14 1.11 2.23 2.19 3.24 3.18l-.15-.04c1.69-.51 3.35-.77 4.92-.82l-.12.08c.71-1.46 1.38-2.82 1.98-4.04l.04-.08.09.02c3.01.68 5.5 1.24 7.4 1.67l.06.01v.06c-.01 1.44-.02 2.56-.03 3.33-.01.37-.01.65-.02.86.02.18.02.28.01.29zM611.97 514.94s-.01-.47-.02-1.37c-.01-.91-.01-2.23-.02-3.97-.01-3.49-.03-8.6-.05-15.16-.03-13.12-.07-32.03-.11-55.24l.21.21c-35.91.02-82.75.04-133.83.06h-.01l.27-.27c-.01 26.8-.01 52.41-.02 75.73l-.25-.25c39.19.05 72.62.09 96.26.12 11.83.03 21.21.05 27.64.07 3.21.01 5.69.02 7.37.03.83.01 1.47.01 1.91.02.42.01.65.02.65.02s-.21.01-.63.01c-.43 0-1.06.01-1.88.01-1.67.01-4.13.02-7.32.03-6.42.02-15.78.04-27.59.07-23.68.03-57.17.07-96.43.12h-.25v-.25c-.01-23.32-.01-48.93-.02-75.73v-.27h.28c51.08.02 97.92.04 133.83.06h.21v.21c-.05 23.27-.09 42.22-.11 55.37-.02 6.54-.04 11.64-.05 15.11-.01 1.72-.02 3.03-.02 3.93-.01.89-.02 1.33-.02 1.33z"/><path class="st0" d="M612.02 448.38c0 .15-29.94.27-66.86.27-36.93 0-66.86-.12-66.86-.27 0-.15 29.93-.27 66.86-.27 36.92 0 66.86.12 66.86.27z"/><path class="st1" d="M489.72 460.86h41.34v40.43h-41.34z"/><path class="st0" d="M602.26 467.53c0 .02-.21.04-.61.05-.46.01-1.04.03-1.74.05-1.59.02-3.76.05-6.41.09-5.48.02-12.93.05-21.16.08-8.23-.03-15.68-.06-21.16-.08-2.65-.04-4.82-.06-6.41-.09-.71-.02-1.28-.04-1.74-.05-.4-.02-.61-.04-.61-.05 0-.02.21-.04.61-.05.46-.01 1.04-.03 1.74-.05 1.59-.02 3.76-.05 6.41-.08 5.48-.02 12.93-.05 21.16-.08 8.23.03 15.67.06 21.16.08 2.65.04 4.82.06 6.41.08.71.02 1.28.04 1.74.05.4.02.61.03.61.05zM603.59 476.56c0 .02-.21.04-.62.05-.47.01-1.06.03-1.78.05-1.62.02-3.84.05-6.56.09-5.6.02-13.21.05-21.63.08-8.41-.03-16.03-.06-21.63-.08-2.71-.04-4.93-.06-6.55-.09-.72-.02-1.31-.04-1.78-.05-.41-.02-.62-.04-.62-.05 0-.02.21-.04.62-.05.47-.01 1.06-.03 1.78-.05 1.62-.02 3.84-.05 6.55-.09 5.6-.02 13.22-.05 21.63-.08 8.41.03 16.03.06 21.63.08 2.71.04 4.93.06 6.56.09.73.02 1.32.04 1.78.05.41.02.62.04.62.05zM603.59 485.6c0 .02-.21.04-.62.05-.47.01-1.06.03-1.78.05-1.62.02-3.84.05-6.56.08-5.6.02-13.21.05-21.63.08-8.41-.03-16.03-.06-21.63-.08-2.71-.04-4.93-.06-6.55-.08-.72-.02-1.31-.04-1.78-.05-.41-.02-.62-.04-.62-.05 0-.02.21-.04.62-.05.47-.01 1.06-.03 1.78-.05 1.62-.02 3.84-.05 6.55-.09 5.6-.02 13.22-.05 21.63-.08 8.41.03 16.03.06 21.63.08 2.71.04 4.93.06 6.56.09.73.02 1.32.04 1.78.05.41.01.62.03.62.05zM603.59 494.63c0 .02-.21.04-.62.05-.47.01-1.06.03-1.78.05-1.62.02-3.84.05-6.56.09-5.6.02-13.21.05-21.63.08-8.41-.03-16.03-.06-21.63-.08-2.71-.04-4.93-.06-6.55-.09-.72-.02-1.31-.04-1.78-.05-.41-.02-.62-.04-.62-.05 0-.02.21-.04.62-.05.47-.01 1.06-.03 1.78-.05 1.62-.02 3.84-.05 6.55-.09 5.6-.02 13.22-.05 21.63-.08 8.41.03 16.03.06 21.63.08 2.71.04 4.93.06 6.56.09.73.02 1.32.04 1.78.05.41.01.62.03.62.05z"/><ellipse class="st1" cx="224.95" cy="101.4" rx="55.62" ry="54.4"/><path class="st0" d="M250.21 103.08c0 .04-.7.09-1.97.13-1.39.03-3.21.06-5.41.11-4.59.06-10.98.1-18.19.12h-.36v-3.88c0-7.88.04-15.01.11-20.18.05-2.49.09-4.55.11-6.11.04-1.44.09-2.24.14-2.24.05 0 .1.8.14 2.24.03 1.56.07 3.63.11 6.11.07 5.16.11 12.3.11 20.18v3.53l-.36-.35c7.21.01 13.61.05 18.19.12 2.2.04 4.02.08 5.41.11 1.27.02 1.97.06 1.97.11zM224.82 55.94c.2 0 .36 2.05.36 4.57 0 2.52-.16 4.57-.36 4.57-.2 0-.36-2.05-.36-4.57 0-2.53.16-4.57.36-4.57zM250.16 63.28c.14.14-1.2 1.68-3 3.43-1.8 1.76-3.37 3.07-3.51 2.94-.14-.14 1.2-1.67 3-3.43 1.8-1.77 3.37-3.08 3.51-2.94zM264.98 79.11c.09.18-1.67 1.22-3.83 2.5s-3.92 2.34-4.04 2.18c-.12-.15 1.47-1.48 3.66-2.78 2.19-1.3 4.12-2.07 4.21-1.9zM273.66 102.61c0 .19-2.85.35-6.37.35s-6.37-.16-6.37-.35c0-.19 2.85-.35 6.37-.35 3.52-.01 6.37.15 6.37.35zM185.31 101.77c0 .19-2.69.35-6.02.35-3.32 0-6.02-.16-6.02-.35 0-.19 2.69-.35 6.02-.35 3.33 0 6.02.16 6.02.35zM191.56 119.27c.13.15-1.91 1.95-4.55 4.03-2.64 2.08-4.88 3.64-5 3.49-.12-.16 1.92-1.96 4.55-4.03 2.63-2.08 4.87-3.64 5-3.49zM206.98 132.79c.17.12-1.34 2.39-3.09 5.25-1.76 2.85-3.1 5.22-3.28 5.14-.17-.08.89-2.61 2.67-5.5 1.75-2.89 3.54-5 3.7-4.89zM224.82 150.24c-.2 0-.36-2.79-.36-6.23 0-3.44.16-6.23.36-6.23.2 0 .36 2.79.36 6.23 0 3.44-.17 6.23-.36 6.23zM252.28 141.94c-.1.16-2.59-1.25-5.25-3.52-2.67-2.27-4.43-4.49-4.28-4.61.16-.14 2.13 1.85 4.76 4.08 2.61 2.24 4.88 3.88 4.77 4.05zM265.17 128.36c-.14.14-2.03-1.49-4.22-3.63-2.19-2.14-3.85-3.99-3.71-4.13.14-.14 2.03 1.49 4.22 3.63 2.19 2.15 3.85 3.99 3.71 4.13zM190.98 85.02c-.14.14-1.81-1.27-3.72-3.14-1.92-1.87-3.36-3.5-3.21-3.64.14-.14 1.81 1.27 3.72 3.14 1.91 1.87 3.35 3.5 3.21 3.64zM206.88 68.63c-.14.14-1.78-1.24-3.66-3.07-1.88-1.83-3.29-3.43-3.15-3.57.14-.14 1.78 1.24 3.66 3.07 1.88 1.84 3.29 3.43 3.15 3.57z"/><g class="st2"><path d="M527.5 73.53c2.94 1.5 5.62 3.36 8 5.51l8.55-2.98 8.04 12.41-6.4 6.29c.97 3.02 1.55 6.19 1.68 9.43l8.2 3.81-3.29 14.33-9.07.02c-1.53 2.88-3.44 5.5-5.64 7.83l3.04 8.36-12.68 7.86-6.43-6.26c-3.09.95-6.33 1.51-9.64 1.64l-3.89 8.02-14.65-3.21-.02-8.87c-2.94-1.5-5.62-3.36-8-5.51l-8.55 2.98-8.04-12.41 6.41-6.29c-.97-3.02-1.55-6.19-1.68-9.43l-8.19-3.81 3.29-14.33 9.07-.02c1.53-2.88 3.44-5.5 5.64-7.83l-3.04-8.36 12.68-7.86 6.43 6.26c3.09-.95 6.33-1.52 9.64-1.64l3.89-8.01 14.65 3.21v8.86zM514.58 90.4c-8.68-1.9-17.3 3.43-19.24 11.92-1.95 8.49 3.51 16.92 12.19 18.82 8.68 1.9 17.3-3.43 19.24-11.92 1.95-8.49-3.51-16.92-12.19-18.82z" style="fill-rule:evenodd;clip-rule:evenodd;fill:#ebebeb"/></g><g><path class="st1" d="M96.9 199.6h95.07s-8.41-14.96-32.88-12.79c-23.37 2.08-24.56-7.36-36.44-8.52-11.89-1.16-21.79 7.75-25.75 21.31z"/></g><g><path class="st1" d="M302.66 368.66h76.95s-6.8-12.11-26.61-10.35c-18.92 1.68-19.88-5.96-29.5-6.9-9.62-.94-17.63 6.27-20.84 17.25z"/></g><g><path class="st4" d="M632.13 554.38c0 .18-132.44.33-295.78.33-163.39 0-295.81-.15-295.81-.33 0-.18 132.41-.33 295.81-.33 163.34 0 295.78.15 295.78.33z"/></g><g><path class="st5" d="M413.33 177.65h186.72v122.28H413.33z"/><path class="st6" d="M600.06 299.93s-.02-.76-.03-2.22c-.01-1.47-.02-3.63-.03-6.45-.02-5.66-.04-13.96-.07-24.59-.03-21.24-.08-51.78-.14-89.01l.27.26c-51.45.02-116.36.04-186.71.07h-.01l.33-.33-.03 122.28-.31-.3c54.97.06 101.61.11 134.52.15 16.47.03 29.5.06 38.43.08 4.46.02 7.89.03 10.22.04 1.15.01 2.03.01 2.64.02.6-.01.92 0 .92 0s-.29.01-.87.02c-.6 0-1.47.01-2.6.02-2.32.01-5.73.02-10.16.04-8.91.02-21.92.05-38.36.08-32.96.04-79.67.09-134.72.15h-.31v-.3l-.03-122.28v-.33h.34c70.35.02 135.26.05 186.71.07h.27v.26c-.06 37.3-.11 67.89-.14 89.17-.03 10.61-.05 18.89-.07 24.53-.01 2.8-.02 4.94-.03 6.4l-.03 2.17z"/><path class="st6" d="M413.33 188.57c0-.18 41.77-.33 93.28-.33 51.53 0 93.29.15 93.29.33 0 .18-41.76.33-93.29.33-51.51-.01-93.28-.15-93.28-.33z"/><g class="st7"><path class="st6" d="M420.7 183.06c0 .81-.67 1.46-1.5 1.46s-1.5-.66-1.5-1.46c0-.81.67-1.46 1.5-1.46s1.5.65 1.5 1.46z"/></g><g class="st7"><path class="st6" d="M425.83 183.06c0 .81-.67 1.46-1.5 1.46s-1.5-.66-1.5-1.46c0-.81.67-1.46 1.5-1.46s1.5.65 1.5 1.46z"/></g><g class="st7"><path class="st6" d="M430.88 183.06c0 .81-.67 1.46-1.5 1.46s-1.5-.66-1.5-1.46c0-.81.67-1.46 1.5-1.46s1.5.65 1.5 1.46z"/></g><g class="st7"><path class="st6" d="M429.39 201.32h49.81v48.71h-49.81z"/></g><path class="st6" d="M574.45 215.09c0 .18-19.43.33-43.38.33-23.97 0-43.39-.15-43.39-.33s19.42-.33 43.39-.33c23.95 0 43.38.15 43.38.33zM574.45 224.14c0 .18-19.43.33-43.38.33-23.97 0-43.39-.15-43.39-.33 0-.18 19.42-.33 43.39-.33 23.95 0 43.38.15 43.38.33zM574.45 233.19c0 .18-19.43.33-43.38.33-23.97 0-43.39-.15-43.39-.33s19.42-.33 43.39-.33c23.95.01 43.38.15 43.38.33zM538.96 242.25c0 .05-.72.09-2.02.13-1.42.03-3.27.06-5.5.1-4.64.06-11.05.1-18.13.1-7.08 0-13.49-.04-18.13-.1-2.23-.04-4.08-.08-5.5-.1-1.3-.04-2.01-.08-2.01-.13s.72-.09 2.01-.13c1.42-.03 3.27-.06 5.5-.1 4.64-.06 11.05-.1 18.13-.1 7.08 0 13.49.04 18.13.1 2.23.04 4.08.08 5.5.1 1.3.04 2.02.08 2.02.13z"/><g class="st7"><path class="st6" d="M432.5 266.46h23.41v22.89H432.5z"/></g><g class="st7"><path class="st6" d="M474.95 266.46h23.41v22.89h-23.41z"/></g><g class="st7"><path class="st6" d="M517.4 266.46h23.41v22.89H517.4z"/></g><g class="st7"><path class="st6" d="M559.85 266.46h23.41v22.89h-23.41z"/></g></g><g><path class="st5" d="M71.85 221.71h166.34v66.08H71.85z"/><path class="st6" d="M238.19 287.79s-.01-.41-.02-1.18c0-.78-.01-1.93-.02-3.43-.01-3.02-.03-7.44-.05-13.15-.02-11.41-.06-27.9-.1-48.32l.18.18c-42.31.02-101.22.05-166.33.08h-.01l.26-.26c0 23.14-.01 45.48-.01 66.08l-.25-.25c48.2.05 89.75.09 119.26.12 14.77.03 26.52.05 34.6.07 4.03.01 7.14.02 9.26.03 1.05.01 1.85.01 2.4.02.54 0 .83.01.83.01s-.26.01-.79.02c-.54 0-1.33.01-2.37.02-2.1.01-5.2.02-9.21.03-8.06.02-19.8.04-34.54.07-29.56.03-71.17.07-119.43.12h-.25v-.25c0-20.6-.01-42.94-.01-66.08v-.26h.27c65.11.03 124.01.06 166.33.08h.19v.18c-.04 20.46-.08 37-.1 48.43-.02 5.69-.04 10.1-.05 13.11-.01 1.49-.02 2.62-.02 3.4-.01.74-.02 1.13-.02 1.13z"/><path class="st6" d="M72.01 230.62c0-.14 37.18-.26 83.03-.26 45.87 0 83.04.12 83.04.26s-37.17.26-83.04.26c-45.85-.01-83.03-.12-83.03-.26z"/><g class="st7"><path class="st6" d="M78.98 226.63c0 .65-.54 1.18-1.21 1.18-.67 0-1.21-.53-1.21-1.18 0-.65.54-1.18 1.21-1.18.67 0 1.21.53 1.21 1.18z"/></g><g class="st7"><path class="st6" d="M83.11 226.63c0 .65-.54 1.18-1.21 1.18-.67 0-1.21-.53-1.21-1.18 0-.65.54-1.18 1.21-1.18.67 0 1.21.53 1.21 1.18z"/></g><g class="st7"><path class="st6" d="M87.19 226.63c0 .65-.54 1.18-1.21 1.18-.67 0-1.21-.53-1.21-1.18 0-.65.54-1.18 1.21-1.18.67 0 1.21.53 1.21 1.18z"/></g><g class="st7"><path class="st6" d="M85.98 241.36h40.18v39.3H85.98z"/></g><g><path class="st6" d="M226.68 251.89c0 .14-20.67.26-46.17.26-25.51 0-46.18-.12-46.18-.26s20.67-.26 46.18-.26c25.49 0 46.17.12 46.17.26zM226.68 259.89c0 .14-20.67.26-46.17.26-25.51 0-46.18-.12-46.18-.26s20.67-.26 46.18-.26c25.49.01 46.17.12 46.17.26zM193.78 267.9c0 .02-.21.04-.6.05-.45.01-1.03.03-1.73.05-1.57.02-3.73.05-6.37.08-5.44.02-12.84.05-21.02.08-8.18-.03-15.58-.06-21.02-.08-2.64-.03-4.8-.06-6.37-.08-.71-.02-1.28-.04-1.73-.05-.4-.02-.6-.03-.6-.05 0-.02.21-.04.6-.05.45-.01 1.03-.03 1.73-.05 1.57-.02 3.73-.05 6.37-.08 5.44-.02 12.84-.05 21.02-.08 8.18.03 15.57.06 21.02.08 2.64.03 4.8.06 6.37.08.71.02 1.28.04 1.73.05.39.01.6.03.6.05z"/></g></g><path class="st1" d="M360.41 138.67c-2.79-1.82-6.62-.72-9.4 1.1-2.79 1.82-5.17 4.31-8.29 5.5-5.87 2.23-13.56-.41-18.12 3.83-2.89 2.69-3.19 7.11-5.4 10.37-3.72 5.48-12.66 7.54-13.43 14.08-.45 3.81 2.64 7.47 6.41 8.54 3.77 1.07 7.92-.06 11.18-2.18 3.82-2.48 6.82-6.31 11.17-7.72 4.45-1.44 9.93-.23 13.44-3.27s2.98-8.62 5.5-12.49c1.34-2.06 3.45-3.5 5.34-5.1 1.89-1.6 3.69-3.57 4.01-6 .31-2.44-.71-6.57-2.41-6.66"/><g><path class="st4" d="M287.99 405.72c.16-.09.68.41 1.16 1.13.49.72.76 1.39.6 1.49-.15.1-.67-.4-1.16-1.14-.49-.71-.76-1.38-.6-1.48zM282.48 394.38c.18-.06.86 1.19 1.53 2.78.67 1.6 1.08 2.95.91 3.03-.17.08-.85-1.17-1.53-2.79-.68-1.6-1.08-2.96-.91-3.02zM279.5 382.16c.18-.02.59 1.34.92 3.03.32 1.7.44 3.11.26 3.15-.18.04-.59-1.31-.92-3.03-.33-1.71-.44-3.12-.26-3.15zM279.05 369.61c.18.01.31 1.42.29 3.15-.02 1.73-.19 3.13-.38 3.14-.18.01-.31-1.4-.29-3.15.03-1.75.2-3.16.38-3.14zM281.13 357.21c.18.05.02 1.46-.35 3.14-.37 1.69-.82 3.03-1.01 3.01-.18-.03-.03-1.43.35-3.14.38-1.71.83-3.06 1.01-3.01zM285.75 345.49c.16.08-.29 1.43-1.01 3s-1.45 2.8-1.62 2.74c-.17-.06.28-1.41 1.01-3 .73-1.6 1.46-2.82 1.62-2.74zM292.83 335.02c.14.11-.59 1.33-1.65 2.72-1.05 1.39-2.04 2.42-2.18 2.34-.17-.11.57-1.32 1.64-2.73 1.07-1.4 2.05-2.45 2.19-2.33zM301.47 325.71c.13.13-.75 1.25-1.97 2.5-1.22 1.26-2.32 2.17-2.46 2.05s.75-1.24 1.97-2.5c1.23-1.26 2.33-2.18 2.46-2.05zM310.52 316.77c.13.13-.77 1.23-2.02 2.47-1.25 1.24-2.37 2.14-2.5 2.01-.13-.13.77-1.23 2.02-2.47 1.25-1.24 2.37-2.14 2.5-2.01zM318.97 307.29c.15.11-.65 1.29-1.78 2.64s-2.16 2.34-2.3 2.22c-.14-.12.66-1.3 1.78-2.64 1.12-1.33 2.15-2.33 2.3-2.22zM325.53 296.5c.17.07-.25 1.44-1.08 2.99-.82 1.56-1.71 2.69-1.87 2.6-.16-.1.46-1.36 1.27-2.9.82-1.53 1.51-2.76 1.68-2.69zM328.66 284.35c.18.01.23 1.44-.07 3.17-.29 1.73-.81 3.07-.99 3.03-.18-.05.04-1.43.33-3.13.29-1.7.54-3.08.73-3.07zM327.7 271.86c.18-.04.68 1.3.95 3.03.28 1.73.22 3.16.03 3.17-.19.01-.42-1.37-.7-3.07-.25-1.7-.46-3.09-.28-3.13zM322.65 260.36c.15-.1 1.09.99 1.94 2.54.85 1.55 1.26 2.92 1.1 2.99-.17.07-.85-1.16-1.69-2.68-.82-1.51-1.5-2.75-1.35-2.85zM313.68 251.44c.1-.15 1.4.52 2.78 1.65s2.28 2.26 2.15 2.38c-.14.13-1.23-.78-2.58-1.88-1.34-1.1-2.45-2-2.35-2.15zM302 246.34c.04-.17 1.5 0 3.19.57 1.7.57 2.96 1.3 2.88 1.46-.08.17-1.44-.29-3.1-.84-1.65-.56-3.01-1.01-2.97-1.19zM289.23 245.77c-.03-.17 1.38-.56 3.18-.65 1.8-.09 3.25.14 3.23.32-.01.18-1.44.24-3.2.33-1.75.08-3.18.18-3.21 0zM277.38 250.39c-.11-.14 1-1.09 2.59-1.93 1.59-.84 3.01-1.21 3.07-1.04.07.17-1.21.8-2.76 1.62-1.55.81-2.8 1.5-2.9 1.35zM268.55 259.43c-.16-.09.47-1.39 1.58-2.78 1.1-1.39 2.23-2.31 2.36-2.18.13.13-.76 1.23-1.83 2.58-1.08 1.35-1.95 2.47-2.11 2.38zM264.22 271.17c-.18-.02-.18-1.46.25-3.17.42-1.71 1.09-3 1.26-2.93.18.07-.2 1.42-.61 3.09-.42 1.66-.71 3.03-.9 3.01zM265.75 283.55c-.17.06-.83-1.22-1.26-2.93-.43-1.71-.44-3.15-.26-3.17.19-.02.49 1.35.91 3.01.41 1.67.78 3.02.61 3.09zM272.26 294.32c-.14.12-1.2-.86-2.25-2.29-1.05-1.42-1.65-2.73-1.5-2.82.16-.09 1.01 1.04 2.04 2.44 1.03 1.39 1.86 2.55 1.71 2.67zM281.73 302.79c-.1.15-1.38-.55-2.77-1.65-1.39-1.1-2.36-2.17-2.23-2.3.13-.13 1.28.71 2.65 1.79 1.37 1.09 2.46 2.01 2.35 2.16zM292.87 309.04c-.07.17-1.42-.34-3.02-1.13-1.59-.79-2.81-1.56-2.71-1.72.09-.16 1.44.35 3.02 1.13 1.57.79 2.78 1.56 2.71 1.72zM305.1 312.85c-.03.18-1.49.07-3.22-.37-1.73-.43-3.06-1.02-3.01-1.19.06-.17 1.46.13 3.17.55 1.71.43 3.09.83 3.06 1.01zM317.9 313.49c.02.18-1.41.48-3.2.51-1.79.04-3.23-.21-3.22-.38.01-.18 1.45-.24 3.21-.27 1.75-.03 3.19-.04 3.21.14zM330.27 310.26c.08.16-1.18.9-2.86 1.49-1.69.6-3.14.8-3.18.63-.05-.18 1.3-.66 2.96-1.25 1.65-.57 3-1.04 3.08-.87zM340.99 303.39c.12.13-.85 1.2-2.28 2.26-1.42 1.07-2.73 1.71-2.82 1.56-.1-.15 1.02-1.03 2.42-2.08 1.4-1.04 2.56-1.87 2.68-1.74zM349.36 293.88c.15.1-.5 1.37-1.58 2.77-1.07 1.4-2.15 2.37-2.28 2.26-.14-.12.69-1.27 1.75-2.65s1.95-2.48 2.11-2.38zM354.93 282.58c.17.05-.12 1.45-.79 3.08-.67 1.63-1.45 2.83-1.61 2.75-.17-.08.33-1.4.99-3 .65-1.6 1.23-2.89 1.41-2.83zM357.41 270.26c.18.01.23 1.44-.01 3.17-.24 1.73-.68 3.09-.86 3.06-.18-.04-.04-1.44.2-3.15.24-1.7.49-3.09.67-3.08zM357.08 257.71c.18-.02.44 1.37.58 3.11.14 1.74.1 3.16-.09 3.16s-.45-1.39-.58-3.11c-.13-1.72-.09-3.14.09-3.16zM354.29 245.44c.18-.06.7 1.27 1.16 2.95.47 1.69.7 3.08.52 3.12-.18.04-.7-1.28-1.16-2.95-.46-1.67-.69-3.07-.52-3.12zM349.37 233.82c.16-.08.94 1.12 1.71 2.69.72 1.6 1.17 2.95 1 3.02-.17.07-.89-1.16-1.6-2.74-.77-1.56-1.28-2.89-1.11-2.97zM343.05 222.87c.16-.09 1.02 1.05 1.92 2.55.9 1.5 1.5 2.79 1.34 2.88-.16.09-1.02-1.05-1.92-2.55-.9-1.5-1.5-2.79-1.34-2.88zM336.67 211.95c.16-.08.99 1.08 1.85 2.59.86 1.52 1.42 2.82 1.26 2.91-.16.09-.99-1.07-1.85-2.59-.86-1.52-1.43-2.83-1.26-2.91zM331.65 200.39c.18-.05.82 1.22 1.43 2.83.62 1.62.98 2.98.81 3.06-.17.07-.81-1.19-1.43-2.83-.63-1.64-.99-3.01-.81-3.06zM329.46 188.03c.19-.01.38 1.39.57 3.1.18 1.71.29 3.12.11 3.15-.18.03-.59-1.34-.78-3.08-.19-1.74-.08-3.17.1-3.17zM330.52 175.52c.18.04.02 1.44-.23 3.14-.26 1.71-.51 3.09-.7 3.08-.18-.01-.23-1.44.03-3.17s.72-3.09.9-3.05zM334.71 163.66c.17.08-.35 1.4-1.02 2.99-.68 1.59-1.28 2.87-1.45 2.81-.17-.06.14-1.45.84-3.06.68-1.62 1.47-2.82 1.63-2.74zM341.88 153.25c.14.12-.71 1.26-1.79 2.62s-1.99 2.45-2.15 2.35c-.15-.1.52-1.36 1.62-2.75 1.1-1.38 2.18-2.34 2.32-2.22zM351.52 144.98c.1.15-1.01 1.05-2.4 2.1-1.4 1.05-2.56 1.88-2.69 1.74-.12-.13.86-1.19 2.28-2.26 1.42-1.07 2.71-1.73 2.81-1.58zM362.96 139.29c.06.17-1.24.77-2.86 1.46-1.62.68-2.96 1.2-3.04 1.04-.08-.16 1.13-.94 2.78-1.64 1.64-.7 3.06-1.03 3.12-.86zM372.28 136.99c.03.18-.65.45-1.52.61-.87.16-1.6.14-1.64-.04-.04-.18.64-.45 1.52-.61.88-.16 1.62-.14 1.64.04z"/></g><g><path class="st6" d="M398.51 99.97s15.1-10.53 35.99-3.73c0 0 1.72 16.91-15.04 30.37"/><path class="st6" d="M350.92 131.23c.64.94 17.02 26.7 17.02 26.7l49.19-29.64c8.59-5.18 10.81-16.43 4.8-24.36-5.48-7.23-15.79-8.97-23.43-3.96l-47.58 31.26z"/><path class="st4" d="m367.95 157.93-1.1 18.12s31.88-15.1 23.92-31.87l-22.82 13.75zM373.71 116.26s-21.61-9.33-39.41 4.35l16.63 10.61 22.78-14.96zM373.56 131.24l-30.76 18.82s1.06 3.24 1.88 2.97c.69-.23 23.81-13.58 31.3-17.91 1.23-.71 1.51-2.31.6-3.39-.73-.89-2.03-1.1-3.02-.49z"/><ellipse class="st8" cx="401.89" cy="116.98" rx="9.85" ry="9.63"/><path class="st4" d="M411.74 116.98c-.08 0-.04-.86-.43-2.32a9.558 9.558 0 0 0-3.6-5.15c-1.09-.79-2.47-1.46-4.05-1.72-1.57-.25-3.34-.2-5.02.43a9.4 9.4 0 0 0-4.42 3.26c-1.17 1.53-1.83 3.48-1.85 5.5.02 2.02.68 3.98 1.85 5.5a9.4 9.4 0 0 0 4.42 3.26c1.68.63 3.45.69 5.02.43 1.58-.26 2.95-.93 4.05-1.72a9.648 9.648 0 0 0 3.6-5.15c.4-1.47.35-2.33.43-2.32.02 0 .03.21.04.62.01.41-.04 1.01-.22 1.76-.33 1.49-1.28 3.71-3.56 5.46-1.13.85-2.57 1.58-4.23 1.89-1.66.29-3.53.26-5.33-.4-1.8-.62-3.51-1.8-4.74-3.45-1.26-1.63-1.97-3.72-1.99-5.88.02-2.16.73-4.26 1.99-5.88 1.22-1.65 2.94-2.83 4.74-3.45 1.8-.65 3.67-.69 5.33-.4 1.67.3 3.1 1.04 4.23 1.89 2.28 1.75 3.24 3.97 3.56 5.46.17.76.23 1.36.22 1.76 0 .4-.02.62-.04.62zM423.73 123.4c-.13.01-.28-1.87-1.03-4.8-.37-1.47-.94-3.17-1.71-5.02-.8-1.83-1.81-3.79-3.08-5.73a40.447 40.447 0 0 0-4.07-5.1c-1.4-1.44-2.76-2.66-3.97-3.59-2.42-1.88-4.11-2.78-4.05-2.89.02-.04.46.16 1.23.57.39.2.85.45 1.37.79.52.33 1.13.69 1.74 1.17 1.27.9 2.68 2.1 4.13 3.54 1.42 1.47 2.87 3.2 4.18 5.16 1.29 1.97 2.3 3.98 3.09 5.85.75 1.89 1.29 3.64 1.6 5.14.19.74.27 1.43.37 2.03.11.6.15 1.12.17 1.55.07.85.08 1.32.03 1.33z"/><g><path class="st4" d="M421.08 124.78c-.13.01-.28-1.9-1.05-4.88-.37-1.49-.96-3.23-1.74-5.11-.81-1.86-1.84-3.86-3.12-5.83-1.3-1.96-2.73-3.71-4.12-5.21-1.42-1.48-2.79-2.72-4.02-3.68-2.45-1.92-4.16-2.86-4.1-2.97.02-.04.46.17 1.24.59.39.2.87.47 1.39.82.52.34 1.14.71 1.76 1.2 1.28.92 2.71 2.15 4.18 3.63 1.44 1.5 2.91 3.27 4.23 5.26 1.3 2.01 2.33 4.05 3.13 5.96.76 1.92 1.31 3.7 1.63 5.23.2.75.28 1.46.38 2.06.11.61.16 1.14.18 1.57.06.88.08 1.36.03 1.36z"/></g></g><g><path class="st6" d="M120.21 524.39c-1.1-4.27 1.78-8.54 5.01-11.62 3.22-3.08 7.08-5.83 8.77-9.92 2.74-6.62-.84-15.23 3.8-20.73 2.73-3.24 7.61-4.3 10.03-7.77 1.27-1.82 1.7-4.06 2.2-6.2 2.6-10.95 8.26-21.18 16.22-29.29.49 9.76-1.77 19.65-6.46 28.28-1.89 3.47-4.2 6.85-4.84 10.73-1.04 6.3 2.52 12.82.9 19-1.85 7.07-10.01 11.76-10.44 19.05-.36 6.16 5.1 11.6 4.65 17.75-.19 2.62-1.45 5.05-2.85 7.29-4.92 7.89-12.11 13.31-22.95 13.07l-13.29.38 9.25-30.02z"/><path d="M120.21 524.39c-1.1-4.27 1.78-8.54 5.01-11.62 3.22-3.08 7.08-5.83 8.77-9.92 2.74-6.62-.84-15.23 3.8-20.73 2.73-3.24 7.61-4.3 10.03-7.77 1.27-1.82 1.7-4.06 2.2-6.2 2.6-10.95 8.26-21.18 16.22-29.29.49 9.76-1.77 19.65-6.46 28.28-1.89 3.47-4.2 6.85-4.84 10.73-1.04 6.3 2.52 12.82.9 19-1.85 7.07-10.01 11.76-10.44 19.05-.36 6.16 5.1 11.6 4.65 17.75-.19 2.62-1.45 5.05-2.85 7.29-4.92 7.89-12.11 13.31-22.95 13.07l-13.29.38 9.25-30.02z" class="st7"/><path class="st4" d="M108.28 554.74s-1.27.28-3.66-.1c-1.19-.18-2.65-.49-4.31-1.09-1.65-.6-3.52-1.45-5.32-2.89-.86-.74-1.72-1.66-2.18-2.87-.45-1.21-.53-2.53-.6-3.89-.06-1.36-.06-2.77-.29-4.21-.22-1.43-.78-2.84-1.6-4.19-1.55-2.7-4.14-5.26-4.96-8.92-.89-3.6-.21-7.49.43-11.39.64-3.89 1.26-8.14-.24-12.21-1.4-4.07-4.29-7.76-5.72-12.35-1.42-4.64-.72-9.61-1-14.52-.13-2.47-.6-4.93-1.69-7.22-1.06-2.31-2.54-4.48-3.69-6.91-2.33-4.91-2.71-10.46-3.33-15.9-.3-2.74-.6-5.51-.9-8.31-.3-2.81-.54-5.61-1.43-8.32-.8-2.73-1.97-5.37-3.13-8.06-.57-1.35-1.17-2.71-1.52-4.21-.25-1.53-.32-2.97-.4-4.47-.13-2.98.01-6 .41-8.99.38-3 .95-5.97 1.3-8.97l.06-.52.07-.6.54.27c2.84 1.41 5.26 3.5 7.12 5.94 1.89 2.43 3.26 5.16 4.35 7.94 2.19 5.6 2.95 11.45 4.04 17.04 1.06 5.59 2.47 11.09 5.37 15.75 1.44 2.32 3.19 4.44 4.72 6.71 1.52 2.25 2.86 4.72 3.25 7.42.75 5.5-2.37 10.31-1.75 15.18.22 2.42 1.19 4.69 2.38 6.76 1.19 2.08 2.6 4.02 3.94 5.96 1.33 1.94 2.6 3.91 3.53 6.01.95 2.1 1.46 4.34 1.59 6.52.3 4.38-.36 8.54-.06 12.46.25 3.93 1.64 7.5 3.22 10.7 1.59 3.21 3.36 6.11 4.84 8.92.75 1.4 1.43 2.78 1.99 4.15.59 1.37.88 2.78 1.14 4.11.42 2.7.36 5.21.06 7.42-.6 4.45-2.32 7.64-3.86 9.44-.35.48-.76.82-1.08 1.13-.31.33-.62.55-.88.72-.48.4-.75.56-.75.56-.06-.07 1.1-.66 2.59-2.47 1.47-1.8 3.11-4.98 3.66-9.37.28-2.19.31-4.66-.13-7.31-.27-1.31-.56-2.69-1.15-4.02-.56-1.34-1.25-2.71-2-4.1-1.49-2.79-3.28-5.68-4.91-8.9-1.61-3.21-3.06-6.85-3.33-10.89-.33-4.01.32-8.18 0-12.46a18.01 18.01 0 0 0-1.56-6.3c-.91-2.04-2.16-3.97-3.49-5.89-1.33-1.93-2.76-3.87-3.98-6-1.23-2.11-2.26-4.47-2.49-7.03-.61-5.19 2.49-10.03 1.72-15.14-.37-2.53-1.64-4.89-3.14-7.1-1.5-2.22-3.26-4.35-4.75-6.73-2.99-4.79-4.42-10.4-5.49-16.01-1.1-5.62-1.86-11.42-4.01-16.9-1.07-2.72-2.41-5.39-4.23-7.74-1.8-2.36-4.11-4.35-6.82-5.7l.61-.33c-.02.16-.04.34-.06.52-.35 3.04-.92 6.01-1.3 8.98-.39 2.96-.53 5.92-.4 8.86.08 1.45.16 2.97.38 4.34.32 1.37.9 2.72 1.47 4.06 1.15 2.68 2.34 5.36 3.16 8.15.91 2.77 1.15 5.68 1.45 8.46.3 2.8.6 5.57.89 8.31.6 5.46.99 10.92 3.23 15.66 1.11 2.36 2.58 4.54 3.68 6.92 1.13 2.38 1.62 4.98 1.74 7.49.26 5.02-.44 9.91.93 14.36 1.35 4.43 4.23 8.13 5.67 12.33 1.54 4.25.87 8.63.21 12.51-.66 3.91-1.33 7.71-.49 11.17.75 3.49 3.26 6.03 4.84 8.81.82 1.38 1.41 2.87 1.62 4.35.22 1.48.2 2.91.25 4.26.06 1.34.13 2.65.54 3.78.41 1.12 1.22 2.02 2.04 2.75 1.73 1.41 3.57 2.28 5.19 2.9 1.63.61 3.08.95 4.25 1.15 1.18.22 2.09.25 2.7.27.59-.01.91 0 .91 0z"/><path class="st4" d="M67.19 401.43c.01 0 .06.13.13.39.08.31.17.7.29 1.17.25 1.02.56 2.57 1.05 4.5.51 1.93 1.7 4.11 2.72 6.8a95.36 95.36 0 0 1 3.1 9.23c.99 3.47 1.87 7.32 2.78 11.45.94 4.12 1.89 8.54 4.18 12.71 1.08 2.12 2.29 4.26 3.25 6.6.98 2.34 1.51 4.9 1.87 7.47.61 5.15 1.54 10.38 2.77 15.74 2.6 10.66 5.08 20.82 7.34 30.07 2.31 9.22 4.4 17.52 6.15 24.52 1.71 6.94 3.1 12.57 4.08 16.55.45 1.91.81 3.41 1.07 4.51.1.48.19.86.26 1.18.05.27.07.4.06.41-.01 0-.06-.13-.14-.39-.09-.31-.2-.69-.34-1.16-.3-1.09-.71-2.58-1.22-4.47-1.04-3.96-2.52-9.58-4.34-16.49-1.81-6.99-3.95-15.28-6.33-24.48-2.28-9.25-4.78-19.41-7.41-30.08-1.23-5.35-2.17-10.68-2.77-15.8-.35-2.55-.85-5.01-1.8-7.29-.93-2.28-2.12-4.41-3.2-6.55-2.31-4.25-3.26-8.81-4.17-12.91-.89-4.14-1.72-7.98-2.67-11.44-.94-3.47-1.96-6.55-2.97-9.22-.96-2.68-2.12-4.89-2.59-6.88-.45-1.98-.69-3.51-.9-4.55-.08-.48-.15-.87-.2-1.19-.05-.26-.06-.4-.05-.4z"/><g><path class="st6" d="M105.93 554.77c-8.65-5.09-11.05-20.42-7.38-29.62 3.67-9.2 10.06-17.58 11.09-27.4.79-7.55-1.69-15.32.15-22.69 2.49-9.95 12.48-17.61 12.42-27.86-.03-5.75-3.34-11.17-3.04-16.91.37-7.04 5.93-12.6 9.39-18.78 5.29-9.47 5.7-20.69 7.56-31.33 1.85-10.64 6.07-22.02 15.75-27.2 1.37 9.05 3.77 15.25 2.93 27.49-.3 4.4-5.57 12.79-6.34 22.42-.46 5.76-.79 11.53-1.18 17.29-.38 5.61-.79 11.32-2.87 16.56-1.6 4.01-4.15 7.65-5.35 11.8-2.25 7.8.6 16.28-1.23 24.18-1.54 6.7-6.32 12.44-7.33 19.24-1.42 9.55 4.85 19.51 1.56 28.6-1.63 4.51-5.46 8.12-6.56 12.79-.86 3.62.03 7.46-.75 11.09-1.26 5.86-12.72 10.35-18.82 9.95"/><path class="st4" d="M149.43 361.94c.01 0 0 .18-.04.51-.05.38-.12.87-.2 1.48-.21 1.3-.44 3.22-.91 5.7-.5 2.49-1.83 5.29-2.9 8.67a123.85 123.85 0 0 0-3.25 11.6c-1.02 4.35-1.87 9.16-2.77 14.35-.93 5.14-1.88 10.83-4.54 16.21-1.23 2.71-2.61 5.41-3.66 8.3-1.07 2.88-1.57 5.97-1.88 9.16-.49 6.4-1.4 13.05-2.66 19.76-2.74 13.38-5.34 26.12-7.71 37.72-2.5 11.55-4.74 21.96-6.64 30.72-1.91 8.7-3.46 15.75-4.55 20.7-.55 2.4-.97 4.28-1.28 5.62-.15.6-.26 1.08-.35 1.46-.08.33-.13.49-.15.49-.01 0 .01-.17.06-.51.07-.38.16-.86.27-1.47.27-1.35.64-3.24 1.12-5.65 1.02-4.96 2.48-12.03 4.28-20.75 1.84-8.77 4.03-19.19 6.46-30.76l7.64-37.71c1.26-6.71 2.17-13.27 2.67-19.69.32-3.2.84-6.4 1.95-9.34 1.07-2.95 2.47-5.67 3.71-8.35 2.65-5.31 3.6-10.86 4.56-16.02.93-5.17 1.82-10 2.88-14.36 1.04-4.36 2.21-8.25 3.39-11.62 1.12-3.39 2.49-6.16 3.03-8.59.51-2.43.8-4.37 1.06-5.65.12-.61.21-1.09.29-1.47.06-.34.1-.51.12-.51z"/></g></g><g><path class="st6" d="M532.29 356.95h8.96v28.3h-8.96zM548.78 345.3h8.96v39.95h-8.96zM566.33 339.86h8.96v45.39h-8.96zM583.88 334.12h8.96v51.13h-8.96z"/></g><g><path class="st4" d="M230.33 393.67s.73.05 1.93.59c1.17.53 2.82 1.69 3.84 3.8.5 1.04.84 2.3.78 3.67-.06 1.35-.43 2.82-1.29 4.11-.41.65-.94 1.26-1.57 1.78-.61.53-1.33.98-2.12 1.31-1.56.69-3.41.87-5.19.5-1.77-.4-3.36-1.34-4.47-2.62a7.566 7.566 0 0 1-1.34-2.07c-.33-.73-.55-1.5-.64-2.27-.22-1.53.09-3.01.63-4.26.55-1.26 1.41-2.25 2.31-2.99 1.84-1.48 3.84-1.84 5.13-1.83 1.31.02 2 .28 2 .28-.01.06-.71-.14-1.99-.09-1.26.05-3.18.45-4.92 1.9-.85.72-1.66 1.69-2.17 2.89-.5 1.2-.78 2.61-.56 4.06.09.72.3 1.45.62 2.14.31.7.74 1.37 1.28 1.96 1.05 1.21 2.56 2.09 4.23 2.47 1.68.35 3.42.19 4.9-.46.75-.31 1.42-.73 2.01-1.23.59-.49 1.1-1.06 1.5-1.68.83-1.22 1.19-2.61 1.27-3.9.07-1.3-.24-2.51-.7-3.52a7.965 7.965 0 0 0-3.62-3.77c-1.15-.6-1.87-.72-1.85-.77z"/><path class="st4" d="M236.86 385.15c-.01 0-.01-.09-.02-.28 0-.21-.01-.49-.02-.85-.01-.78-.03-1.9-.05-3.36l.06.07c-1.9-.41-4.4-.94-7.42-1.58l.13-.06c-.59 1.23-1.25 2.6-1.95 4.06l-.04.07h-.08c-1.54.06-3.18.32-4.84.84l-.09.03-.07-.06c-1.02-.98-2.12-2.05-3.26-3.16l.21.02c-2.02 1.26-4.16 2.59-6.4 3.99l.07-.21c.48 1.31 1.01 2.75 1.55 4.23l.04.11-.08.08a17.843 17.843 0 0 0-2.81 3.92l-.06.11h-.12c-1.42 0-2.99.01-4.59.02l.2-.16c-.52 2.28-1.08 4.73-1.65 7.25l-.12-.24c1.29.6 2.71 1.25 4.14 1.92l.12.06.01.13c.06 1.5.33 3.13.84 4.71l.04.13-.1.1c-1.01 1-2.12 2.08-3.24 3.18l.03-.28c1.29 1.99 2.67 4.11 4.07 6.27l-.27-.09c1.37-.48 2.84-.99 4.32-1.51l.13-.05.1.09c1.14 1.03 2.5 1.99 3.99 2.75.06.09-.12-.2.13.2v4.48l-.18-.22c2.5.55 4.97 1.09 7.41 1.63l-.26.12c.66-1.36 1.32-2.71 1.97-4.05l.06-.12.14-.01c1.65-.06 3.28-.34 4.82-.82l.13-.04.1.09c1.1 1.07 2.18 2.13 3.25 3.17l-.28-.03c2.19-1.35 4.33-2.68 6.42-3.97l-.09.25c-.52-1.44-1.03-2.84-1.53-4.23l-.04-.12.09-.09c1.14-1.2 2.08-2.52 2.82-3.91l.06-.11h4.71l-.19.15c.59-2.55 1.15-4.95 1.68-7.24l.1.2c-1.46-.68-2.82-1.32-4.14-1.93l-.09-.04v-.1c-.07-1.71-.37-3.29-.83-4.73l-.03-.09.07-.06c1.18-1.15 2.24-2.19 3.25-3.17l-.02.17c-1.56-2.44-2.89-4.51-4.03-6.29l.12.04c-1.73.59-3.15 1.07-4.33 1.48l-.04.01-.03-.03a19.192 19.192 0 0 0-2.95-2.22c-.34-.2-.6-.35-.79-.46-.17-.11-.26-.16-.25-.16.01 0 .1.04.28.12.18.09.45.23.81.43.71.41 1.76 1.07 3.01 2.18l-.08-.02c1.18-.42 2.59-.92 4.31-1.53l.08-.03.05.07c1.16 1.77 2.51 3.83 4.09 6.25l.06.09-.08.08c-1 .99-2.05 2.03-3.23 3.19l.04-.15c.48 1.46.8 3.06.87 4.81l-.1-.14c1.32.61 2.69 1.24 4.15 1.91l.13.06-.03.14c-.52 2.29-1.07 4.7-1.65 7.25l-.03.15h-.16c-1.49.01-3.01.01-4.59.02l.18-.11c-.75 1.42-1.72 2.78-2.88 4l.04-.21c.51 1.38 1.02 2.79 1.54 4.23l.06.16-.15.09c-2.08 1.29-4.22 2.62-6.41 3.98l-.15.09-.13-.12-3.25-3.16.23.05c-1.58.49-3.24.78-4.94.84l.2-.13c-.65 1.34-1.3 2.69-1.97 4.05l-.08.16-.18-.04c-2.43-.53-4.9-1.07-7.41-1.62l-.18-.04v-.18c0-.74 0-1.49-.01-2.24V417.58c.25.4.07.11.12.2-1.53-.78-2.93-1.76-4.09-2.82l.24.05c-1.48.52-2.96 1.03-4.32 1.5l-.17.06-.1-.15c-1.4-2.16-2.77-4.29-4.06-6.27l-.1-.15.13-.13c1.12-1.1 2.23-2.18 3.24-3.18l-.06.22c-.52-1.62-.8-3.29-.86-4.83l.13.19c-1.43-.67-2.85-1.33-4.14-1.93l-.16-.07.04-.17c.58-2.51 1.15-4.97 1.67-7.24l.04-.16h4.76l-.18.11c.81-1.52 1.83-2.88 2.89-3.99l-.04.19c-.53-1.48-1.06-2.92-1.53-4.23l-.05-.14.12-.08c2.25-1.39 4.4-2.71 6.42-3.96l.11-.07.09.09c1.14 1.11 2.23 2.19 3.24 3.18l-.15-.04c1.69-.51 3.35-.77 4.92-.82l-.12.08c.71-1.46 1.38-2.82 1.98-4.04l.04-.08.09.02c3.01.68 5.5 1.24 7.4 1.67l.06.01v.06c-.01 1.44-.02 2.56-.03 3.33-.01.37-.01.65-.02.86.02.19.01.29.01.3z"/></g><g><path class="st9" d="M222.87 328.76c1.64.84 3.14 1.88 4.47 3.08l4.78-1.66 4.49 6.93-3.58 3.52c.54 1.69.87 3.46.94 5.27l4.58 2.13-1.84 8.01-5.07.01c-.86 1.61-1.92 3.07-3.15 4.37l1.7 4.67-7.09 4.39-3.6-3.5c-1.73.53-3.54.85-5.39.92l-2.17 4.48-8.19-1.8-.01-4.96c-1.64-.84-3.14-1.88-4.47-3.08l-4.78 1.66-4.49-6.93 3.58-3.52c-.54-1.69-.87-3.46-.94-5.27l-4.58-2.13 1.84-8.01 5.07-.01c.86-1.61 1.92-3.08 3.15-4.38l-1.7-4.67 7.09-4.39 3.6 3.5c1.73-.53 3.54-.85 5.39-.92l2.17-4.48 8.19 1.8.01 4.97zm-7.22 9.42c-4.85-1.06-9.67 1.92-10.76 6.66-1.09 4.75 1.96 9.45 6.81 10.52 4.85 1.06 9.67-1.92 10.76-6.66 1.09-4.75-1.96-9.46-6.81-10.52z"/><g class="st2"><path class="st10" d="M222.87 328.76c1.64.84 3.14 1.88 4.47 3.08l4.78-1.66 4.49 6.93-3.58 3.52c.54 1.69.87 3.46.94 5.27l4.58 2.13-1.84 8.01-5.07.01c-.86 1.61-1.92 3.07-3.15 4.37l1.7 4.67-7.09 4.39-3.6-3.5c-1.73.53-3.54.85-5.39.92l-2.17 4.48-8.19-1.8-.01-4.96c-1.64-.84-3.14-1.88-4.47-3.08l-4.78 1.66-4.49-6.93 3.58-3.52c-.54-1.69-.87-3.46-.94-5.27l-4.58-2.13 1.84-8.01 5.07-.01c.86-1.61 1.92-3.08 3.15-4.38l-1.7-4.67 7.09-4.39 3.6 3.5c1.73-.53 3.54-.85 5.39-.92l2.17-4.48 8.19 1.8.01 4.97zm-7.22 9.42c-4.85-1.06-9.67 1.92-10.76 6.66-1.09 4.75 1.96 9.45 6.81 10.52 4.85 1.06 9.67-1.92 10.76-6.66 1.09-4.75-1.96-9.46-6.81-10.52z"/></g></g><g><path class="st9" d="M193.26 375.94c.96.49 1.83 1.09 2.6 1.79l2.78-.97 2.61 4.04-2.08 2.05c.32.98.5 2.01.55 3.07l2.67 1.24-1.07 4.66-2.95.01c-.5.94-1.12 1.79-1.83 2.55l.99 2.72-4.13 2.56-2.09-2.04c-1.01.31-2.06.49-3.14.53l-1.27 2.61-4.77-1.05-.01-2.89c-.96-.49-1.83-1.09-2.6-1.79l-2.78.97-2.61-4.04 2.08-2.05c-.32-.98-.5-2.01-.55-3.07L173 385.6l1.07-4.66 2.95-.01c.5-.94 1.12-1.79 1.83-2.55l-.99-2.72 4.13-2.56 2.09 2.04c1.01-.31 2.06-.49 3.14-.53l1.27-2.61 4.77 1.05v2.89zm-4.2 5.48c-2.82-.62-5.63 1.12-6.26 3.88-.63 2.76 1.14 5.5 3.97 6.12 2.82.62 5.63-1.12 6.26-3.88.63-2.76-1.15-5.5-3.97-6.12z"/><g class="st11"><path class="st10" d="M193.26 375.94c.96.49 1.83 1.09 2.6 1.79l2.78-.97 2.61 4.04-2.08 2.05c.32.98.5 2.01.55 3.07l2.67 1.24-1.07 4.66-2.95.01c-.5.94-1.12 1.79-1.83 2.55l.99 2.72-4.13 2.56-2.09-2.04c-1.01.31-2.06.49-3.14.53l-1.27 2.61-4.77-1.05-.01-2.89c-.96-.49-1.83-1.09-2.6-1.79l-2.78.97-2.61-4.04 2.08-2.05c-.32-.98-.5-2.01-.55-3.07L173 385.6l1.07-4.66 2.95-.01c.5-.94 1.12-1.79 1.83-2.55l-.99-2.72 4.13-2.56 2.09 2.04c1.01-.31 2.06-.49 3.14-.53l1.27-2.61 4.77 1.05v2.89zm-4.2 5.48c-2.82-.62-5.63 1.12-6.26 3.88-.63 2.76 1.14 5.5 3.97 6.12 2.82.62 5.63-1.12 6.26-3.88.63-2.76-1.15-5.5-3.97-6.12z"/></g></g><g><path class="st4" d="M477.11 329.68c5.41-1.37 9.43-6.79 9.08-12.25-.16-2.46-1.09-4.85-.99-7.32.17-3.82 2.76-7.05 4.71-10.37 1.95-3.32 3.26-7.69.99-10.8-1.48-2.02-4.08-2.93-5.87-4.69-1.75-1.72-2.58-4.11-3.52-6.36s-2.15-4.57-4.31-5.77c-2.16-1.2-5.47-.67-6.34 1.6M453.76 267.67c3.85-2.39 4.78-7.94 2.69-11.9-2.09-3.97-6.51-6.37-11.02-7.09-6.52-1.03-13.48 1.23-18.08 5.86-2.49 2.5-4.5 5.77-7.87 6.91-2.96 1.01-6.24.1-9.35.49-4.17.53-7.74 3.43-9.88 6.97-2.14 3.54-3.02 7.67-3.51 11.75-.45 3.75-.75 7.86-3.41 10.59-2.59 2.67-6.69 3.23-9.91 5.13-6.06 3.57-8.03 12.41-4.03 18.12 1.28 1.82 3.11 3.49 3.26 5.69.14 2.01-1.19 3.8-1.82 5.72-1.6 4.95 2.54 10.82 7.83 11.12 2.67.15 5.54-.87 7.93.3 2.38 1.16 3.27 3.97 4.79 6.1 2.99 4.2 9.26 5.78 13.96 3.53 1.97-.94 3.82-2.5 6.01-2.36 2.18.14 3.9 1.96 6.04 2.37 2.81.53 5.48-1.49 7.15-3.76 1.67-2.27 2.83-4.95 4.97-6.81 2.8-2.44 6.73-3.04 10.27-4.23 7.82-2.63 14.35-8.7 17.44-16.2 3.09-7.5 2.69-16.3-1.08-23.5"/><path class="st12" d="M462.22 272.62c3.18.34 5.56 2.99 5.49 6.12l-3.67 81.29c-.15 9.6-14.5 15-25.01 14.76-10.61-.24-10.96-5.33-11.09-14.47-.22-15.26-.2-20.99-.21-20.9 0 0-13.41-2.21-16.15-19.33-1.36-8.51-.89-22.47-.13-33.87.68-10.27 7.67-22.85 18.13-21.74l32.64 8.14z"/><path class="st4" d="M415.3 297.29c-.04 1.16.92 2.15 2.16 2.22 1.23.07 2.27-.81 2.32-1.97.04-1.16-.92-2.15-2.16-2.22-1.23-.07-2.27.82-2.32 1.97zM414.53 293.48c.28.29 1.98-.94 4.4-.93 2.41-.02 4.18 1.2 4.44.91.13-.13-.15-.64-.92-1.2-.76-.55-2.05-1.08-3.56-1.08-1.5 0-2.77.54-3.5 1.1-.74.55-1 1.07-.86 1.2zM439.37 297.29c-.04 1.16.92 2.15 2.16 2.22 1.23.07 2.27-.81 2.32-1.97.04-1.16-.92-2.15-2.16-2.22-1.23-.07-2.27.82-2.32 1.97zM438.27 293.97c.28.29 1.98-.94 4.4-.93 2.41-.02 4.18 1.2 4.44.91.13-.13-.15-.64-.92-1.2-.76-.55-2.05-1.08-3.56-1.08-1.5.01-2.77.54-3.5 1.1-.75.56-1 1.07-.86 1.2zM429.46 311.47c.01-.13-1.49-.39-3.92-.7-.62-.06-1.2-.18-1.3-.6-.14-.44.12-1.09.42-1.79.58-1.46 1.19-2.99 1.83-4.59 2.55-6.53 4.39-11.91 4.12-12-.27-.1-2.55 5.12-5.1 11.65-.61 1.61-1.2 3.15-1.76 4.62-.23.68-.64 1.46-.33 2.37.17.45.62.78 1.01.88.39.12.74.13 1.05.14 2.45.14 3.97.15 3.98.02z"/><path class="st13" d="M427.73 339.42s11.77.77 23.45-6.06c0 0-5.94 12.07-23.45 10.43v-4.37z"/><path class="st6" d="M430.47 317.16c.87-1.12 2.39-1.73 3.9-1.57 1.05.11 2.11.61 2.74 1.45.63.84.77 2.02.19 2.82-.65.89-2.02 1.1-3.17.78-1.15-.32-2.14-1.07-3.08-1.81-.26-.21-.53-.42-.69-.7-.16-.28-.2-.65.01-.88"/><path class="st4" d="M436.57 313.12c-.39-.02-.4 2.54-2.65 4.36-2.24 1.82-5.04 1.53-5.06 1.89-.04.16.62.5 1.8.53 1.16.04 2.85-.32 4.22-1.43 1.37-1.11 1.96-2.6 2.05-3.65.11-1.08-.19-1.72-.36-1.7zM437.19 289.83c.24.64 2.65.34 5.48.68 2.84.28 5.12 1.1 5.5.53.17-.28-.23-.88-1.15-1.5-.91-.62-2.37-1.22-4.07-1.4-1.7-.19-3.26.08-4.29.48-1.05.41-1.57.91-1.47 1.21z"/><g><path class="st4" d="M415.43 286.65c.42.54 2.09-.02 4.09-.04 2-.09 3.69.37 4.08-.19.17-.27-.09-.81-.83-1.32-.73-.51-1.95-.92-3.32-.89-1.37.04-2.57.52-3.26 1.07-.71.55-.94 1.1-.76 1.37z"/></g><path class="st4" d="M450.73 267.05c4.01-2.64 9.2-3.85 13.87-2.54s8.54 5.43 8.69 10.08c.1 3.02-1.23 6.24.14 8.96 1.31 2.59 4.52 3.65 6.8 5.53 3.58 2.95 4.64 8.36 2.42 12.35-1.91 3.43-5.93 5.95-6.26 9.82-.32 3.64 2.82 6.72 3.59 10.3.84 3.95-1.39 8.04-4.6 10.66-3.21 2.62-7.26 4.07-11.22 5.46-3.09 1.09-6.4 2.19-9.6 1.48-3.82-.85-6.67-4.31-7.2-8.03-.52-3.72 1.04-7.53 3.64-10.33 2.25-2.42 5.4-4.48 5.94-7.67.84-4.98-5.22-9.07-4.85-14.1.19-2.59 2.06-4.74 3.62-6.87s2.91-4.81 1.96-7.25c-1.24-3.16-5.49-3.99-8.06-6.31-2.15-1.94-3.01-5.08-2.15-7.78.87-2.7 3.43-4.84 6.34-5.29"/><path class="st4" d="M452.62 263.19c.01 3.43-1.6 6.82-4.29 9.02-2.69 2.2-6.39 3.16-9.84 2.54-2.67-.48-5.6-1.8-7.92-.41-2.43 1.47-2.53 5.05-4.69 6.89-3.08 2.62-7.99.16-11.91 1.3-3.02.88-4.91 3.7-6.92 6.08s-5.02 4.64-8.04 3.76c.19-2.66.39-5.35 1.2-7.89.81-2.55 2.3-4.97 4.58-6.43 1.25-.8 2.71-1.28 3.87-2.2 2.51-1.98 3.09-5.43 4.64-8.2 2-3.57 5.86-6.07 10-6.49 3.44-.34 6.99.67 10.34-.16 2.48-.61 4.65-2.19 7.16-2.65 4.89-.91 9.44 2.52 12.99 5.94"/><g><path class="st14" d="M484.58 304.1c-.09-.03.52-.65.39-1.97-.11-1.29-1.21-3.13-3.52-3.94-1.12-.44-2.43-.7-3.85-1.01-1.41-.33-2.98-.74-4.36-1.76-1.42-1-2.18-2.81-2.27-4.58-.11-1.79.18-3.58.27-5.39.04-.9.01-1.79-.14-2.63-.18-.84-.53-1.6-1.03-2.25-1.05-1.28-2.7-1.85-4.21-2.36-1.54-.48-3.04-1.04-4.29-1.81-1.26-.75-2.31-1.63-3.16-2.53a14.465 14.465 0 0 1-3.09-4.88c-.24-.64-.38-1.15-.45-1.5-.07-.35-.1-.53-.08-.54.06-.02.23.71.77 1.94.54 1.22 1.48 2.95 3.19 4.65 1.68 1.73 4.17 3.24 7.31 4.08 1.52.5 3.3 1.07 4.53 2.53.58.73.98 1.6 1.18 2.52.17.92.19 1.86.15 2.79-.1 1.86-.39 3.63-.28 5.32.09 1.67.74 3.23 1.99 4.15 1.23.93 2.73 1.36 4.11 1.7 1.4.33 2.74.62 3.9 1.11 1.16.47 2.13 1.17 2.71 1.99.59.81.85 1.66.89 2.35.04.7-.14 1.23-.32 1.55-.18.35-.33.48-.34.47z"/></g><g><path class="st14" d="M381.51 314.78c-.01.01-.1-.03-.29-.13-.18-.1-.43-.3-.66-.65-.44-.7-.46-2.06.36-3.38.39-.66 1.02-1.32 1.87-1.75.84-.44 1.8-.78 2.81-1.16 1-.38 2.08-.83 2.94-1.63.86-.8 1.41-1.96 1.68-3.25.29-1.29.38-2.69.62-4.15.22-1.45.7-3.02 1.74-4.31 2.04-2.63 5.38-4.02 7.87-6.48 1.23-1.24 2.15-2.8 2.73-4.53.61-1.72.94-3.58 1.24-5.48.54-3.76 1.09-7.97 3.68-11.41 1.26-1.71 3.19-2.97 5.28-3.34 2.09-.4 4.15-.1 6.09.15 1.95.26 3.87.55 5.69.33 1.83-.2 3.46-1.07 4.65-2.35 2.39-2.52 3.76-5.91 6.7-7.65 2.84-1.72 6.16-1.93 8.84-1.19 2.72.74 4.73 2.55 5.82 4.42 1.13 1.88 1.48 3.77 1.51 5.28.03 1.52-.28 2.68-.56 3.42-.28.75-.52 1.1-.52 1.1-.03-.01.15-.39.39-1.14.24-.74.5-1.89.43-3.37-.07-1.47-.45-3.3-1.57-5.1a9.452 9.452 0 0 0-5.63-4.17c-2.57-.68-5.75-.44-8.42 1.2-1.33.82-2.41 2.04-3.38 3.41-.99 1.35-1.89 2.86-3.17 4.2-.64.66-1.38 1.27-2.23 1.71-.87.42-1.8.74-2.78.84-1.95.24-3.92-.05-5.86-.31-1.94-.25-3.94-.53-5.87-.15-1.93.34-3.68 1.49-4.88 3.09-1.21 1.6-1.98 3.47-2.5 5.36-.53 1.9-.76 3.84-1.06 5.75-.3 1.91-.65 3.8-1.28 5.59-.61 1.79-1.59 3.45-2.9 4.75-2.64 2.56-5.95 3.92-7.87 6.39-.98 1.2-1.43 2.64-1.67 4.07-.25 1.43-.35 2.84-.67 4.17-.3 1.33-.9 2.59-1.85 3.45-.95.86-2.09 1.3-3.1 1.67-1.03.37-1.98.68-2.8 1.09-.82.39-1.41.99-1.8 1.61-.81 1.24-.83 2.51-.46 3.18.41.68.87.81.84.85z"/></g><g><path class="st6" d="m338.57 432.61 31.04-2.78s19.1-49.21 42.65-61.14l15.25 26.06-32.65 60H331.1l7.47-22.14z"/><path class="st7" d="m338.57 432.61 31.04-2.78s19.1-49.21 42.65-61.14l15.25 26.06-32.65 60H331.1l7.47-22.14z"/><path class="st8" d="M350.83 446.51c-.16-.09 1.01-2.29 2.62-4.92 1.6-2.62 3.03-4.67 3.19-4.58.16.09-1.01 2.29-2.62 4.92-1.6 2.62-3.03 4.67-3.19 4.58zM372.82 445.91c-.14.11-1.84-1.72-3.79-4.09s-3.42-4.39-3.27-4.5 1.84 1.72 3.79 4.09 3.42 4.39 3.27 4.5zM376.64 434.63c-.18 0-.33-1.78-.33-3.98s.15-3.98.33-3.98.33 1.78.33 3.98c.01 2.2-.14 3.98-.33 3.98zM365.72 452.23c-.1.15-1.43-.52-2.97-1.51-1.54-.98-2.7-1.9-2.6-2.05.1-.15 1.43.52 2.97 1.51 1.53.97 2.7 1.89 2.6 2.05zM383.54 406.99c.17.07-.79 2.53-2.14 5.48-1.35 2.95-2.59 5.29-2.76 5.21-.17-.07.79-2.53 2.14-5.48 1.36-2.95 2.59-5.28 2.76-5.21zM396.12 387.05c.11.14-1 1.15-2.48 2.25s-2.77 1.87-2.88 1.73c-.11-.14 1-1.15 2.48-2.25s2.77-1.87 2.88-1.73z"/><path class="st6" d="m442.55 450.86 16.01-63.24c2.79-11.01 13.84-18.01 25.25-16 11.75 2.07 19.66 12.93 17.83 24.47l-9.8 61.81c-2.41 12.95-12.94 22.99-26.23 25.02l-12.73 1.94-10.33-34z"/><path class="st4" d="M493 367.54c-.08.15-1.79-1.9-5.71-2.81-1.93-.44-4.34-.55-6.89.05-2.55.58-5.16 1.93-7.49 3.82-4.69 3.85-7.25 8.84-8.98 12.35-.86 1.78-1.51 3.24-1.98 4.24-.46 1.01-.74 1.55-.78 1.54-.04-.02.15-.6.54-1.63.39-1.04.98-2.53 1.79-4.34.82-1.81 1.86-3.95 3.29-6.17 1.43-2.23 3.3-4.52 5.69-6.49 2.4-1.95 5.12-3.33 7.78-3.9 2.66-.58 5.17-.42 7.14.09 1.99.52 3.45 1.36 4.34 2.05.44.35.77.64.97.86.21.2.31.32.29.34zM402.31 381.77c.02.02-.14.22-.45.59-.36.42-.81.95-1.37 1.6-1.18 1.4-2.88 3.43-4.8 6.07-3.83 5.23-8.65 13.06-10.93 22.69-2.23 9.64-2.34 18.67-2.72 25.14-.16 3.24-.32 5.87-.46 7.68-.08.85-.14 1.54-.19 2.08-.05.48-.09.73-.11.72-.02 0-.03-.25-.02-.73.02-.55.04-1.24.06-2.09.06-1.9.14-4.51.25-7.68.26-6.47.29-15.53 2.54-25.27 2.31-9.77 7.26-17.63 11.2-22.82 1.99-2.61 3.74-4.61 4.99-5.96.62-.68 1.13-1.18 1.47-1.53.33-.34.52-.51.54-.49z"/><path class="st6" d="M504.9 381.63c-1.76-11.31-8.14-14.02-14.76-17.54-2.16-1.15-12.59-3.77-20.85-5.74-.79-4.9-2.2-13.66-2.51-15.52-.44-2.6-42.1 3.9-42.63 4.88-.35.65-1.31 10.8-1.92 17.57l-9.97 3.41-13.02 16.19-6.78 9.41c-3.93 5.46-6.91 11.55-8.39 18.07-1.64 7.21-1.87 14.24-1.87 21.9l-2.01 41.51 87.17 24.11 6.75-42.05 22.49-29.94c1.92-12.12 10.45-32.36 8.3-46.26z"/><path class="st4" d="M430.5 366.58c-.09.01-.31-1.09-.58-2.88-.27-1.79-.6-4.27-.93-7.01-.15-1.36-.3-2.65-.43-3.87-.11-1.19-.27-2.26-.23-3.2.03-.93.29-1.7.62-2.12.34-.43.63-.54.64-.52.04.04-.19.23-.42.65-.23.43-.4 1.11-.37 1.99.02.87.22 1.94.37 3.12.15 1.22.31 2.51.48 3.86.32 2.74.58 5.23.73 7.03s.21 2.94.12 2.95zM441.61 364.01c-.08.02-.48-.97-.93-2.64-.45-1.66-.93-4.01-1.18-6.63-.25-2.62-.22-5.01-.08-6.73.13-1.72.33-2.77.42-2.76.21.02-.17 4.24.33 9.42.48 5.2 1.64 9.29 1.44 9.34zM462.3 361.07c-.22-.02.7-4.25-.24-9.38-.88-5.14-3.2-8.81-3-8.91.07-.04.73.82 1.53 2.37.8 1.54 1.67 3.81 2.14 6.43.46 2.62.42 5.04.2 6.76-.23 1.72-.56 2.75-.63 2.73z"/><path class="st8" d="M403.1 398.05c-.15-.1 1.29-2.52 3.41-5.28 2.12-2.77 4.09-4.8 4.23-4.68.14.12-1.59 2.33-3.7 5.08-2.1 2.73-3.78 4.98-3.94 4.88zM422.74 382.43c-.15.11-1.7-1.63-3.47-3.9-1.77-2.26-3.08-4.18-2.93-4.29.15-.11 1.7 1.63 3.47 3.9 1.76 2.26 3.07 4.18 2.93 4.29zM443.26 372.61c.12.14-1.81 1.86-4.1 4.06-2.3 2.19-4.11 4.03-4.25 3.9-.14-.11 1.46-2.16 3.79-4.37 2.31-2.21 4.45-3.72 4.56-3.59zM437.5 360.65c-.12.13-1.56-.94-3.2-2.4-1.65-1.46-2.88-2.75-2.76-2.88.12-.13 1.56.94 3.2 2.4 1.65 1.46 2.88 2.75 2.76 2.88zM455.47 351.27c.04.18-1.9.73-4.33 1.24s-4.43.78-4.47.6c-.04-.18 1.9-.73 4.33-1.24 2.44-.51 4.44-.78 4.47-.6zM459.07 379.11c-.18.01-.44-1.95-.56-4.38-.13-2.43-.08-4.41.11-4.42.18-.01.44 1.95.56 4.38.12 2.43.08 4.41-.11 4.42zM452.52 392.5c-.17.06-1.18-2.21-2.25-5.08s-1.8-5.25-1.62-5.31c.17-.06 1.18 2.21 2.25 5.08 1.06 2.87 1.79 5.25 1.62 5.31zM434.71 401.94c-.17.07-1.28-2.32-2.47-5.32-1.19-3-2.02-5.49-1.85-5.56.17-.07 1.28 2.32 2.47 5.32 1.19 3 2.02 5.49 1.85 5.56zM417.94 412.64c-.18.04-.83-2.32-1.44-5.27-.62-2.95-.97-5.36-.79-5.4.18-.04.83 2.32 1.44 5.27.62 2.94.97 5.36.79 5.4zM398.03 413.06c-.17.08-1.37-2.01-2.69-4.66-1.32-2.65-2.26-4.87-2.09-4.95.17-.08 1.37 2.01 2.69 4.66 1.32 2.66 2.25 4.87 2.09 4.95zM397.6 425.55c.08.16-2.26 1.45-5.22 2.89-2.97 1.43-5.43 2.46-5.52 2.3-.08-.16 2.25-1.45 5.22-2.89 2.97-1.43 5.44-2.46 5.52-2.3zM397.85 445.31c-.17.06-1.1-1.95-1.81-4.58-.72-2.63-.93-4.83-.76-4.85.19-.03.69 2.09 1.4 4.68.7 2.6 1.35 4.69 1.17 4.75zM393.73 459.19c-.12.13-2-1.35-4.2-3.31-2.19-1.96-3.87-3.66-3.74-3.8.12-.13 2 1.35 4.2 3.31 2.19 1.97 3.86 3.67 3.74 3.8zM419.97 449.72c.05.19-2.9 1.01-6.35 2.5-3.45 1.47-6.07 3.03-6.18 2.87-.1-.14 2.4-1.97 5.91-3.47 3.51-1.51 6.59-2.06 6.62-1.9zM412.29 442.84c-.17.06-1.02-1.87-1.89-4.3-.87-2.44-1.43-4.46-1.26-4.52.17-.06 1.02 1.87 1.89 4.3.88 2.44 1.44 4.46 1.26 4.52zM427.86 425.84c.16.1-1.42 2.82-3.52 6.07-2.1 3.26-3.93 5.82-4.09 5.73-.16-.1 1.42-2.82 3.52-6.07 2.11-3.26 3.94-5.82 4.09-5.73zM444.59 427.47c-.14.11-2.22-2.35-4.27-5.71-2.07-3.36-3.3-6.3-3.14-6.37.17-.08 1.67 2.71 3.71 6.04 2.03 3.33 3.85 5.93 3.7 6.04zM454.6 411.33c.04.17-2.14.72-4.89.85-2.75.14-4.97-.2-4.96-.37.02-.19 2.22-.15 4.92-.28 2.71-.13 4.9-.38 4.93-.2zM478.39 392.94c.08.16-2.74 1.64-6.3 3.3-3.56 1.66-6.51 2.87-6.59 2.71-.08-.16 2.74-1.64 6.3-3.3 3.56-1.66 6.51-2.87 6.59-2.71zM479.97 381.25c-.17-.08.84-2.4 2.25-5.18 1.41-2.78 2.69-4.97 2.85-4.89.17.08-.84 2.4-2.25 5.18-1.4 2.78-2.68 4.97-2.85 4.89zM495.09 390.42c-.19.04-.94-2.55-1.95-5.72s-1.91-5.72-1.73-5.79c.17-.07 1.35 2.4 2.37 5.59 1.02 3.2 1.49 5.89 1.31 5.92zM497.46 402.59c.06.16-2.42 1.21-5.64 2.02-3.22.81-5.91 1.06-5.94.89-.03-.19 2.59-.72 5.77-1.52 3.19-.8 5.74-1.56 5.81-1.39zM471.56 417.45c-.19-.04.36-3.1.51-6.91.18-3.81-.11-6.9.09-6.92.17-.03.76 3.08.58 6.95-.16 3.88-1.01 6.92-1.18 6.88zM466.39 432.74c-.12.13-2.38-1.75-4.7-4.5-2.33-2.74-3.8-5.26-3.65-5.35.16-.1 1.86 2.23 4.17 4.93 2.29 2.72 4.32 4.78 4.18 4.92zM492.37 429.52c.07.17-2.33 1.31-5.36 2.54-3.03 1.24-5.55 2.11-5.62 1.94-.07-.17 2.33-1.31 5.36-2.54 3.03-1.24 5.55-2.1 5.62-1.94zM483.06 458.3c-.18 0-.3-3.1-.26-6.92.04-3.82.22-6.91.41-6.91.18 0 .3 3.1.26 6.92-.04 3.82-.22 6.91-.41 6.91zM463.12 456.65c-.17-.02.15-3.24 1.14-7.11.99-3.87 2.26-6.85 2.42-6.79.18.06-.8 3.12-1.77 6.95-.98 3.83-1.6 6.98-1.79 6.95zM464.04 464.2c.01.19-3.19.49-7.1 1.13-3.91.63-7.04 1.35-7.09 1.17-.05-.16 3.03-1.18 6.98-1.81 3.95-.65 7.2-.66 7.21-.49zM441.98 459.36c-.13-.13 1.57-2.06 3.81-4.33s4.16-4 4.29-3.88c.13.13-1.57 2.06-3.81 4.33-2.23 2.27-4.15 4-4.29 3.88zM427.7 472.95c-.19.04-.76-2.23-1.74-4.92-.96-2.7-1.97-4.81-1.8-4.9.15-.08 1.44 1.93 2.43 4.68 1 2.75 1.28 5.11 1.11 5.14zM450.76 480.72c-.08.17-2.96-.93-6.45-2.44-3.49-1.51-6.25-2.87-6.18-3.04.07-.17 2.96.93 6.45 2.44 3.49 1.51 6.25 2.87 6.18 3.04zM410.57 478.44c-.18-.06.37-2.12 1.21-4.6.84-2.48 1.67-4.45 1.84-4.39.18.06-.37 2.12-1.21 4.6-.84 2.48-1.67 4.45-1.84 4.39zM437.05 482.82c-.04.19-3.69-.39-8.24-.62-4.54-.25-8.24-.05-8.26-.24-.02-.17 3.69-.66 8.29-.41 4.6.23 8.24 1.11 8.21 1.27z"/><path class="st4" d="M442.55 445.76c-.02 0-.03-.17-.03-.5-.01-.33.02-.82.21-1.43.17-.6.57-1.37 1.4-1.87.81-.52 1.94-.69 3.14-.51l-.26.15c1.41-4.82 3.66-11.86 5.9-19.76 2.11-7.39 3.53-14.19 4.52-19.13.48-2.39.88-4.36 1.18-5.85.28-1.38.46-2.14.51-2.13.05.01-.05.78-.25 2.17s-.53 3.41-.97 5.89c-.88 4.96-2.23 11.8-4.34 19.22-2.26 7.91-4.58 14.93-6.12 19.71l-.06.19-.2-.04c-1.06-.19-2.13-.06-2.86.37a2.98 2.98 0 0 0-1.35 1.65c-.41 1.17-.34 1.88-.42 1.87z"/><path class="st4" d="M471.37 463.24c-.11.05-.9-1.65-2.53-4.19-1.63-2.54-4.21-5.85-7.66-8.93-3.47-3.07-7.09-5.27-9.82-6.61-2.74-1.35-4.55-1.96-4.51-2.07.01-.04.48.08 1.3.33.83.24 2 .69 3.41 1.32 2.82 1.25 6.55 3.42 10.07 6.54 3.51 3.13 6.07 6.55 7.61 9.18.77 1.31 1.34 2.41 1.67 3.19.33.78.5 1.22.46 1.24z"/><path d="M447.57 440.51c4.91.35 8.94.71 13.55 2.4 4.61 1.69 8.88 4.93 10.57 9.45.41 1.08.6 2.45-.24 3.27-.62.6-1.62.67-2.44.38-.82-.28-1.49-.86-2.13-1.43-2.83-2.56-5.77-4.83-8.7-7.29-2.93-2.46-7.17-5.05-10.99-5.62" class="st15"/><path class="st4" d="M438.3 432.5c.02.03-.45.33-1.34.76-.89.44-2.23.98-3.95 1.46-3.41.98-8.52 1.51-13.85.15-5.34-1.36-9.53-4.25-12.03-6.73-1.26-1.24-2.17-2.35-2.73-3.16-.57-.8-.83-1.28-.79-1.3.11-.08 1.28 1.77 3.85 4.12 2.54 2.35 6.67 5.11 11.87 6.43 5.2 1.32 10.18.88 13.56.03 3.42-.83 5.36-1.88 5.41-1.76z"/><path d="M404.3 424.65c2.16 4.6 4.71 9.23 8.81 12.32 2.37 1.78 5.13 3.28 8.12 3.33 4.29.07 7.97-2.79 11.25-5.51-10.61 1.63-22.56-3.07-28.18-10.14" class="st15"/><path class="st4" d="M451.82 363.05c-.2-.01.04-4.32-.49-9.58-.5-5.27-1.58-9.45-1.38-9.5.08-.02.46 1 .89 2.7.43 1.7.89 4.08 1.16 6.74.26 2.66.27 5.09.17 6.83-.09 1.75-.26 2.82-.35 2.81z"/></g><g><path class="st6" d="M299.37 531.27s-13.97 2.95-26.44 1.12c-11.69-1.71-37.87.06-37.86 15.13.01 16.81 34.92 12.66 48.54 9.99 13.62-2.66 27.18-5.08 27.18-5.08l-11.42-21.16z"/><path class="st4" d="M268.02 552.81c-.18.04-.94-2.58-1.69-5.85-.75-3.27-1.21-5.95-1.03-5.99.18-.04.94 2.58 1.69 5.85.74 3.26 1.21 5.95 1.03 5.99zM272.78 553.03c-.18.02-.71-2.66-1.18-6s-.7-6.06-.52-6.09c.18-.02.71 2.66 1.18 6s.71 6.06.52 6.09zM277.38 551.27c-.18.02-.62-2.33-.98-5.24-.36-2.92-.5-5.3-.32-5.32.18-.02.62 2.32.98 5.24.36 2.92.51 5.3.32 5.32zM284.61 549.51c-.16.07-1.15-1.89-1.8-4.5-.65-2.61-.69-4.79-.51-4.81.19-.02.52 2.1 1.16 4.65.63 2.56 1.33 4.59 1.15 4.66zM286.16 543.36c0-.04.64-.14 1.83-.12 1.18.03 2.9.22 4.9.94.5.19 1.03.42 1.51.8.48.36.93.95.95 1.67.02 1.49-1.65 2.56-3.16 2.25-1.53-.28-2.69-1.38-3.65-2.54-.97-1.19-1.67-2.64-2.06-4.2-.77-3.14-.2-6.38 1.54-8.7.25-.28.6-.55 1.04-.61.42-.07.88.09 1.16.35.57.53.77 1.2.87 1.83.16 1.23.07 2.4-.18 3.42a9.364 9.364 0 0 1-2.36 4.31c-.41.42-.77.71-1.02.88-.26.17-.39.26-.41.24-.04-.05.49-.43 1.23-1.29.73-.86 1.67-2.27 2.09-4.24.22-.98.27-2.08.1-3.24-.09-.54-.31-1.13-.71-1.48-.4-.36-.96-.26-1.35.22-1.51 2.08-2.09 5.22-1.35 8.15.37 1.47 1.02 2.84 1.93 3.96.89 1.11 1.99 2.11 3.24 2.34 1.19.29 2.52-.62 2.5-1.64 0-.51-.31-.96-.72-1.29a4.99 4.99 0 0 0-1.35-.75c-1.92-.75-3.6-1.01-4.75-1.12-1.17-.1-1.82-.08-1.82-.14z"/><path class="st4" d="M309.41 550.22c0 .01-.12.05-.35.11-.27.07-.62.15-1.05.26-.97.22-2.33.52-4.05.9-3.52.76-8.63 1.82-14.98 3.02-6.35 1.19-13.94 2.55-22.44 3.69-4.24.56-8.78 1.06-13.48.66-2.35-.17-4.73-.56-7.06-1.32-1.15-.41-2.31-.85-3.39-1.47-1.08-.63-2.12-1.31-2.98-2.35l.05.06c-.43-.41-.88-.88-1.21-1.43-1.43-2.23-1.47-5-.71-7.36.78-2.4 2.53-4.32 4.48-5.73 1.97-1.4 4.16-2.38 6.37-3.09 1.11-.31 2.2-.68 3.3-.93 1.11-.22 2.19-.5 3.29-.65 8.75-1.35 16.72-.66 23.33-.66 3.32.06 6.31-.03 8.94-.19 2.62-.19 4.87-.48 6.69-.83.9-.18 1.7-.35 2.41-.49.67-.19 1.25-.35 1.73-.48.44-.12.79-.21 1.07-.29.24-.06.37-.09.37-.08 0 .01-.11.06-.35.14-.27.09-.62.21-1.05.35-.48.15-1.06.33-1.72.55-.71.16-1.51.35-2.41.56-1.82.38-4.08.71-6.71.94-2.64.19-5.65.31-8.97.28-6.63.05-14.59-.58-23.23.79-1.08.15-2.15.44-3.24.65-1.09.24-2.15.62-3.25.92-2.16.69-4.29 1.66-6.18 3.01-1.87 1.35-3.51 3.18-4.23 5.41-.72 2.2-.65 4.79.64 6.81.3.5.71.92 1.09 1.29l.02.02.03.04c.71.86 1.74 1.57 2.76 2.15 1.03.6 2.15 1.03 3.27 1.42 2.26.74 4.6 1.13 6.9 1.3 4.63.41 9.11-.07 13.35-.61 8.49-1.1 16.08-2.41 22.43-3.54 6.36-1.14 11.48-2.14 15.02-2.82 1.73-.33 3.1-.6 4.07-.78.44-.08.79-.14 1.06-.19.24-.04.37-.05.37-.04z"/><path class="st4" d="M258.33 558.31c-.1 0-.18-1.34-.34-3.49-.16-2.15-.42-5.13-.87-8.39-.45-3.26-.99-6.2-1.42-8.32-.43-2.12-.71-3.43-.61-3.46.08-.02.53 1.25 1.07 3.35.55 2.1 1.17 5.05 1.62 8.33.45 3.29.64 6.28.68 8.45.04 2.19-.04 3.53-.13 3.53z"/><path class="st11" d="m295.07 532 8.85 21.68 6.87-1.24-13.16-21.17z"/></g><path class="st4" d="M410.43 472.57c-1.42.46-92.9-24.61-129.89-34.78-9.72-2.67-20.14-1.13-28.61 4.23l-.45.28c-12.44 7.87-18.49 22.53-15.13 36.64 2.13 8.96 7.84 16.71 15.86 21.51 24.4 14.62 76.02 45.37 77.6 44.77 2.07-.78 66.54-2.42 66.54-2.42l-77.57-54.56 36.9 23.33 54.75-39z"/><path class="st12" d="m334.06 445.34 19.45-9.84 19.07 11.69 71.39 2.28 10.33 33.99-103.33-23.43s-18.81 1.63-20.22-2.51c-1.41-4.12 3.31-12.18 3.31-12.18z"/><path class="st4" d="m392.55 499.82-9.61 30.87 1.2 9.41c17.51 17.26 45.42 19.1 65.14 4.29 11.99-9 18.99-22.97 18.92-37.75l-.14-32.25-75.51 25.43z"/><g><path class="st14" d="M335.31 500.02c-.11.14-11.27-7.81-24.92-17.77-13.65-9.96-24.63-18.15-24.52-18.29.11-.14 11.27 7.81 24.92 17.77 13.66 9.95 24.63 18.14 24.52 18.29z"/></g><g><path class="st13" d="M352.19 441.66c.06.17-4.2 1.66-9.51 3.32s-9.66 2.87-9.72 2.7c-.06-.17 4.2-1.66 9.51-3.32 5.32-1.66 9.67-2.87 9.72-2.7z"/></g><g><path class="st13" d="M353.65 447.46c.01.1-1.26.28-3.31.61-2.05.33-4.87.82-7.95 1.51-3.08.69-5.84 1.46-7.83 2.04-1.99.58-3.22.96-3.25.87-.03-.08 1.14-.61 3.1-1.31 1.96-.7 4.72-1.54 7.82-2.24 3.11-.7 5.96-1.12 8.04-1.33 2.08-.21 3.37-.23 3.38-.15z"/></g><g><path class="st13" d="M352.02 452.78c.04.18-4.76 1.26-10.71 2.41-5.95 1.15-10.81 1.95-10.84 1.77-.04-.18 4.76-1.26 10.71-2.41 5.95-1.16 10.8-1.95 10.84-1.77z"/></g><g><path class="st14" d="m326.79 399.74 17.94 57.72c.21.66.8 1.13 1.51 1.18l48.88 3.59c.89.07 1.58.79 1.58 1.67v2.98c0 .94-.79 1.69-1.74 1.67l-133.61-2.46c-.7-.01-1.32-.44-1.57-1.08l-23.5-60.21c-.42-1.06.35-2.21 1.52-2.27l87.28-3.99c.78-.02 1.49.46 1.71 1.2z"/><path class="st0" d="M289.14 424.61c-.95.24-2.46 1.56-2.64 2.94-.19 1.38.57 2.78 1.73 3.6 1.41.99 3.45 1.12 4.88.18 1.44-.95 2.08-2.81 1.33-4.82-.59-1.61-3.57-2.72-5.3-1.9"/></g><g><path class="st4" d="m310.79 552.44-14.12-22.72 103.85-79.6c6.46-5.18 14.36-8.35 22.68-9.09 25.83-2.3 47.53 18.76 45.37 44.04l-1.66 19.42-68.93 21.66-87.19 26.29z"/><path class="st14" d="M443.97 498.49c.01.01-.09.09-.27.25-.22.18-.5.4-.85.68-.79.62-1.9 1.48-3.31 2.58-.73.56-1.53 1.18-2.4 1.85-.88.68-1.91 1.31-2.98 2.05-1.08.72-2.23 1.5-3.45 2.31-.61.41-1.23.84-1.89 1.25-.67.39-1.36.8-2.06 1.21-2.82 1.65-5.87 3.53-9.32 5.24-1.71.88-3.46 1.83-5.3 2.72-1.86.86-3.78 1.75-5.74 2.66-7.91 3.52-16.76 7.07-26.25 10.23-18.97 6.39-36.51 11-49.07 14.72-3.15.91-5.99 1.75-8.47 2.52-2.49.75-4.64 1.4-6.37 1.98-1.71.54-3.06.97-4.02 1.28-.43.13-.78.23-1.05.32-.24.07-.36.1-.37.09 0-.01.11-.06.34-.15.27-.1.61-.22 1.03-.38.96-.33 2.29-.8 3.98-1.39 1.73-.62 3.86-1.3 6.34-2.09 2.48-.8 5.31-1.68 8.45-2.62 12.53-3.84 30.05-8.51 48.98-14.89 9.48-3.15 18.32-6.67 26.22-10.16 1.96-.9 3.88-1.78 5.74-2.63 1.84-.88 3.59-1.82 5.3-2.69 3.45-1.68 6.5-3.54 9.33-5.16.71-.41 1.4-.8 2.07-1.19.66-.41 1.28-.83 1.9-1.23 1.23-.8 2.38-1.56 3.47-2.27 1.07-.72 2.12-1.33 3-2l2.43-1.8c1.44-1.06 2.57-1.89 3.38-2.48.37-.26.66-.47.89-.63.2-.12.31-.19.32-.18z"/><path class="st14" d="M446.49 509.11c.02.04-.36.23-1.05.54-.69.31-1.71.71-2.98 1.18-2.54.93-6.13 2.03-10.18 2.88-4.06.85-7.79 1.29-10.5 1.47-1.35.09-2.45.13-3.21.12-.76 0-1.18-.02-1.18-.07 0-.1 1.67-.22 4.35-.52 2.68-.29 6.38-.8 10.4-1.64 4.02-.85 7.6-1.87 10.17-2.68 2.56-.81 4.14-1.37 4.18-1.28zM396.36 453.93c.11.14-22.11 17.22-49.64 38.15s-49.94 37.78-50.05 37.64c-.11-.14 22.11-17.22 49.64-38.15s49.94-37.78 50.05-37.64z"/><path class="st6" d="M390.36 538.41c-4.98-2.6-10.57-1.06-15.34.51-3.17 1.05-6.47 2.7-9.69 1.81-2.33-.64-4.06-2.49-5.84-4.09-7.18-6.47-17.07-10.01-26.84-9.41-2.77.17-5.49 1.26-7.37 3.26-4.89 5.18-1.2 11.93 3.17 16.29 7.72 7.69 18.23 12.65 29.19 13.77 9.11.93 21.64-.3 30.88-4.17 5.7-2.39 8.62-8.96 5.63-14.27-.88-1.55-2.15-2.85-3.79-3.7z"/><path d="M390.35 542.55c-4.98-2.6-10.57-1.06-15.34.51-3.17 1.05-6.47 2.7-9.69 1.81-2.33-.64-4.06-2.49-5.84-4.09-7.18-6.47-17.07-10.01-26.84-9.41-2.77.17-5.49 1.26-7.37 3.26-1.08 1.15-1.73 2.37-2.05 3.63.72 3.12 2.87 6.16 5.22 8.51 7.72 7.69 18.23 12.65 29.19 13.77 9.11.93 21.64-.3 30.88-4.17 3.43-1.43 5.83-4.38 6.57-7.66-.19-.84-.49-1.66-.94-2.46-.88-1.54-2.15-2.84-3.79-3.7z" class="st11"/><path class="st4" d="M395.07 548.72c-.09.03-.07-1.19-1.22-2.89a9.523 9.523 0 0 0-2.67-2.55c-1.21-.8-2.77-1.49-4.58-1.71-3.7-.42-7.98 1.1-12.75 2.36-2.35.61-4.92 1.54-7.74 1.2-1.37-.17-2.75-.62-3.98-1.35-1.22-.72-2.34-1.6-3.42-2.52-4.1-3.92-8.97-6.37-13.62-7.92-2.33-.76-4.61-1.27-6.78-1.54-2.17-.28-4.2-.31-6.03-.03-1.82.28-3.41.86-4.66 1.59-1.25.74-2.18 1.6-2.86 2.37-1.32 1.57-1.77 2.64-1.84 2.6 0 0 .35-1.11 1.64-2.76.66-.81 1.59-1.72 2.86-2.52 1.28-.78 2.91-1.42 4.78-1.74 1.87-.32 3.97-.31 6.17-.05 2.2.25 4.53.74 6.9 1.5s4.78 1.79 7.15 3.09c1.17.67 2.37 1.36 3.48 2.22 1.11.85 2.16 1.78 3.23 2.69 1.07.91 2.16 1.77 3.32 2.46 1.16.69 2.43 1.1 3.72 1.27 2.61.34 5.11-.53 7.49-1.14 4.74-1.21 9.1-2.73 12.97-2.23 3.84.6 6.31 2.85 7.4 4.58.56.89.81 1.67.92 2.2.13.53.14.82.12.82z"/><path class="st4" d="M395.07 548.72c-.09.03-.07-1.19-1.22-2.89a9.523 9.523 0 0 0-2.67-2.55c-1.21-.8-2.77-1.49-4.58-1.71-3.7-.42-7.98 1.1-12.75 2.36-2.35.61-4.92 1.54-7.74 1.2-1.37-.17-2.75-.62-3.98-1.35-1.22-.72-2.34-1.6-3.42-2.52-4.1-3.92-8.97-6.37-13.62-7.92-2.33-.76-4.61-1.27-6.78-1.54-2.17-.28-4.2-.31-6.03-.03-1.82.28-3.41.86-4.66 1.59-1.25.74-2.18 1.6-2.86 2.37-1.32 1.57-1.77 2.64-1.84 2.6 0 0 .35-1.11 1.64-2.76.66-.81 1.59-1.72 2.86-2.52 1.28-.78 2.91-1.42 4.78-1.74 1.87-.32 3.97-.31 6.17-.05 2.2.25 4.53.74 6.9 1.5s4.78 1.79 7.15 3.09c1.17.67 2.37 1.36 3.48 2.22 1.11.85 2.16 1.78 3.23 2.69 1.07.91 2.16 1.77 3.32 2.46 1.16.69 2.43 1.1 3.72 1.27 2.61.34 5.11-.53 7.49-1.14 4.74-1.21 9.1-2.73 12.97-2.23 3.84.6 6.31 2.85 7.4 4.58.56.89.81 1.67.92 2.2.13.53.14.82.12.82z"/><path class="st4" d="M333.29 547.54c-.05-.07.92-.75 2.55-1.73 1.63-.97 3.95-2.23 6.6-3.45a72.17 72.17 0 0 1 6.92-2.77c1.81-.61 2.96-.9 2.99-.82.03.09-1.06.53-2.82 1.25-1.76.72-4.18 1.72-6.81 2.93-2.63 1.21-4.96 2.39-6.65 3.26-1.68.87-2.73 1.41-2.78 1.33zM335 552.42c-.08-.16 4.28-2.39 9.73-4.96 5.45-2.58 9.94-4.54 10.02-4.37.08.16-4.27 2.38-9.73 4.96-5.45 2.57-9.94 4.53-10.02 4.37z"/><path class="st4" d="M355.64 554.53c-.1.15-5.41-2.94-11.85-6.92-6.45-3.97-11.6-7.32-11.5-7.47.1-.15 5.41 2.94 11.86 6.92 6.44 3.97 11.59 7.32 11.49 7.47z"/><g><path class="st4" d="M358.63 549.47c-.06.07-1.04-.6-2.6-1.7s-3.72-2.62-6.13-4.26c-2.41-1.63-4.63-3.07-6.23-4.12-1.6-1.04-2.59-1.7-2.54-1.78.05-.08 1.12.44 2.79 1.39s3.94 2.33 6.36 3.97c2.42 1.64 4.54 3.23 6.03 4.43 1.5 1.21 2.37 2.01 2.32 2.07z"/></g></g></g></svg>