<svg version="1.1" id="Capa_1" xmlns="http://www.w3.org/2000/svg" x="0" y="0" viewBox="0 0 924 654" style="enable-background:new 0 0 924 654" xml:space="preserve"><style>.st0{fill:#263238}.st1{fill:#455a64}.st2{fill:#ffc727}.st4{fill:#fff}.st5{opacity:.1}.st7{fill:#c7c7c7}.st8{fill:#d3766a}.st9{fill:#37474f}</style><path class="st0" d="m51.42 510.85 103.07-.49 103.08-.18 206.14-.33 206.15.33 103.07.18 103.07.49-103.07.5-103.07.18-206.15.33-206.14-.34-103.08-.18z"/><path class="st1" d="M813.15 335.58c-10.25 0-30.99-8.06-27.49-14.83 3.42-6.62 14.16 1.92 14.61 2.18-.3-.5-7.23-14.02-1.06-16.36 6.31-2.41 12.4 4.17 13.94 11.67 1.54-7.5 7.63-14.08 13.94-11.67 6.17 2.34-.76 15.86-1.06 16.36.45-.26 11.19-8.81 14.61-2.18 3.49 6.77-17.24 14.83-27.49 14.83z"/><path class="st2" d="M864.89 390.84c-.47 5.39-1.32 11.14-2.61 16.81-2.43 11.01-6.44 21.69-12.16 28.84 0 0-16.57 6.99-37.09 6.99-20.51 0-37.09-6.99-37.09-6.99-12.23-15.26-16.59-46.68-14.84-62.83 3.15-29.18 20.58-40.33 35.71-44.32 0-.01 0-.01.01-.01 6.15-1.62 11.93-2.07 16.21-2.07 14.83 0 47.49 5.35 51.93 46.41.52 4.68.51 10.66-.07 17.17z"/><path d="M864.89 390.84c-.47 5.39-1.32 11.14-2.61 16.81-2.43 11.01-6.44 21.69-12.16 28.84 0 0-16.57 6.99-37.09 6.99-20.51 0-37.09-6.99-37.09-6.99-12.23-15.26-16.59-46.68-14.84-62.83 3.15-29.18 20.58-40.33 35.71-44.32 0-.01 0-.01.01-.01 6.15-1.62 11.93-2.07 16.21-2.07 14.83 0 47.49 5.35 51.93 46.41.52 4.68.51 10.66-.07 17.17z" style="opacity:.2"/><path class="st4" d="M814.11 327.25c.42 9.69.65 19.38.83 29.07.18 9.69.23 19.38.27 29.08-.06 9.69-.1 19.39-.38 29.08-.36 9.68-.49 19.42-2.03 29.01l.38-3.61.2-3.63c.16-2.41.16-4.84.24-7.26.12-4.84.2-9.68.21-14.53.07-9.69.13-19.37.08-29.06l.04-29.07c.02-9.7.04-19.39.16-29.08zM807.82 327.45c-1.47 4.61-2.57 9.33-3.47 14.07-.97 4.73-1.67 9.51-2.28 14.3-1.19 9.58-1.82 19.23-1.99 28.88l-.08 7.24c-.04 2.41.09 4.83.13 7.24.03 4.83.43 9.65.66 14.48.09 2.42.33 4.82.55 7.23l.64 7.22 1.64 14.42c-.8-4.77-1.57-9.55-2.28-14.35l-.83-7.22c-.27-2.41-.58-4.81-.73-7.23-.39-4.83-.75-9.67-.84-14.52-.06-2.42-.21-4.85-.19-7.27l.02-7.27c.28-9.69.9-19.39 2.31-28.99 1.46-9.57 3.35-19.15 6.74-28.23zM799.42 328.65c-3.03 3.92-5.38 8.29-7.35 12.8-.48 1.14-1.01 2.25-1.45 3.4l-1.24 3.48-.62 1.74c-.18.59-.33 1.18-.5 1.78l-.99 3.56c-2.45 9.54-3.43 19.4-3.35 29.23l.16 7.38.72 7.35.36 3.68c.17 1.22.42 2.43.62 3.64l1.25 7.29c.17 1.22.48 2.42.77 3.61l.88 3.59 1.75 7.2 4.38 14.17c-1.7-4.64-3.33-9.32-4.99-13.99l-1.94-7.17-.97-3.59c-.33-1.2-.67-2.39-.87-3.61l-1.38-7.31c-.22-1.22-.47-2.44-.66-3.66l-.4-3.7-.78-7.41-.22-7.45c.03-9.92 1.01-19.91 3.69-29.5l1.08-3.57c.18-.59.35-1.19.55-1.78l.67-1.74 1.34-3.48c.48-1.15 1.03-2.26 1.55-3.39 2.18-4.47 4.68-8.82 7.94-12.55z"/><path class="st4" d="M793.24 330.32c-3.88 3.2-7.18 7.03-10.02 11.13-2.88 4.09-5.28 8.5-7.15 13.12-3.77 9.23-5.68 19.2-5.63 29.18-.09 2.49.1 4.98.19 7.48.27 2.48.4 4.98.83 7.44l.57 3.7.76 3.67c.24 1.23.5 2.45.83 3.66l.91 3.64c.64 2.42 1.43 4.8 2.13 7.2l2.52 7.08 2.79 6.99 3.06 6.89c-4.69-8.89-8.67-18.19-11.47-27.88-.64-2.44-1.42-4.84-1.88-7.33l-.79-3.7-.6-3.74c-.46-2.49-.61-5.01-.9-7.52-.11-2.53-.33-5.05-.25-7.58.06-10.11 1.99-20.27 6.02-29.56 2.01-4.64 4.54-9.06 7.56-13.11 1.52-2.02 3.13-3.96 4.89-5.77 1.73-1.81 3.59-3.52 5.63-4.99z"/><g><path class="st4" d="M820.02 327.51c3.39 9.09 5.28 18.66 6.74 28.24 1.41 9.6 2.03 19.3 2.31 28.99l.02 7.27c.02 2.42-.13 4.85-.19 7.27-.1 4.85-.46 9.68-.84 14.52-.15 2.42-.45 4.82-.73 7.23l-.83 7.22c-.71 4.79-1.48 9.57-2.28 14.35l1.64-14.42.64-7.22c.21-2.41.46-4.81.55-7.23.23-4.83.62-9.64.66-14.48.04-2.41.17-4.83.13-7.24l-.08-7.24c-.17-9.65-.81-19.3-1.99-28.88-.61-4.79-1.31-9.57-2.28-14.3-.9-4.75-2-9.46-3.47-14.08zM828.43 328.72c3.26 3.74 5.75 8.08 7.93 12.53.52 1.13 1.07 2.24 1.55 3.39l1.34 3.48.67 1.74c.2.59.37 1.19.55 1.78l1.08 3.57c2.68 9.59 3.66 19.57 3.69 29.5l-.22 7.45-.78 7.41-.4 3.7c-.19 1.23-.44 2.44-.66 3.66l-1.38 7.31c-.2 1.23-.54 2.42-.87 3.62l-.97 3.59-1.94 7.17c-1.66 4.67-3.29 9.34-4.99 13.99l4.38-14.17 1.75-7.2.88-3.59c.3-1.2.61-2.39.77-3.61l1.25-7.29c.21-1.21.45-2.42.62-3.64l.36-3.68.72-7.35.16-7.38c.08-9.83-.9-19.69-3.35-29.23l-.99-3.56c-.17-.59-.32-1.19-.5-1.78l-.62-1.74-1.24-3.48c-.44-1.15-.97-2.26-1.45-3.4-1.96-4.5-4.32-8.88-7.34-12.79z"/><path class="st4" d="M834.6 330.39c2.04 1.47 3.9 3.18 5.65 4.99 1.76 1.81 3.37 3.75 4.89 5.77a66.18 66.18 0 0 1 7.56 13.11c4.03 9.29 5.95 19.45 6.02 29.56.08 2.53-.14 5.06-.25 7.58-.3 2.51-.44 5.04-.9 7.52l-.6 3.74-.79 3.7c-.46 2.48-1.24 4.89-1.88 7.33-2.8 9.69-6.78 19-11.47 27.88l3.06-6.89 2.79-6.99 2.52-7.08c.71-2.4 1.5-4.78 2.13-7.2l.91-3.64c.33-1.21.59-2.43.83-3.66l.76-3.67.57-3.7c.44-2.46.56-4.96.83-7.44.09-2.49.28-4.98.19-7.48.05-9.97-1.86-19.95-5.63-29.18a65.195 65.195 0 0 0-7.15-13.12c-2.86-4.1-6.16-7.93-10.04-11.13z"/></g><g><path class="st4" d="M810.66 361.88c1.58 2.07 2.96 4.25 4.28 6.47h-.78c.73-1.31 1.5-2.59 2.29-3.86.4-.63.81-1.26 1.23-1.88.44-.61.85-1.24 1.32-1.83-.28.7-.6 1.38-.91 2.07-.32.68-.65 1.35-.99 2.02a83.5 83.5 0 0 1-2.16 3.94l-.4.68-.38-.68c-1.28-2.25-2.49-4.53-3.5-6.93z"/><path class="st4" d="M814.22 358.53c.41 1.66.55 3.33.62 5.01.04 1.68.01 3.35-.29 5.04-.42-1.66-.55-3.33-.62-5.01-.04-1.68-.01-3.35.29-5.04zM844.23 327.55c.2 2.59.17 5.18.07 7.76l-.66-.42c1.32-.7 2.67-1.36 4.03-1.99.68-.31 1.37-.62 2.06-.91.7-.28 1.39-.57 2.1-.82-.62.44-1.26.83-1.89 1.24-.64.4-1.28.78-1.93 1.15-1.3.74-2.62 1.46-3.95 2.13l-.7.35.04-.78c.16-2.58.38-5.15.83-7.71z"/><path class="st4" d="M849.05 326.67c-.56 1.62-1.35 3.1-2.21 4.54-.88 1.43-1.81 2.82-2.99 4.07.56-1.62 1.35-3.1 2.21-4.54.88-1.42 1.81-2.82 2.99-4.07zM836.19 350.74c1.33 2.23 2.45 4.56 3.51 6.92l-.77-.09c.88-1.21 1.79-2.4 2.72-3.57.47-.58.95-1.16 1.44-1.73.5-.56.99-1.13 1.52-1.67-.36.67-.76 1.3-1.14 1.95-.4.64-.8 1.27-1.22 1.89-.84 1.24-1.7 2.47-2.6 3.66l-.47.63-.3-.71c-1.01-2.38-1.96-4.78-2.69-7.28z"/><path class="st4" d="M840.12 347.82c.22 1.7.16 3.38.04 5.05-.15 1.67-.37 3.33-.87 4.97-.22-1.7-.16-3.38-.04-5.05.15-1.67.37-3.33.87-4.97zM821.63 427.33c1.58 2.07 2.96 4.25 4.28 6.47h-.78c.73-1.31 1.5-2.59 2.29-3.86.4-.63.81-1.26 1.23-1.88.44-.61.85-1.24 1.32-1.83-.28.7-.6 1.38-.91 2.07-.32.68-.65 1.35-.99 2.02a83.5 83.5 0 0 1-2.16 3.94l-.4.68-.38-.68c-1.28-2.26-2.49-4.54-3.5-6.93z"/><path class="st4" d="M825.19 423.97c.41 1.66.55 3.33.62 5.01.04 1.67.01 3.35-.29 5.04-.42-1.66-.55-3.33-.62-5.01-.04-1.67-.01-3.35.29-5.04zM787.52 338.98c.92 2.43 1.61 4.92 2.23 7.43l-.75-.22a86.05 86.05 0 0 1 3.31-3.03c.57-.49 1.14-.97 1.72-1.45.6-.46 1.17-.94 1.79-1.37-.47.59-.98 1.15-1.47 1.72-.5.56-1.02 1.1-1.54 1.64a86.362 86.362 0 0 1-3.2 3.15l-.57.54-.17-.76c-.57-2.53-1.07-5.06-1.35-7.65z"/><path class="st4" d="M791.9 336.8c-.08 1.71-.44 3.35-.86 4.97-.44 1.62-.95 3.21-1.74 4.74.08-1.71.44-3.35.86-4.97.45-1.62.96-3.22 1.74-4.74z"/><g><path class="st4" d="M867.17 366.9c-.09 2.6-.42 5.16-.81 7.71l-.6-.49c1.39-.54 2.8-1.05 4.23-1.52.71-.23 1.43-.46 2.15-.67.73-.19 1.44-.41 2.18-.58-.66.37-1.34.68-2.02 1.02-.68.32-1.36.63-2.05.92a92.89 92.89 0 0 1-4.17 1.67l-.74.27.13-.77c.45-2.54.96-5.07 1.7-7.56z"/><path class="st4" d="M872.06 366.58c-.74 1.55-1.7 2.92-2.71 4.26-1.03 1.32-2.12 2.6-3.43 3.7.74-1.55 1.7-2.92 2.71-4.26 1.03-1.32 2.12-2.59 3.43-3.7z"/></g><g><path class="st4" d="M795.89 395.41c1.61 2.05 3.01 4.21 4.35 6.42l-.78.01c.72-1.32 1.47-2.61 2.25-3.89.39-.64.79-1.27 1.21-1.9.43-.62.84-1.25 1.3-1.85-.27.71-.59 1.39-.88 2.08-.31.68-.64 1.36-.97 2.03-.67 1.34-1.37 2.66-2.11 3.96l-.39.68-.39-.67c-1.31-2.22-2.55-4.48-3.59-6.87z"/><path class="st4" d="M799.42 392.02c.43 1.66.59 3.33.68 5 .06 1.67.05 3.35-.23 5.04-.43-1.66-.59-3.33-.68-5-.06-1.67-.06-3.35.23-5.04z"/></g><g><path class="st4" d="M769.11 412.56c2.26 1.3 4.37 2.78 6.44 4.32l-.72.3a78.374 78.374 0 0 1 1.04-6.66c.17-.73.31-1.47.51-2.2.02.76-.03 1.51-.04 2.26-.03.75-.08 1.5-.14 2.25-.12 1.49-.28 2.98-.48 4.47l-.1.78-.61-.48c-2.04-1.58-4.04-3.22-5.9-5.04z"/><path class="st4" d="M771.12 408.09c1.02 1.38 1.79 2.87 2.5 4.39.68 1.53 1.3 3.09 1.67 4.76-1.02-1.38-1.79-2.87-2.5-4.39-.69-1.53-1.31-3.09-1.67-4.76z"/></g><g><path class="st4" d="M762.47 344.51c2.46.85 4.81 1.91 7.14 3.03l-.65.43a95.69 95.69 0 0 1-.22-4.49c-.02-.75-.02-1.5-.01-2.25.03-.75.03-1.5.09-2.26.16.74.26 1.48.38 2.23.11.74.2 1.49.28 2.23.16 1.49.29 2.98.37 4.48l.04.78-.69-.35c-2.29-1.16-4.56-2.39-6.73-3.83z"/><path class="st4" d="M763.59 339.74c1.26 1.16 2.3 2.48 3.28 3.84.96 1.37 1.86 2.79 2.54 4.36-1.26-1.16-2.3-2.48-3.28-3.84-.96-1.37-1.86-2.78-2.54-4.36z"/></g><g><path class="st4" d="M853.88 393.69c1.38 2.2 2.55 4.51 3.65 6.84l-.78-.07a84.05 84.05 0 0 1 2.65-3.63c.46-.59.92-1.18 1.4-1.76.49-.57.97-1.15 1.48-1.7-.34.67-.73 1.32-1.1 1.97-.38.65-.78 1.28-1.18 1.92-.81 1.26-1.65 2.5-2.52 3.72l-.46.64-.32-.71c-1.05-2.36-2.04-4.74-2.82-7.22z"/><path class="st4" d="M857.74 390.68c.26 1.69.23 3.37.14 5.04-.12 1.67-.3 3.34-.77 4.99-.26-1.69-.23-3.37-.14-5.04.13-1.67.31-3.34.77-4.99z"/></g></g><g><path class="st1" d="M769.45 437.21h88.08l-8.87 73.64h-70.34z"/><path class="st0" d="m769.45 437.21 2 16.61 84.57-4.06 1.51-12.55z"/><path class="st1" d="M763.92 427.91h99.14v13.17h-99.14z"/></g><g><path class="st2" d="M212.27 533.9v-3.99l212.9-4.74 86.29 35.94v3.98l-210.6 21.65z"/><path class="st5" d="M212.27 533.9v-3.99l212.9-4.74 86.29 35.94v3.98l-210.6 21.65z"/><path class="st2" d="m212.27 529.91 212.9-12.76 86.29 43.96-210.6 21.65z"/><path d="m225.06 530.71 81.08 48.52 197.35-20.2-83.51-42.2s-57.17-1.35-59.91-1.1c-2.74.24-29.13 4.26-29.13 4.26s-35.62.13-38.1.39c-2.47.25-67.78 10.33-67.78 10.33z" style="fill:#ebebeb"/><g><path class="st7" d="m330.95 519.98 9.89 5.97 9.81 6.02 19.48 12.12 19.31 12.26 9.59 6.17 9.51 6.23-9.89-5.97-9.81-6.02-19.49-12.13-19.3-12.25-9.59-6.17zM341.15 549.93c2.49-.25 4.99-.41 7.49-.56 2.5-.16 5.02-.26 7.53-.37 2.52-.08 5.03-.17 7.55-.19 2.52-.03 5.04-.05 7.56.01-2.5.25-5 .41-7.51.56-2.5.16-5.01.26-7.52.36-2.51.08-5.02.17-7.54.19-2.5.04-5.02.06-7.56 0zM295.35 561.33c6.65-1.25 13.33-2.42 20.02-3.57 6.68-1.17 13.4-2.24 20.11-3.34 3.36-.55 6.72-1.06 10.12-1.54.88-.12 1.78-.19 2.64-.21l2.59-.1 5.18-.18c6.91-.18 13.82-.35 20.74-.41-6.89.4-13.79.7-20.68 1.02l-5.17.22c-1.71.1-3.48.1-5.08.34-3.36.48-6.71 1.05-10.08 1.56l-20.17 3.16c-6.72 1.05-13.46 2.08-20.22 3.05zM301.02 564.78c6.45-1.25 12.93-2.43 19.42-3.58 6.48-1.18 13-2.25 19.51-3.36 3.26-.55 6.52-1.07 9.81-1.57.83-.12 1.63-.25 2.52-.34.87-.08 1.7-.1 2.54-.14l5.04-.18c6.72-.18 13.44-.34 20.16-.38-6.7.4-13.41.7-20.11 1.02l-5.02.22c-.83.05-1.68.07-2.47.15-.77.09-1.6.22-2.41.35l-9.78 1.58c-6.53 1.04-13.03 2.16-19.57 3.18-6.55 1.04-13.08 2.07-19.64 3.05zM306.75 567.75c6.53-1.08 13.09-2.09 19.66-3.08 6.56-1.01 13.15-1.92 19.73-2.86 3.31-.46 6.55-.94 9.96-1.28l10.04-.71c6.7-.42 13.41-.86 20.13-1.18-6.66.67-13.34 1.24-20.02 1.81l-10.03.79c-3.24.35-6.57.86-9.86 1.28-6.6.88-13.17 1.83-19.78 2.68-6.6.88-13.21 1.74-19.83 2.55zM403.4 557.98c6.11-1.19 12.28-2.24 18.5-3.16 1.56-.23 3.11-.47 4.68-.67.79-.1 1.57-.19 2.41-.26l2.38-.15 9.51-.58c6.34-.4 12.68-.73 19.02-1.1 6.34-.36 12.69-.69 19.04-1-6.32.5-12.65.98-18.98 1.43-6.33.44-12.66.92-18.99 1.32l-9.5.63-2.37.16c-.74.07-1.53.17-2.3.27l-4.67.62c-6.22.89-12.46 1.75-18.73 2.49zM398.06 554.13a469.7 469.7 0 0 1 18.12-2.46c3.04-.35 6.05-.74 9.17-.93l9.2-.61c6.13-.42 12.27-.77 18.4-1.15 6.13-.38 12.28-.72 18.42-1.04-6.11.51-12.23 1.02-18.35 1.48-6.12.46-12.24.95-18.37 1.37l-9.19.65c-1.53.09-3 .27-4.54.43l-4.56.48c-6.08.67-12.18 1.27-18.3 1.78zM392.85 550.66c5.97-.9 11.97-1.71 18-2.4 3.02-.34 6.01-.73 9.09-.97l9.17-.44c6.1-.3 12.21-.54 18.32-.79 6.11-.26 12.22-.47 18.33-.67-6.09.4-12.18.78-18.28 1.12-6.09.35-12.19.7-18.29 1-3.04.16-6.11.3-9.13.49l-9.04.93c-6.03.65-12.09 1.22-18.17 1.73zM388.32 548.01c5.84-1.3 11.78-2.37 17.78-3.3.75-.12 1.51-.22 2.28-.3.78-.1 1.6-.14 2.36-.16l4.61-.15 9.22-.27c12.29-.31 24.59-.59 36.89-.76-12.28.53-24.56.97-36.85 1.4l-9.21.31-4.6.17c-1.53.01-2.93.29-4.46.48-5.99.85-11.96 1.84-18.02 2.58zM383.41 544.85c5.84-1.31 11.78-2.37 17.78-3.3.75-.12 1.51-.22 2.28-.3.78-.1 1.6-.14 2.36-.16l4.61-.15 9.22-.27c12.29-.31 24.59-.59 36.89-.76-12.28.53-24.56.97-36.85 1.4l-9.21.31-4.6.17c-1.53.01-2.93.29-4.46.48-5.99.85-11.96 1.84-18.02 2.58zM378.5 541.7c5.84-1.31 11.78-2.37 17.78-3.3.75-.12 1.51-.22 2.28-.3.78-.1 1.6-.14 2.36-.16l4.61-.15 9.22-.27c12.29-.31 24.59-.59 36.89-.76-12.28.53-24.56.97-36.85 1.4l-9.21.31-4.6.17c-1.53.01-2.93.29-4.46.48-5.99.85-11.96 1.83-18.02 2.58zM373.59 538.54c5.84-1.3 11.78-2.37 17.78-3.3.75-.12 1.51-.22 2.28-.3.78-.1 1.6-.14 2.36-.16l4.61-.15 9.22-.27c12.29-.31 24.59-.59 36.89-.76-12.28.53-24.56.97-36.85 1.4l-9.21.31-4.6.17c-1.53.01-2.93.29-4.46.48-5.99.85-11.96 1.84-18.02 2.58zM366.95 535.7c5.84-1.3 11.78-2.37 17.78-3.3.75-.12 1.51-.22 2.28-.3.78-.1 1.6-.14 2.36-.16l4.61-.15 9.22-.27c12.29-.31 24.59-.59 36.89-.76-12.28.53-24.56.97-36.85 1.4l-9.21.31-4.6.17c-1.53.01-2.93.29-4.46.48-5.99.85-11.96 1.84-18.02 2.58zM360.49 532.91c5.84-1.3 11.78-2.37 17.78-3.3.75-.12 1.51-.22 2.28-.3.78-.1 1.6-.14 2.36-.16l4.61-.15 9.22-.27c12.29-.31 24.59-.59 36.89-.76-12.28.53-24.56.97-36.85 1.4l-9.21.31-4.6.17c-1.53.01-2.93.29-4.46.48-5.99.85-11.96 1.84-18.02 2.58zM355.58 529.75c5.83-1.3 11.76-2.36 17.75-3.3.75-.12 1.5-.22 2.28-.31.77-.1 1.59-.14 2.36-.16l4.61-.1 9.21-.16c12.28-.17 24.56-.29 36.85-.31-12.27.38-24.55.67-36.82.95l-9.2.2-4.6.12c-1.51 0-2.92.29-4.45.47-5.98.87-11.94 1.86-17.99 2.6zM350.67 526.59c5.82-1.3 11.74-2.36 17.72-3.29.75-.12 1.5-.22 2.27-.31.76-.11 1.59-.14 2.37-.15l4.61-.05 9.2-.04c12.26 0 24.53.04 36.79.2-12.26.21-24.52.32-36.78.45l-9.19.08-4.59.07c-1.49-.02-2.91.29-4.43.47-5.97.85-11.93 1.83-17.97 2.57zM345.77 523.44c5.81-1.3 11.71-2.35 17.69-3.29.75-.12 1.5-.22 2.27-.31.76-.11 1.59-.14 2.37-.14l4.6.04 9.18.15c6.12.12 12.23.29 18.35.45 6.11.17 12.23.36 18.34.58-12.24-.07-24.48-.24-36.71-.38l-9.17-.11-4.57-.02c-1.46-.03-2.9.28-4.41.46-5.98.85-11.92 1.83-17.94 2.57zM312.3 572c6.65-.97 13.31-1.88 19.99-2.76 6.67-.9 13.36-1.7 20.05-2.54 3.35-.42 6.67-.8 10.09-1.15l10.13-.84c6.76-.52 13.51-1.04 20.29-1.46-6.71.76-13.45 1.41-20.18 2.07l-10.11.93c-3.31.34-6.67.8-10.02 1.18l-20.1 2.36c-6.7.77-13.41 1.52-20.14 2.21zM407.18 561.59c6.7-.88 13.42-1.69 20.14-2.48 6.72-.8 13.46-1.52 20.2-2.26 3.38-.37 6.72-.71 10.16-1.01l10.18-.7c6.79-.43 13.59-.86 20.4-1.19-6.76.66-13.54 1.23-20.31 1.79l-10.17.79c-3.33.3-6.72.71-10.09 1.04l-20.24 2.08c-6.74.68-13.5 1.34-20.27 1.94z"/></g></g><g><path class="st8" d="M212.23 280.22c15.19 68.42 47.08 150.54 60.85 163.93 17.41 16.93 133.2 48.59 138.98 49.26 14.32 1.55 42.53-94.02 27.29-96.33-23.2-3.52-106.39-16.1-111.41-21.33-5.21-5.47-40.53-50.68-76.82-101.73-25.05-35.27-48.32-36.25-38.89 6.2z"/><path class="st8" d="M400.74 489.8c1.58.82 24.07 12.33 37.99 16.47 10.39 3.09 40.53 11.19 45.07.09 3.11-7.57-14.06-14.42-26.09-19.53-6.34-2.69-14.12-9.4-12.22-13.48 3.33-7.12 19.64.17 30.36 6.5 20.72 12.24 48.29 34.2 61.07 23.74 4.83-3.96-.7-11.26-8.81-18.45 13.19 8.4 27.26 15.31 32.8 11.13 3.18-2.38 3.35-5.68 1.62-9.46 4.08 1.36 7.7 1.12 10.23-1.52 4.34-4.47 2.29-11.14-2.37-17.99 1.51-.15 2.87-.91 3.93-2.54 9.22-13.83-36.12-54.07-51.88-57.92-46.35-11.37-95.29-9.67-95.29-9.67-18.33 14.45-26.44 92.59-26.41 92.63z"/><path class="st0" d="M469.32 447.55c10.92 1.79 21.66 5.96 30.88 12.14 11.71 7.85 19.46 17 29.27 26.23.26.24-.11.65-.37.41-4.67-4.39-24.05-20.89-29.07-24.65-9.18-6.88-19.46-11.74-30.76-13.95-.11-.02-.07-.2.05-.18zM478.12 427.91c12.18 3.42 24.66 6.89 35.94 12.74 12.35 6.41 21.97 16.77 31.44 26.75 5.68 5.99 11.24 12.1 16.65 18.35.23.26-.13.67-.37.41a684.743 684.743 0 0 0-29.73-30.04c-9.61-9.13-20.35-16.13-32.71-20.95-6.96-2.71-14.12-4.88-21.27-7.05-.13-.04-.09-.25.05-.21zM491.28 410.78c11.84 2.52 22.17 4.68 32.62 11.11 13.84 8.51 27.15 22.78 31.82 27.84 5.16 5.59 10.13 11.34 15.01 17.17.2.24-.21.59-.41.35-11.16-12.75-23.19-24.88-35.91-36.08-6.08-5.35-12.69-10.03-20.13-13.3-7.35-3.23-15.25-5.09-23.02-7.01-.05-.02-.03-.1.02-.08z"/><g><path class="st2" d="m420.97 384-36.49 112.76s-96.39-28.27-113.91-47.44c-17.51-19.17-49.38-117.7-58.62-165.41-9.24-47.71 14.84-46.36 36.77-16.16 21.92 30.2 76.52 103.4 79.59 105 3.06 1.62 92.66 11.25 92.66 11.25z"/><path class="st0" d="M373.87 445.13c4.13-12.59 8.37-25.15 12.03-37.9 2.08-7.24 4.2-14.48 6.22-21.74.08-.27-.38-.45-.49-.18-4.65 12.47-9.28 24.98-13.36 37.67-4.06 12.62-8.22 25.2-12.11 37.88a371.33 371.33 0 0 0-5.97 21.8c-.04.15.2.23.26.09 5.07-12.31 9.26-24.94 13.42-37.62z"/><path class="st5" d="M335.87 480.88c-1.42-.51-2.85-1.02-4.27-1.53-8.03-2.93-16.21-6.08-23.91-9.29-1-.4-1.97-.82-2.94-1.23-1.55-.65-3.09-1.33-4.59-2-.76-.33-1.49-.67-2.24-1-.27-.13-.53-.24-.8-.36-.78-.36-1.55-.72-2.31-1.09-3.06-1.43-5.96-2.86-8.66-4.31-.62-.33-1.26-.67-1.87-1.01-4.92-2.71-9.01-5.38-11.86-7.92-.34-.31-.67-.61-.97-.92-.34-.31-.62-.61-.89-.9-17.52-19.16-49.39-117.69-58.63-165.41-.1-.55-.21-1.11-.31-1.64-.02-.12-.03-.23-.05-.36-.62-3.63-1.15-8.11-1.58-12.96v-.05c-1.17-23.72 10.08-27.51 23.87-16.99 34.17 74.47 86.22 197.39 102.01 228.97z"/></g><g><path class="st2" d="M292.43 511.19 55.1 510.8c.56-4.68 67.48-226.38 112.96-264.19 19.39-16.11 55.03-4.29 59.56-.59 43.98 35.92 68.13 262.43 64.81 265.17z"/></g><g><path class="st8" d="M150.87 275.22C99.02 338.28 38.86 463.69 54.49 487.16c17.41 26.14 88.94-59.35 88.21-64.06-.56-3.56 20.71-80.06 37.04-135.77 16.32-55.67-16.05-27.71-28.87-12.11z"/><path class="st2" d="M143.24 423.14c1.71-8.13 30.92-109.11 39.01-140.93 8.08-31.83-2.87-40.46-31.39-9.39S63.93 399.63 52.94 451.13c-10.6 49.6 13.11 52.15 43.87 26.94 25.17-20.65 46.43-54.93 46.43-54.93z"/><path class="st0" d="M139.52 436.19c2.24-9.57 4.7-19.09 7.19-28.59 2.49-9.51 5.15-18.96 7.71-28.45 2.72-9.44 5.36-18.9 8.16-28.32l4.24-14.12c1.48-4.69 2.9-9.39 4.45-14.06-1.1 4.79-2.33 9.55-3.49 14.32l-3.7 14.27c-2.49 9.5-5.14 18.96-7.71 28.45-2.73 9.44-5.36 18.9-8.16 28.32-2.81 9.42-5.64 18.83-8.69 28.18z"/><path class="st0" d="M165.51 344.73c.73-2.55 1.84-4.88 3.03-7.16 1.22-2.27 2.57-4.46 4.16-6.56-.51 2.62-1.64 4.98-2.82 7.27-1.24 2.27-2.6 4.48-4.37 6.45z"/></g><g><path class="st8" d="M55.1 488.22c15.06 17.86 47.89 19.33 140.04 28.85 12.75 1.32 48.89-87.89 35.35-89.99-17.06-2.65-83.84-9.25-88.78-9.12-41.71 1.12-96.83 58.14-86.61 70.26z"/><path class="st1" d="M279.66 402.43s-10.02-17.86 2.71-23.7 19.74 13.4 19.74 13.4l-22.45 10.3z"/><path class="st1" d="M361.86 522.25v.02l-1.04 20.01-.3 6.61-5.27-4.03-15.86-12.28h-.02v-.03L279.31 401.7l22.46-10.31 60.06 130.87.03-.01z"/><path class="st9" d="m360.83 542.28-.32 6.61-5.26-4.05z"/><path transform="rotate(-24.66 291.401 398.444)" class="st9" d="M276.99 395.57h28.85v5.72h-28.85z"/><path transform="rotate(-24.66 294.047 404.2)" class="st9" d="M279.63 401.32h28.85v5.72h-28.85z"/><path class="st9" d="m282.14 412.81 8.46-3.89 17.07 49.49-3.2 1.25z"/><g><path class="st8" d="M344.32 481.07c-4.01 11.02-30.35-1.18-30.35-1.18s5 6.38 4.17 14.12c-.95 8.87-15.27 11.26-15.27 11.26s3.73 7.5 2.03 15.59c-1.76 8.39-15.87 12.87-15.87 12.87s-.37 8.89-6.85 14.83c-11.09 10.15-33.21 4.01-47.31.25-14.1-3.76-52.64-30.91-60.05-34.76l25.43-87.43s68.03-1.12 83.98 5.65c13.43 5.71 66.22 31.95 60.09 48.8z"/><path class="st0" d="M313.85 479.49c-12.83-9.5-27.91-15.91-42.53-21.93-.33-.13-.53.38-.2.51 14.61 5.82 28.01 15.69 42.36 22.08.4.18.72-.4.37-.66zM302.88 504.01c-2.97-2.06-6.61-3.14-9.98-4.34-3.64-1.29-7.29-2.51-10.97-3.68-7.36-2.34-14.77-4.52-22.24-6.47-.33-.09-.55.4-.2.51 7.33 2.35 14.62 4.8 21.85 7.45a775.3 775.3 0 0 1 10.81 4.07c3.34 1.29 6.76 2.92 10.34 3.44.52.07.84-.67.39-.98zM288.72 533.62c-2.51-1.9-6.22-2.55-9.19-3.42-3.37-1-6.74-2.01-10.11-3.05-6.73-2.07-13.45-4.14-20.1-6.44-.33-.11-.54.39-.2.51 6.74 2.37 13.45 4.84 20.22 7.15 3.32 1.14 6.65 2.25 9.98 3.35 2.83.93 6.27 2.42 9.31 2.24.17 0 .21-.24.09-.34z"/></g><g><path class="st2" d="m220 423.86-71.31 95.53s-80.91-11.51-94.6-31.01c-9.01-12.84 45.43-72.8 91.6-70.54l74.31 6.02z"/><path class="st0" d="M92.61 437.16c6.87-6 26.44-20.29 53.14-19.38.23.01.28.38.04.4-19.95 1.24-45.87 14.09-52.98 19.29-.18.13-.37-.16-.2-.31zM125.66 506.57c7.28-10.92 15.13-21.45 23.02-31.95 7.89-10.51 15.76-21.04 23.91-31.35 4.61-5.83 9.18-11.68 13.99-17.35.13-.15.41.02.29.19-7.26 10.91-15.08 21.48-22.88 32.02-7.82 10.56-15.76 21.05-23.78 31.46-4.54 5.88-9.18 11.68-13.99 17.35-.25.28-.77-.05-.56-.37z"/><path class="st0" d="M220.04 422.7c-4.99-1.16-10.08-1.55-15.18-2.04-5.09-.48-10.19-.88-15.29-1.23-10.15-.7-31.57-3.33-50.03-1.6-.2.02.93.91 1.13.89 8.75-1.27 72.9 5.54 78.11 5.44-.17.36-.34.71-.46 1.1-.08.26.2.57.46.36.61-.49 1.02-1.08 1.59-1.62.46-.43.32-1.15-.33-1.3zM103.89 510.88c-7.8-1.31-15.4-3.53-22.83-6.22-7.37-2.77-14.71-6.01-21.09-10.73 3.58 1.69 7.2 3.17 10.82 4.65a426.6 426.6 0 0 0 10.97 4.18c7.35 2.73 14.76 5.28 22.13 8.12z"/></g></g><g><path class="st2" d="M223.17 289.97s-45.45-28.68-69.6-22.62l-16.72 22.77s-6.31 3.68-9.32-.17c-7.47-9.51-14.02-35 4.51-56.42 16.97-19.62 50.36-25.6 79.58-24.25 28.06 1.3 54.89 13.98 50.46 33.05-4.44 19.07-38.91 47.64-38.91 47.64z"/><path class="st5" d="M224.09 281.26s25.8-28.28 26.17-41.87c.37-13.59-28.09-20.36-45.8-21.61-27.42-1.93-44.64 3.49-56.14 20.37-11.51 16.88 75.77 43.11 75.77 43.11z"/><path class="st8" d="M225.96 278.54c-12.24 5.67-38.33-9.48-50.3-23.63-.82-.97-1.49-12.83-2.99-27.19-.95-8.71-2.21-18.39-3.99-27.14-.38-1.79 57.59 2.13 57.59 2.13s-1.65 19.44 1.56 34.67c.28 1.27.65 2.43 1.11 3.51.05.16.14.35.2.58 2.5 6.61 8.65 31.59-3.18 37.07z"/><path class="st0" d="M172.1 200.13c5.56 14.27 22.06 48.13 51.48 42.81 2.05-.37 3.9-.85 5.55-1.45-.04-.25-.13-.42-.19-.59-.45-1.1-.83-2.24-1.12-3.5-3.21-15.26-1.55-34.7-1.55-34.7s-41.82-2.82-54.17-2.57z"/><path class="st8" d="M151.27 132.19c-3.37 20.48 14.62 75.95 30.32 86.76 22.75 15.66 56.21 12.98 68.56-13.51 11.97-25.67-12.76-97.54-29.94-106.97-25.3-13.88-63.96 3.46-68.94 33.72z"/><path class="st0" d="M211.58 159.48c-.08-.13-.23.28-.17.43 1.45 3.65 2.5 8.08-.4 10.51-.09.07-.01.26.11.2 3.87-2.05 2.42-7.91.46-11.14z"/><path class="st0" d="M206.89 156.82c-6.1 1.7-2.26 13.78 3.39 12.21 5.57-1.55 1.73-13.64-3.39-12.21zM232.57 152.94c-.02-.15.35.08.39.24 1.07 3.78 2.93 7.93 6.71 8.1.12.01.17.2.04.22-4.31.72-6.73-4.81-7.14-8.56z"/><path class="st0" d="M234.67 147.96c5.88-2.37 10.18 9.56 4.74 11.75-5.36 2.17-9.66-9.76-4.74-11.75zM200.52 154.32c1.66-.66 3.07-1.54 4.64-2.36 1.77-.92 3.28-1.48 4.28-3.31.54-.98.05-2.55-.85-3.16-2.11-1.42-4.56-.83-6.73.19-2.36 1.11-3.9 2.57-5.03 4.92-1.1 2.29 1.51 4.58 3.69 3.72zM237.41 137.38c-1.76.26-3.43.2-5.2.28-2 .09-3.58.36-5.36-.73-.95-.58-1.32-2.18-.84-3.16 1.11-2.28 3.53-2.99 5.93-3.2 2.6-.22 4.66.28 6.82 1.75 2.09 1.43.98 4.72-1.35 5.06zM216.38 196.25c1.18.59 2.45 1.51 3.85 1.2 1.34-.3 2.68-1.38 3.73-2.22.1-.08.26 0 .22.14-.51 1.75-2.27 3.29-4.11 3.54-1.79.24-3.09-.96-4-2.38-.12-.2.14-.37.31-.28z"/><g><path class="st0" d="M216.76 183.79c3.13 2.58 6.77 3.38 10.31 2.97 1.58-.17 3.16-.62 4.65-1.25.3-.1.59-.23.84-.38.26-.12.5-.23.78-.39.42-.2.54-.64.49-1.08l-.01-.03c-.05-.14-.08-.25-.16-.37l-.01-.03-.11-.33c-.84-2.91-2.51-7.2-2.51-7.2 1.22.19 7.36.9 6.79-.58-4.71-12.23-9.94-25.83-17.2-37-.22-.38-.82-.09-.65.31 4.06 11.93 10.18 23.07 14.45 34.99-1.92-.11-5.1-.42-6.6.08-.37.25 3.38 8.24 3.65 9.58 0 0 .02.05.02.15-4.65 2.16-8.76 1.85-14.49.1-.35-.11-.56.24-.24.46z"/></g><g><path class="st0" d="M229.55 184.59s-1.46 4.26-4.56 6.62c-1.14.87-2.47 1.5-4.05 1.57-3.24.16-4.18-2.56-4.38-5.08-.17-2.07.2-4.02.2-4.02s5.66 2.7 12.79.91z"/><path d="M224.99 191.21c-1.14.87-2.47 1.5-4.05 1.57-3.24.16-4.18-2.56-4.38-5.08 3.31-.69 7.17.48 8.43 3.51z" style="fill:#ff98b9"/></g><g><path d="M173.19 162.39c2.43-12.02-6.63-30.46-1.54-36.36 11.02-12.79 39.25 5.41 56.77 3.28 16.97-2.07 21.25-13.7 16.42-27.07-4.82-13.37-17.7-21.12-37.1-21.53-20.07-.42-37 9.81-45.96 17.31 0 0 3.4-7.42 1.53-9.35-1.87-1.93-9.34 5.74-11.52 8.88-2.21 3.19-3.1 8.71-3.1 8.71s-3.21-.52-7.85.19c-4.3.66-9.3 4.74-9.48 5.79-.18 1.05 6.1 1.05 10.45.72 0 0-6.7 11.75-5.35 20.9 1.35 9.15 21.19 50.88 24.68 50.91 4.49.03 11.06-17.5 12.05-22.38z"/><path d="M143.35 111.63c.14-.11.37.07.24.22-3.67 4.09-6.48 8.67-7.51 14.14-1.2 6.37.06 12.9 2.23 18.92 4.23 11.7 11.51 21.87 18.05 32.33.19.31-.32.64-.53.35-7.64-10.64-15.5-22.24-19.48-34.83-3.39-10.72-2.46-23.68 7-31.13zM170.4 121.66c4.89-1.33 10.49-1.57 15.51-.96 4.95.6 9.43 3.06 14.02 4.84 10.3 4 21.39 6.71 32.44 4.6.14-.03.18.18.04.22-10.02 2.58-20.35.82-29.97-2.52-4.85-1.69-9.57-4.39-14.59-5.48-5.71-1.24-11.57-.41-17.3.21-.58.07-.72-.75-.15-.91zM171.62 91.87c6.37-4.36 13.51-7.59 20.84-9.97 7.04-2.28 14.41-3.82 21.84-3.57 12.83.44 25.41 6.96 30 19.49 2.33 6.35 2.56 13.62-.05 19.92-.18.43-.81.19-.67-.25 3.72-11.96-.06-25.4-10.71-32.5-11.44-7.62-26-6.46-38.6-2.76-7.93 2.33-15.35 5.81-22.6 9.72-.05.02-.1-.05-.05-.08z"/></g><g><path class="st2" d="M209.58 185.49c-7.62 1.45-15.56-2.37-18.99-9.71-4.06-8.68-.3-19.04 8.38-23.1 8.68-4.06 19.04-.3 23.1 8.38 4.06 8.68.3 19.04-8.38 23.1-1.34.62-2.72 1.07-4.11 1.33zm-6.06-31.86c-1.2.23-2.4.61-3.56 1.15-7.52 3.52-10.78 12.49-7.26 20.01 3.52 7.52 12.5 10.78 20.01 7.26 7.52-3.52 10.77-12.49 7.26-20.01-2.97-6.36-9.85-9.67-16.45-8.41zM247.56 173.31c-6.53 1.24-13.73-4.32-16.45-12.97-1.38-4.36-1.43-8.87-.15-12.69 1.32-3.95 3.9-6.71 7.27-7.77 3.37-1.07 7.06-.28 10.41 2.2 3.24 2.4 5.78 6.12 7.15 10.49 2.88 9.14-.32 18.32-7.12 20.46-.37.12-.74.21-1.11.28zm-7.78-31.42c-.29.05-.57.13-.86.22-2.63.83-4.68 3.06-5.77 6.29-1.12 3.36-1.07 7.35.16 11.25 2.5 7.92 9.05 12.94 14.65 11.17 5.58-1.76 8.09-9.63 5.6-17.54-1.23-3.9-3.47-7.21-6.32-9.32-2.43-1.81-5.05-2.53-7.46-2.07z"/><path class="st2" d="m222.12 163.15-1.96-1.25c1.85-2.9 6.77-7.57 12.18-4.51l-1.14 2.02c-4.84-2.75-8.91 3.48-9.08 3.74zM149.61 190.66l-2.29-.4c.19-1.07 1.95-10.5 6.64-12.86 4.39-2.19 34.97-8.76 36.27-9.04l.49 2.27c-8.77 1.87-32.32 7.14-35.71 8.84-3.1 1.57-4.94 8.61-5.4 11.19z"/></g><g><path class="st8" d="M169.62 176.91s-15.65-16.36-23.26-10.5c-7.61 5.85 6.12 30.94 16.45 33.07 10.33 2.13 12.49-7.39 12.49-7.39l-5.68-15.18z"/><path class="st0" d="M150.48 173.5c-.16.01-.16.23-.01.27 7.28 1.72 11.86 7.51 15.4 13.71-2.43-2.22-5.42-3.18-8.44-.23-.16.15.06.41.24.34 2.71-1.03 4.81-.86 7.05 1.1 1.59 1.38 2.81 3.25 4.06 4.94.42.56 1.47.07 1.13-.6-.03-.05-.05-.1-.08-.15-1.17-8.78-9.85-19.95-19.35-19.38z"/></g><path class="st2" d="M224.09 281.26s-41.06-44.51-79.75-41.48l9.23 27.58s22.45-4.76 69.6 22.62l.92-8.72z"/><g><path class="st0" d="M143.54 270.04c6.7-2.33 13.87-2.28 20.77-1.63 6.95.67 13.74 2.42 20.34 4.66 6.64 2.14 13.02 5.01 19.33 8.02l9.28 4.91 9.06 5.34 1.02.6.84-.69c6.29-5.13 12.14-10.66 17.65-16.57 2.74-2.96 5.43-5.98 7.8-9.25 2.38-3.25 4.65-6.62 6.35-10.26-4.37 6.75-9.97 12.46-15.67 18.02-2.87 2.76-5.86 5.4-8.89 7.98-3.03 2.57-6.09 5.16-9.22 7.55l1.86-.09-9.12-5.56c-3.11-1.73-6.27-3.39-9.43-5.04-3.26-1.47-6.48-3-9.79-4.35-3.36-1.23-6.67-2.58-10.14-3.5-6.83-2.14-13.96-3.37-21.11-3.7-1.78-.12-3.59-.04-5.37-.02-1.79.16-3.57.26-5.34.56-3.55.49-7.08 1.36-10.22 3.02z"/><path class="st0" d="M136.85 290.12c3.33-3.4 6.24-7.1 9.06-10.87 2.76-3.81 5.42-7.7 7.66-11.9-3.33 3.39-6.25 7.09-9.06 10.87-2.76 3.82-5.42 7.7-7.66 11.9z"/></g><g><path class="st2" d="M205.65 272.57s-1.38 15.16.76 36.59c.85 8.48 7.79 38.43 17.06 36.19 9.27-2.24-8.43-19.96-13.06-35.64-4.7-15.91-1.78-27.92-2.37-37.57l-2.39.43z"/><path d="M205.65 272.57s-1.38 15.16.76 36.59c.85 8.48 7.79 38.43 17.06 36.19 9.27-2.24-8.43-19.96-13.06-35.64-4.7-15.91-1.78-27.92-2.37-37.57l-2.39.43z" class="st5"/></g><g><path class="st2" d="M239.78 266.43s5.96 12.45 10.91 31.34c1.96 7.48 5.52 35.13-3.07 36.15-8.59 1.03.85-19.63-.16-34.42-1.03-15.01-7.31-24.29-9.85-32.68l2.17-.39z"/><path d="M239.78 266.43s5.96 12.45 10.91 31.34c1.96 7.48 5.52 35.13-3.07 36.15-8.59 1.03.85-19.63-.16-34.42-1.03-15.01-7.31-24.29-9.85-32.68l2.17-.39z" class="st5"/></g></g></g><g><path class="st1" d="M407.76 501.56h224.46v10.07H407.76z"/><path class="st0" d="M407.76 501.57h112.97v10.07H407.76z"/><g><path class="st9" d="m518.11 511.62 218.75-.04 30.88-148.57-218.75.04z"/><path class="st4" d="M625.97 440.63c-.84 8.05 5 14.58 13.05 14.58s15.26-6.53 16.11-14.58c.85-8.05-5-14.58-13.05-14.58s-15.27 6.53-16.11 14.58z"/></g></g></svg>