<?xml version="1.0" encoding="utf-8"?>
<!-- Generator: Adobe Illustrator 23.0.3, SVG Export Plug-In . SVG Version: 6.00 Build 0)  -->
<svg version="1.1" id="Capa_1" xmlns="http://www.w3.org/2000/svg" xmlns:xlink="http://www.w3.org/1999/xlink" x="0px" y="0px"
	 viewBox="0 0 924 654" style="enable-background:new 0 0 924 654;" xml:space="preserve">
<style type="text/css">
	.st0{fill:#263238;}
	.st1{fill:#455A64;}
	.st2{fill:#FFC727;}
	.st3{opacity:0.2;}
	.st4{fill:#FFFFFF;}
	.st5{opacity:0.1;}
	.st6{fill:#EBEBEB;}
	.st7{fill:#C7C7C7;}
	.st8{fill:#D3766A;}
	.st9{fill:#37474F;}
	.st10{fill:#FF98B9;}
</style>
<g>
	<polygon class="st0" points="51.42,510.85 154.49,510.36 257.57,510.18 463.71,509.85 669.86,510.18 772.93,510.36 876,510.85 
		772.93,511.35 669.86,511.53 463.71,511.86 257.57,511.52 154.49,511.34 	"/>
	<g>
		<g>
			<g>
				<g>
					<path class="st1" d="M813.15,335.58c-10.25,0-30.99-8.06-27.49-14.83c3.42-6.62,14.16,1.92,14.61,2.18
						c-0.3-0.5-7.23-14.02-1.06-16.36c6.31-2.41,12.4,4.17,13.94,11.67c1.54-7.5,7.63-14.08,13.94-11.67
						c6.17,2.34-0.76,15.86-1.06,16.36c0.45-0.26,11.19-8.81,14.61-2.18C844.13,327.52,823.4,335.58,813.15,335.58z"/>
					<g>
						<path class="st2" d="M864.89,390.84c-0.47,5.39-1.32,11.14-2.61,16.81c-2.43,11.01-6.44,21.69-12.16,28.84
							c0,0-16.57,6.99-37.09,6.99c-20.51,0-37.09-6.99-37.09-6.99c-12.23-15.26-16.59-46.68-14.84-62.83
							c3.15-29.18,20.58-40.33,35.71-44.32c0-0.01,0-0.01,0.01-0.01c6.15-1.62,11.93-2.07,16.21-2.07
							c14.83,0,47.49,5.35,51.93,46.41C865.48,378.35,865.47,384.33,864.89,390.84z"/>
						<path class="st3" d="M864.89,390.84c-0.47,5.39-1.32,11.14-2.61,16.81c-2.43,11.01-6.44,21.69-12.16,28.84
							c0,0-16.57,6.99-37.09,6.99c-20.51,0-37.09-6.99-37.09-6.99c-12.23-15.26-16.59-46.68-14.84-62.83
							c3.15-29.18,20.58-40.33,35.71-44.32c0-0.01,0-0.01,0.01-0.01c6.15-1.62,11.93-2.07,16.21-2.07
							c14.83,0,47.49,5.35,51.93,46.41C865.48,378.35,865.47,384.33,864.89,390.84z"/>
						<g>
							<g>
								<path class="st4" d="M814.11,327.25c0.42,9.69,0.65,19.38,0.83,29.07c0.18,9.69,0.23,19.38,0.27,29.08
									c-0.06,9.69-0.1,19.39-0.38,29.08c-0.36,9.68-0.49,19.42-2.03,29.01l0.38-3.61l0.2-3.63c0.16-2.41,0.16-4.84,0.24-7.26
									c0.12-4.84,0.2-9.68,0.21-14.53c0.07-9.69,0.13-19.37,0.08-29.06l0.04-29.07C813.97,346.63,813.99,336.94,814.11,327.25z"/>
								<path class="st4" d="M807.82,327.45c-1.47,4.61-2.57,9.33-3.47,14.07c-0.97,4.73-1.67,9.51-2.28,14.3
									c-1.19,9.58-1.82,19.23-1.99,28.88l-0.08,7.24c-0.04,2.41,0.09,4.83,0.13,7.24c0.03,4.83,0.43,9.65,0.66,14.48
									c0.09,2.42,0.33,4.82,0.55,7.23l0.64,7.22l1.64,14.42c-0.8-4.77-1.57-9.55-2.28-14.35l-0.83-7.22
									c-0.27-2.41-0.58-4.81-0.73-7.23c-0.39-4.83-0.75-9.67-0.84-14.52c-0.06-2.42-0.21-4.85-0.19-7.27l0.02-7.27
									c0.28-9.69,0.9-19.39,2.31-28.99C802.54,346.11,804.43,336.53,807.82,327.45z"/>
								<path class="st4" d="M799.42,328.65c-3.03,3.92-5.38,8.29-7.35,12.8c-0.48,1.14-1.01,2.25-1.45,3.4l-1.24,3.48l-0.62,1.74
									c-0.18,0.59-0.33,1.18-0.5,1.78l-0.99,3.56c-2.45,9.54-3.43,19.4-3.35,29.23l0.16,7.38l0.72,7.35l0.36,3.68
									c0.17,1.22,0.42,2.43,0.62,3.64l1.25,7.29c0.17,1.22,0.48,2.42,0.77,3.61l0.88,3.59l1.75,7.2l4.38,14.17
									c-1.7-4.64-3.33-9.32-4.99-13.99l-1.94-7.17l-0.97-3.59c-0.33-1.2-0.67-2.39-0.87-3.61l-1.38-7.31
									c-0.22-1.22-0.47-2.44-0.66-3.66l-0.4-3.7l-0.78-7.41l-0.22-7.45c0.03-9.92,1.01-19.91,3.69-29.5l1.08-3.57
									c0.18-0.59,0.35-1.19,0.55-1.78l0.67-1.74l1.34-3.48c0.48-1.15,1.03-2.26,1.55-3.39
									C793.66,336.73,796.16,332.38,799.42,328.65z"/>
								<path class="st4" d="M793.24,330.32c-3.88,3.2-7.18,7.03-10.02,11.13c-2.88,4.09-5.28,8.5-7.15,13.12
									c-3.77,9.23-5.68,19.2-5.63,29.18c-0.09,2.49,0.1,4.98,0.19,7.48c0.27,2.48,0.4,4.98,0.83,7.44l0.57,3.7l0.76,3.67
									c0.24,1.23,0.5,2.45,0.83,3.66l0.91,3.64c0.64,2.42,1.43,4.8,2.13,7.2l2.52,7.08l2.79,6.99l3.06,6.89
									c-4.69-8.89-8.67-18.19-11.47-27.88c-0.64-2.44-1.42-4.84-1.88-7.33l-0.79-3.7l-0.6-3.74c-0.46-2.49-0.61-5.01-0.9-7.52
									c-0.11-2.53-0.33-5.05-0.25-7.58c0.06-10.11,1.99-20.27,6.02-29.56c2.01-4.64,4.54-9.06,7.56-13.11
									c1.52-2.02,3.13-3.96,4.89-5.77C789.34,333.5,791.2,331.79,793.24,330.32z"/>
							</g>
							<g>
								<path class="st4" d="M820.02,327.51c3.39,9.09,5.28,18.66,6.74,28.24c1.41,9.6,2.03,19.3,2.31,28.99l0.02,7.27
									c0.02,2.42-0.13,4.85-0.19,7.27c-0.1,4.85-0.46,9.68-0.84,14.52c-0.15,2.42-0.45,4.82-0.73,7.23l-0.83,7.22
									c-0.71,4.79-1.48,9.57-2.28,14.35l1.64-14.42l0.64-7.22c0.21-2.41,0.46-4.81,0.55-7.23c0.23-4.83,0.62-9.64,0.66-14.48
									c0.04-2.41,0.17-4.83,0.13-7.24l-0.08-7.24c-0.17-9.65-0.81-19.3-1.99-28.88c-0.61-4.79-1.31-9.57-2.28-14.3
									C822.59,336.84,821.49,332.13,820.02,327.51z"/>
								<path class="st4" d="M828.43,328.72c3.26,3.74,5.75,8.08,7.93,12.53c0.52,1.13,1.07,2.24,1.55,3.39l1.34,3.48l0.67,1.74
									c0.2,0.59,0.37,1.19,0.55,1.78l1.08,3.57c2.68,9.59,3.66,19.57,3.69,29.5l-0.22,7.45l-0.78,7.41l-0.4,3.7
									c-0.19,1.23-0.44,2.44-0.66,3.66l-1.38,7.31c-0.2,1.23-0.54,2.42-0.87,3.62l-0.97,3.59l-1.94,7.17
									c-1.66,4.67-3.29,9.34-4.99,13.99l4.38-14.17l1.75-7.2l0.88-3.59c0.3-1.2,0.61-2.39,0.77-3.61l1.25-7.29
									c0.21-1.21,0.45-2.42,0.62-3.64l0.36-3.68l0.72-7.35l0.16-7.38c0.08-9.83-0.9-19.69-3.35-29.23l-0.99-3.56
									c-0.17-0.59-0.32-1.19-0.5-1.78l-0.62-1.74l-1.24-3.48c-0.44-1.15-0.97-2.26-1.45-3.4
									C833.81,337.01,831.45,332.63,828.43,328.72z"/>
								<path class="st4" d="M834.6,330.39c2.04,1.47,3.9,3.18,5.65,4.99c1.76,1.81,3.37,3.75,4.89,5.77
									c3.01,4.05,5.54,8.46,7.56,13.11c4.03,9.29,5.95,19.45,6.02,29.56c0.08,2.53-0.14,5.06-0.25,7.58
									c-0.3,2.51-0.44,5.04-0.9,7.52l-0.6,3.74l-0.79,3.7c-0.46,2.48-1.24,4.89-1.88,7.33c-2.8,9.69-6.78,19-11.47,27.88
									l3.06-6.89l2.79-6.99l2.52-7.08c0.71-2.4,1.5-4.78,2.13-7.2l0.91-3.64c0.33-1.21,0.59-2.43,0.83-3.66l0.76-3.67l0.57-3.7
									c0.44-2.46,0.56-4.96,0.83-7.44c0.09-2.49,0.28-4.98,0.19-7.48c0.05-9.97-1.86-19.95-5.63-29.18
									c-1.87-4.62-4.27-9.04-7.15-13.12C841.78,337.42,838.48,333.59,834.6,330.39z"/>
							</g>
						</g>
					</g>
					<g>
						<g>
							<path class="st4" d="M810.66,361.88c1.58,2.07,2.96,4.25,4.28,6.47l-0.78,0c0.73-1.31,1.5-2.59,2.29-3.86
								c0.4-0.63,0.81-1.26,1.23-1.88c0.44-0.61,0.85-1.24,1.32-1.83c-0.28,0.7-0.6,1.38-0.91,2.07c-0.32,0.68-0.65,1.35-0.99,2.02
								c-0.69,1.33-1.4,2.65-2.16,3.94l-0.4,0.68l-0.38-0.68C812.88,366.56,811.67,364.28,810.66,361.88z"/>
							<path class="st4" d="M814.22,358.53c0.41,1.66,0.55,3.33,0.62,5.01c0.04,1.68,0.01,3.35-0.29,5.04
								c-0.42-1.66-0.55-3.33-0.62-5.01C813.89,361.89,813.92,360.22,814.22,358.53z"/>
						</g>
						<g>
							<path class="st4" d="M844.23,327.55c0.2,2.59,0.17,5.18,0.07,7.76l-0.66-0.42c1.32-0.7,2.67-1.36,4.03-1.99
								c0.68-0.31,1.37-0.62,2.06-0.91c0.7-0.28,1.39-0.57,2.1-0.82c-0.62,0.44-1.26,0.83-1.89,1.24c-0.64,0.4-1.28,0.78-1.93,1.15
								c-1.3,0.74-2.62,1.46-3.95,2.13l-0.7,0.35l0.04-0.78C843.56,332.68,843.78,330.11,844.23,327.55z"/>
							<path class="st4" d="M849.05,326.67c-0.56,1.62-1.35,3.1-2.21,4.54c-0.88,1.43-1.81,2.82-2.99,4.07
								c0.56-1.62,1.35-3.1,2.21-4.54C846.94,329.32,847.87,327.92,849.05,326.67z"/>
						</g>
						<g>
							<path class="st4" d="M836.19,350.74c1.33,2.23,2.45,4.56,3.51,6.92l-0.77-0.09c0.88-1.21,1.79-2.4,2.72-3.57
								c0.47-0.58,0.95-1.16,1.44-1.73c0.5-0.56,0.99-1.13,1.52-1.67c-0.36,0.67-0.76,1.3-1.14,1.95c-0.4,0.64-0.8,1.27-1.22,1.89
								c-0.84,1.24-1.7,2.47-2.6,3.66l-0.47,0.63l-0.3-0.71C837.87,355.64,836.92,353.24,836.19,350.74z"/>
							<path class="st4" d="M840.12,347.82c0.22,1.7,0.16,3.38,0.04,5.05c-0.15,1.67-0.37,3.33-0.87,4.97
								c-0.22-1.7-0.16-3.38-0.04-5.05C839.4,351.12,839.62,349.46,840.12,347.82z"/>
						</g>
						<g>
							<path class="st4" d="M821.63,427.33c1.58,2.07,2.96,4.25,4.28,6.47l-0.78,0c0.73-1.31,1.5-2.59,2.29-3.86
								c0.4-0.63,0.81-1.26,1.23-1.88c0.44-0.61,0.85-1.24,1.32-1.83c-0.28,0.7-0.6,1.38-0.91,2.07c-0.32,0.68-0.65,1.35-0.99,2.02
								c-0.69,1.33-1.4,2.65-2.16,3.94l-0.4,0.68l-0.38-0.68C823.85,432,822.64,429.72,821.63,427.33z"/>
							<path class="st4" d="M825.19,423.97c0.41,1.66,0.55,3.33,0.62,5.01c0.04,1.67,0.01,3.35-0.29,5.04
								c-0.42-1.66-0.55-3.33-0.62-5.01C824.86,427.34,824.89,425.66,825.19,423.97z"/>
						</g>
						<g>
							<path class="st4" d="M787.52,338.98c0.92,2.43,1.61,4.92,2.23,7.43l-0.75-0.22c1.08-1.04,2.18-2.05,3.31-3.03
								c0.57-0.49,1.14-0.97,1.72-1.45c0.6-0.46,1.17-0.94,1.79-1.37c-0.47,0.59-0.98,1.15-1.47,1.72c-0.5,0.56-1.02,1.1-1.54,1.64
								c-1.04,1.08-2.11,2.13-3.2,3.15l-0.57,0.54l-0.17-0.76C788.3,344.1,787.8,341.57,787.52,338.98z"/>
							<path class="st4" d="M791.9,336.8c-0.08,1.71-0.44,3.35-0.86,4.97c-0.44,1.62-0.95,3.21-1.74,4.74
								c0.08-1.71,0.44-3.35,0.86-4.97C790.61,339.92,791.12,338.32,791.9,336.8z"/>
						</g>
						<g>
							<path class="st4" d="M867.17,366.9c-0.09,2.6-0.42,5.16-0.81,7.71l-0.6-0.49c1.39-0.54,2.8-1.05,4.23-1.52
								c0.71-0.23,1.43-0.46,2.15-0.67c0.73-0.19,1.44-0.41,2.18-0.58c-0.66,0.37-1.34,0.68-2.02,1.02
								c-0.68,0.32-1.36,0.63-2.05,0.92c-1.38,0.59-2.77,1.15-4.17,1.67l-0.74,0.27l0.13-0.77
								C865.92,371.92,866.43,369.39,867.17,366.9z"/>
							<path class="st4" d="M872.06,366.58c-0.74,1.55-1.7,2.92-2.71,4.26c-1.03,1.32-2.12,2.6-3.43,3.7
								c0.74-1.55,1.7-2.92,2.71-4.26C869.66,368.96,870.75,367.69,872.06,366.58z"/>
						</g>
						<g>
							<path class="st4" d="M795.89,395.41c1.61,2.05,3.01,4.21,4.35,6.42l-0.78,0.01c0.72-1.32,1.47-2.61,2.25-3.89
								c0.39-0.64,0.79-1.27,1.21-1.9c0.43-0.62,0.84-1.25,1.3-1.85c-0.27,0.71-0.59,1.39-0.88,2.08c-0.31,0.68-0.64,1.36-0.97,2.03
								c-0.67,1.34-1.37,2.66-2.11,3.96l-0.39,0.68l-0.39-0.67C798.17,400.06,796.93,397.8,795.89,395.41z"/>
							<path class="st4" d="M799.42,392.02c0.43,1.66,0.59,3.33,0.68,5c0.06,1.67,0.05,3.35-0.23,5.04c-0.43-1.66-0.59-3.33-0.68-5
								C799.13,395.39,799.13,393.71,799.42,392.02z"/>
						</g>
						<g>
							<path class="st4" d="M769.11,412.56c2.26,1.3,4.37,2.78,6.44,4.32l-0.72,0.3c0.17-1.49,0.38-2.97,0.63-4.45
								c0.13-0.74,0.26-1.48,0.41-2.21c0.17-0.73,0.31-1.47,0.51-2.2c0.02,0.76-0.03,1.51-0.04,2.26c-0.03,0.75-0.08,1.5-0.14,2.25
								c-0.12,1.49-0.28,2.98-0.48,4.47l-0.1,0.78l-0.61-0.48C772.97,416.02,770.97,414.38,769.11,412.56z"/>
							<path class="st4" d="M771.12,408.09c1.02,1.38,1.79,2.87,2.5,4.39c0.68,1.53,1.3,3.09,1.67,4.76
								c-1.02-1.38-1.79-2.87-2.5-4.39C772.1,411.32,771.48,409.76,771.12,408.09z"/>
						</g>
						<g>
							<path class="st4" d="M762.47,344.51c2.46,0.85,4.81,1.91,7.14,3.03l-0.65,0.43c-0.11-1.49-0.18-2.99-0.22-4.49
								c-0.02-0.75-0.02-1.5-0.01-2.25c0.03-0.75,0.03-1.5,0.09-2.26c0.16,0.74,0.26,1.48,0.38,2.23c0.11,0.74,0.2,1.49,0.28,2.23
								c0.16,1.49,0.29,2.98,0.37,4.48l0.04,0.78l-0.69-0.35C766.91,347.18,764.64,345.95,762.47,344.51z"/>
							<path class="st4" d="M763.59,339.74c1.26,1.16,2.3,2.48,3.28,3.84c0.96,1.37,1.86,2.79,2.54,4.36
								c-1.26-1.16-2.3-2.48-3.28-3.84C765.17,342.73,764.27,341.32,763.59,339.74z"/>
						</g>
						<g>
							<path class="st4" d="M853.88,393.69c1.38,2.2,2.55,4.51,3.65,6.84l-0.78-0.07c0.85-1.23,1.73-2.44,2.65-3.63
								c0.46-0.59,0.92-1.18,1.4-1.76c0.49-0.57,0.97-1.15,1.48-1.7c-0.34,0.67-0.73,1.32-1.1,1.97c-0.38,0.65-0.78,1.28-1.18,1.92
								c-0.81,1.26-1.65,2.5-2.52,3.72l-0.46,0.64l-0.32-0.71C855.65,398.55,854.66,396.17,853.88,393.69z"/>
							<path class="st4" d="M857.74,390.68c0.26,1.69,0.23,3.37,0.14,5.04c-0.12,1.67-0.3,3.34-0.77,4.99
								c-0.26-1.69-0.23-3.37-0.14-5.04C857.1,394,857.28,392.33,857.74,390.68z"/>
						</g>
					</g>
				</g>
			</g>
		</g>
		<g>
			<g>
				<polygon class="st1" points="769.45,437.21 857.53,437.21 848.66,510.85 778.32,510.85 				"/>
				<polygon class="st0" points="769.45,437.21 771.45,453.82 856.02,449.76 857.53,437.21 				"/>
			</g>
			<rect x="763.92" y="427.91" class="st1" width="99.14" height="13.17"/>
		</g>
	</g>
	<g>
		<g>
			<polygon class="st2" points="212.27,533.9 212.27,529.91 425.17,525.17 511.46,561.11 511.46,565.09 300.86,586.74 			"/>
			<polygon class="st5" points="212.27,533.9 212.27,529.91 425.17,525.17 511.46,561.11 511.46,565.09 300.86,586.74 			"/>
		</g>
		<polygon class="st2" points="212.27,529.91 425.17,517.15 511.46,561.11 300.86,582.76 		"/>
		<path class="st6" d="M225.06,530.71l81.08,48.52l197.35-20.2l-83.51-42.2c0,0-57.17-1.35-59.91-1.1
			c-2.74,0.24-29.13,4.26-29.13,4.26s-35.62,0.13-38.1,0.39C290.37,520.63,225.06,530.71,225.06,530.71z"/>
		<g>
			<polygon class="st7" points="330.95,519.98 340.84,525.95 350.65,531.97 370.13,544.09 389.44,556.35 399.03,562.52 
				408.54,568.75 398.65,562.78 388.84,556.76 369.35,544.63 350.05,532.38 340.46,526.21 			"/>
			<path class="st7" d="M341.15,549.93c2.49-0.25,4.99-0.41,7.49-0.56c2.5-0.16,5.02-0.26,7.53-0.37c2.52-0.08,5.03-0.17,7.55-0.19
				c2.52-0.03,5.04-0.05,7.56,0.01c-2.5,0.25-5,0.41-7.51,0.56c-2.5,0.16-5.01,0.26-7.52,0.36c-2.51,0.08-5.02,0.17-7.54,0.19
				C346.21,549.97,343.69,549.99,341.15,549.93z"/>
			<path class="st7" d="M295.35,561.33c6.65-1.25,13.33-2.42,20.02-3.57c6.68-1.17,13.4-2.24,20.11-3.34
				c3.36-0.55,6.72-1.06,10.12-1.54c0.88-0.12,1.78-0.19,2.64-0.21l2.59-0.1l5.18-0.18c6.91-0.18,13.82-0.35,20.74-0.41
				c-6.89,0.4-13.79,0.7-20.68,1.02l-5.17,0.22c-1.71,0.1-3.48,0.1-5.08,0.34c-3.36,0.48-6.71,1.05-10.08,1.56l-20.17,3.16
				C308.85,559.33,302.11,560.36,295.35,561.33z"/>
			<path class="st7" d="M301.02,564.78c6.45-1.25,12.93-2.43,19.42-3.58c6.48-1.18,13-2.25,19.51-3.36
				c3.26-0.55,6.52-1.07,9.81-1.57c0.83-0.12,1.63-0.25,2.52-0.34c0.87-0.08,1.7-0.1,2.54-0.14l5.04-0.18
				c6.72-0.18,13.44-0.34,20.16-0.38c-6.7,0.4-13.41,0.7-20.11,1.02l-5.02,0.22c-0.83,0.05-1.68,0.07-2.47,0.15
				c-0.77,0.09-1.6,0.22-2.41,0.35l-9.78,1.58c-6.53,1.04-13.03,2.16-19.57,3.18C314.11,562.77,307.58,563.8,301.02,564.78z"/>
			<path class="st7" d="M306.75,567.75c6.53-1.08,13.09-2.09,19.66-3.08c6.56-1.01,13.15-1.92,19.73-2.86
				c3.31-0.46,6.55-0.94,9.96-1.28l10.04-0.71c6.7-0.42,13.41-0.86,20.13-1.18c-6.66,0.67-13.34,1.24-20.02,1.81l-10.03,0.79
				c-3.24,0.35-6.57,0.86-9.86,1.28c-6.6,0.88-13.17,1.83-19.78,2.68C319.98,566.08,313.37,566.94,306.75,567.75z"/>
			<path class="st7" d="M403.4,557.98c6.11-1.19,12.28-2.24,18.5-3.16c1.56-0.23,3.11-0.47,4.68-0.67c0.79-0.1,1.57-0.19,2.41-0.26
				l2.38-0.15l9.51-0.58c6.34-0.4,12.68-0.73,19.02-1.1c6.34-0.36,12.69-0.69,19.04-1c-6.32,0.5-12.65,0.98-18.98,1.43
				c-6.33,0.44-12.66,0.92-18.99,1.32l-9.5,0.63l-2.37,0.16c-0.74,0.07-1.53,0.17-2.3,0.27l-4.67,0.62
				C415.91,556.38,409.67,557.24,403.4,557.98z"/>
			<path class="st7" d="M398.06,554.13c6.01-0.93,12.04-1.76,18.12-2.46c3.04-0.35,6.05-0.74,9.17-0.93l9.2-0.61
				c6.13-0.42,12.27-0.77,18.4-1.15c6.13-0.38,12.28-0.72,18.42-1.04c-6.11,0.51-12.23,1.02-18.35,1.48
				c-6.12,0.46-12.24,0.95-18.37,1.37l-9.19,0.65c-1.53,0.09-3,0.27-4.54,0.43l-4.56,0.48
				C410.28,553.02,404.18,553.62,398.06,554.13z"/>
			<path class="st7" d="M392.85,550.66c5.97-0.9,11.97-1.71,18-2.4c3.02-0.34,6.01-0.73,9.09-0.97l9.17-0.44
				c6.1-0.3,12.21-0.54,18.32-0.79c6.11-0.26,12.22-0.47,18.33-0.67c-6.09,0.4-12.18,0.78-18.28,1.12c-6.09,0.35-12.19,0.7-18.29,1
				c-3.04,0.16-6.11,0.3-9.13,0.49l-9.04,0.93C404.99,549.58,398.93,550.15,392.85,550.66z"/>
			<path class="st7" d="M388.32,548.01c5.84-1.3,11.78-2.37,17.78-3.3c0.75-0.12,1.51-0.22,2.28-0.3c0.78-0.1,1.6-0.14,2.36-0.16
				l4.61-0.15l9.22-0.27c12.29-0.31,24.59-0.59,36.89-0.76c-12.28,0.53-24.56,0.97-36.85,1.4l-9.21,0.31l-4.6,0.17
				c-1.53,0.01-2.93,0.29-4.46,0.48C400.35,546.28,394.38,547.27,388.32,548.01z"/>
			<path class="st7" d="M383.41,544.85c5.84-1.31,11.78-2.37,17.78-3.3c0.75-0.12,1.51-0.22,2.28-0.3c0.78-0.1,1.6-0.14,2.36-0.16
				l4.61-0.15l9.22-0.27c12.29-0.31,24.59-0.59,36.89-0.76c-12.28,0.53-24.56,0.97-36.85,1.4l-9.21,0.31l-4.6,0.17
				c-1.53,0.01-2.93,0.29-4.46,0.48C395.44,543.12,389.47,544.11,383.41,544.85z"/>
			<path class="st7" d="M378.5,541.7c5.84-1.31,11.78-2.37,17.78-3.3c0.75-0.12,1.51-0.22,2.28-0.3c0.78-0.1,1.6-0.14,2.36-0.16
				l4.61-0.15l9.22-0.27c12.29-0.31,24.59-0.59,36.89-0.76c-12.28,0.53-24.56,0.97-36.85,1.4l-9.21,0.31l-4.6,0.17
				c-1.53,0.01-2.93,0.29-4.46,0.48C390.53,539.97,384.56,540.95,378.5,541.7z"/>
			<path class="st7" d="M373.59,538.54c5.84-1.3,11.78-2.37,17.78-3.3c0.75-0.12,1.51-0.22,2.28-0.3c0.78-0.1,1.6-0.14,2.36-0.16
				l4.61-0.15l9.22-0.27c12.29-0.31,24.59-0.59,36.89-0.76c-12.28,0.53-24.56,0.97-36.85,1.4l-9.21,0.31l-4.6,0.17
				c-1.53,0.01-2.93,0.29-4.46,0.48C385.62,536.81,379.65,537.8,373.59,538.54z"/>
			<path class="st7" d="M366.95,535.7c5.84-1.3,11.78-2.37,17.78-3.3c0.75-0.12,1.51-0.22,2.28-0.3c0.78-0.1,1.6-0.14,2.36-0.16
				l4.61-0.15l9.22-0.27c12.29-0.31,24.59-0.59,36.89-0.76c-12.28,0.53-24.56,0.97-36.85,1.4l-9.21,0.31l-4.6,0.17
				c-1.53,0.01-2.93,0.29-4.46,0.48C378.98,533.97,373.01,534.96,366.95,535.7z"/>
			<path class="st7" d="M360.49,532.91c5.84-1.3,11.78-2.37,17.78-3.3c0.75-0.12,1.51-0.22,2.28-0.3c0.78-0.1,1.6-0.14,2.36-0.16
				l4.61-0.15l9.22-0.27c12.29-0.31,24.59-0.59,36.89-0.76c-12.28,0.53-24.56,0.97-36.85,1.4l-9.21,0.31l-4.6,0.17
				c-1.53,0.01-2.93,0.29-4.46,0.48C372.52,531.18,366.55,532.17,360.49,532.91z"/>
			<path class="st7" d="M355.58,529.75c5.83-1.3,11.76-2.36,17.75-3.3c0.75-0.12,1.5-0.22,2.28-0.31c0.77-0.1,1.59-0.14,2.36-0.16
				l4.61-0.1l9.21-0.16c12.28-0.17,24.56-0.29,36.85-0.31c-12.27,0.38-24.55,0.67-36.82,0.95l-9.2,0.2l-4.6,0.12
				c-1.51,0-2.92,0.29-4.45,0.47C367.59,528.02,361.63,529.01,355.58,529.75z"/>
			<path class="st7" d="M350.67,526.59c5.82-1.3,11.74-2.36,17.72-3.29c0.75-0.12,1.5-0.22,2.27-0.31c0.76-0.11,1.59-0.14,2.37-0.15
				l4.61-0.05l9.2-0.04c12.26,0,24.53,0.04,36.79,0.2c-12.26,0.21-24.52,0.32-36.78,0.45l-9.19,0.08l-4.59,0.07
				c-1.49-0.02-2.91,0.29-4.43,0.47C362.67,524.87,356.71,525.85,350.67,526.59z"/>
			<path class="st7" d="M345.77,523.44c5.81-1.3,11.71-2.35,17.69-3.29c0.75-0.12,1.5-0.22,2.27-0.31c0.76-0.11,1.59-0.14,2.37-0.14
				l4.6,0.04l9.18,0.15c6.12,0.12,12.23,0.29,18.35,0.45c6.11,0.17,12.23,0.36,18.34,0.58c-12.24-0.07-24.48-0.24-36.71-0.38
				l-9.17-0.11l-4.57-0.02c-1.46-0.03-2.9,0.28-4.41,0.46C357.73,521.72,351.79,522.7,345.77,523.44z"/>
			<path class="st7" d="M312.3,572c6.65-0.97,13.31-1.88,19.99-2.76c6.67-0.9,13.36-1.7,20.05-2.54c3.35-0.42,6.67-0.8,10.09-1.15
				l10.13-0.84c6.76-0.52,13.51-1.04,20.29-1.46c-6.71,0.76-13.45,1.41-20.18,2.07l-10.11,0.93c-3.31,0.34-6.67,0.8-10.02,1.18
				l-20.1,2.36C325.74,570.56,319.03,571.31,312.3,572z"/>
			<path class="st7" d="M407.18,561.59c6.7-0.88,13.42-1.69,20.14-2.48c6.72-0.8,13.46-1.52,20.2-2.26
				c3.38-0.37,6.72-0.71,10.16-1.01l10.18-0.7c6.79-0.43,13.59-0.86,20.4-1.19c-6.76,0.66-13.54,1.23-20.31,1.79l-10.17,0.79
				c-3.33,0.3-6.72,0.71-10.09,1.04l-20.24,2.08C420.71,560.33,413.95,560.99,407.18,561.59z"/>
		</g>
	</g>
	<g>
		<g>
			<g>
				<path class="st8" d="M212.23,280.22c15.19,68.42,47.08,150.54,60.85,163.93c17.41,16.93,133.2,48.59,138.98,49.26
					c14.32,1.55,42.53-94.02,27.29-96.33c-23.2-3.52-106.39-16.1-111.41-21.33c-5.21-5.47-40.53-50.68-76.82-101.73
					C226.07,238.75,202.8,237.77,212.23,280.22z"/>
				<g>
					<path class="st8" d="M400.74,489.8c1.58,0.82,24.07,12.33,37.99,16.47c10.39,3.09,40.53,11.19,45.07,0.09
						c3.11-7.57-14.06-14.42-26.09-19.53c-6.34-2.69-14.12-9.4-12.22-13.48c3.33-7.12,19.64,0.17,30.36,6.5
						c20.72,12.24,48.29,34.2,61.07,23.74c4.83-3.96-0.7-11.26-8.81-18.45c13.19,8.4,27.26,15.31,32.8,11.13
						c3.18-2.38,3.35-5.68,1.62-9.46c4.08,1.36,7.7,1.12,10.23-1.52c4.34-4.47,2.29-11.14-2.37-17.99c1.51-0.15,2.87-0.91,3.93-2.54
						c9.22-13.83-36.12-54.07-51.88-57.92c-46.35-11.37-95.29-9.67-95.29-9.67C408.82,411.62,400.71,489.76,400.74,489.8z"/>
					<g>
						<path class="st0" d="M469.32,447.55c10.92,1.79,21.66,5.96,30.88,12.14c11.71,7.85,19.46,17,29.27,26.23
							c0.26,0.24-0.11,0.65-0.37,0.41c-4.67-4.39-24.05-20.89-29.07-24.65c-9.18-6.88-19.46-11.74-30.76-13.95
							C469.16,447.71,469.2,447.53,469.32,447.55z"/>
						<path class="st0" d="M478.12,427.91c12.18,3.42,24.66,6.89,35.94,12.74c12.35,6.41,21.97,16.77,31.44,26.75
							c5.68,5.99,11.24,12.1,16.65,18.35c0.23,0.26-0.13,0.67-0.37,0.41c-9.6-10.31-19.51-20.34-29.73-30.04
							c-9.61-9.13-20.35-16.13-32.71-20.95c-6.96-2.71-14.12-4.88-21.27-7.05C477.94,428.08,477.98,427.87,478.12,427.91z"/>
						<path class="st0" d="M491.28,410.78c11.84,2.52,22.17,4.68,32.62,11.11c13.84,8.51,27.15,22.78,31.82,27.84
							c5.16,5.59,10.13,11.34,15.01,17.17c0.2,0.24-0.21,0.59-0.41,0.35c-11.16-12.75-23.19-24.88-35.91-36.08
							c-6.08-5.35-12.69-10.03-20.13-13.3c-7.35-3.23-15.25-5.09-23.02-7.01C491.21,410.84,491.23,410.76,491.28,410.78z"/>
					</g>
				</g>
			</g>
			<g>
				<path class="st2" d="M420.97,384l-36.49,112.76c0,0-96.39-28.27-113.91-47.44c-17.51-19.17-49.38-117.7-58.62-165.41
					c-9.24-47.71,14.84-46.36,36.77-16.16c21.92,30.2,76.52,103.4,79.59,105C331.37,374.37,420.97,384,420.97,384z"/>
				<path class="st0" d="M373.87,445.13c4.13-12.59,8.37-25.15,12.03-37.9c2.08-7.24,4.2-14.48,6.22-21.74
					c0.08-0.27-0.38-0.45-0.49-0.18c-4.65,12.47-9.28,24.98-13.36,37.67c-4.06,12.62-8.22,25.2-12.11,37.88
					c-2.21,7.21-4.2,14.46-5.97,21.8c-0.04,0.15,0.2,0.23,0.26,0.09C365.52,470.44,369.71,457.81,373.87,445.13z"/>
				<path class="st5" d="M335.87,480.88c-1.42-0.51-2.85-1.02-4.27-1.53c-8.03-2.93-16.21-6.08-23.91-9.29
					c-1-0.4-1.97-0.82-2.94-1.23c-1.55-0.65-3.09-1.33-4.59-2c-0.76-0.33-1.49-0.67-2.24-1c-0.27-0.13-0.53-0.24-0.8-0.36
					c-0.78-0.36-1.55-0.72-2.31-1.09c-3.06-1.43-5.96-2.86-8.66-4.31c-0.62-0.33-1.26-0.67-1.87-1.01
					c-4.92-2.71-9.01-5.38-11.86-7.92c-0.34-0.31-0.67-0.61-0.97-0.92c-0.34-0.31-0.62-0.61-0.89-0.9
					c-17.52-19.16-49.39-117.69-58.63-165.41c-0.1-0.55-0.21-1.11-0.31-1.64c-0.02-0.12-0.03-0.23-0.05-0.36
					c-0.62-3.63-1.15-8.11-1.58-12.96l0-0.05c-1.17-23.72,10.08-27.51,23.87-16.99C268.03,326.38,320.08,449.3,335.87,480.88z"/>
			</g>
		</g>
		<g>
			<path class="st2" d="M292.43,511.19L55.1,510.8c0.56-4.68,67.48-226.38,112.96-264.19c19.39-16.11,55.03-4.29,59.56-0.59
				C271.6,281.94,295.75,508.45,292.43,511.19z"/>
		</g>
		<g>
			<path class="st8" d="M150.87,275.22C99.02,338.28,38.86,463.69,54.49,487.16c17.41,26.14,88.94-59.35,88.21-64.06
				c-0.56-3.56,20.71-80.06,37.04-135.77C196.06,231.66,163.69,259.62,150.87,275.22z"/>
			<g>
				<g>
					<path class="st2" d="M143.24,423.14c1.71-8.13,30.92-109.11,39.01-140.93c8.08-31.83-2.87-40.46-31.39-9.39
						c-28.52,31.07-86.93,126.81-97.92,178.31c-10.6,49.6,13.11,52.15,43.87,26.94C121.98,457.42,143.24,423.14,143.24,423.14z"/>
				</g>
				<g>
					<path class="st0" d="M139.52,436.19c2.24-9.57,4.7-19.09,7.19-28.59c2.49-9.51,5.15-18.96,7.71-28.45
						c2.72-9.44,5.36-18.9,8.16-28.32l4.24-14.12c1.48-4.69,2.9-9.39,4.45-14.06c-1.1,4.79-2.33,9.55-3.49,14.32l-3.7,14.27
						c-2.49,9.5-5.14,18.96-7.71,28.45c-2.73,9.44-5.36,18.9-8.16,28.32C145.4,417.43,142.57,426.84,139.52,436.19z"/>
					<path class="st0" d="M165.51,344.73c0.73-2.55,1.84-4.88,3.03-7.16c1.22-2.27,2.57-4.46,4.16-6.56
						c-0.51,2.62-1.64,4.98-2.82,7.27C168.64,340.55,167.28,342.76,165.51,344.73z"/>
				</g>
			</g>
		</g>
		<g>
			<g>
				<path class="st8" d="M55.1,488.22c15.06,17.86,47.89,19.33,140.04,28.85c12.75,1.32,48.89-87.89,35.35-89.99
					c-17.06-2.65-83.84-9.25-88.78-9.12C100,419.08,44.88,476.1,55.1,488.22z"/>
				<g>
					<path class="st1" d="M279.66,402.43c0,0-10.02-17.86,2.71-23.7c12.73-5.84,19.74,13.4,19.74,13.4L279.66,402.43z"/>
					<g>
						<path class="st1" d="M361.86,522.25l0,0.02l-1.04,20.01l-0.3,6.61l-5.27-4.03l-15.86-12.28l-0.02,0l0-0.03l-60.06-130.85
							l22.46-10.31l60.06,130.87C361.86,522.25,361.86,522.25,361.86,522.25z"/>
						<polygon class="st9" points="360.83,542.28 360.51,548.89 355.25,544.84 						"/>
					</g>
					
						<rect x="276.99" y="395.57" transform="matrix(0.9088 -0.4172 0.4172 0.9088 -139.6552 157.9108)" class="st9" width="28.85" height="5.72"/>
					
						<rect x="279.63" y="401.32" transform="matrix(0.9088 -0.4172 0.4172 0.9088 -141.8151 159.5394)" class="st9" width="28.85" height="5.72"/>
					<polygon class="st9" points="282.14,412.81 290.6,408.92 307.67,458.41 304.47,459.66 					"/>
				</g>
				<g>
					<path class="st8" d="M344.32,481.07c-4.01,11.02-30.35-1.18-30.35-1.18s5,6.38,4.17,14.12c-0.95,8.87-15.27,11.26-15.27,11.26
						s3.73,7.5,2.03,15.59c-1.76,8.39-15.87,12.87-15.87,12.87s-0.37,8.89-6.85,14.83c-11.09,10.15-33.21,4.01-47.31,0.25
						c-14.1-3.76-52.64-30.91-60.05-34.76l25.43-87.43c0,0,68.03-1.12,83.98,5.65C297.66,437.98,350.45,464.22,344.32,481.07z"/>
					<g>
						<path class="st0" d="M313.85,479.49c-12.83-9.5-27.91-15.91-42.53-21.93c-0.33-0.13-0.53,0.38-0.2,0.51
							c14.61,5.82,28.01,15.69,42.36,22.08C313.88,480.33,314.2,479.75,313.85,479.49z"/>
						<path class="st0" d="M302.88,504.01c-2.97-2.06-6.61-3.14-9.98-4.34c-3.64-1.29-7.29-2.51-10.97-3.68
							c-7.36-2.34-14.77-4.52-22.24-6.47c-0.33-0.09-0.55,0.4-0.2,0.51c7.33,2.35,14.62,4.8,21.85,7.45
							c3.62,1.33,7.22,2.69,10.81,4.07c3.34,1.29,6.76,2.92,10.34,3.44C303.01,505.06,303.33,504.32,302.88,504.01z"/>
						<path class="st0" d="M288.72,533.62c-2.51-1.9-6.22-2.55-9.19-3.42c-3.37-1-6.74-2.01-10.11-3.05
							c-6.73-2.07-13.45-4.14-20.1-6.44c-0.33-0.11-0.54,0.39-0.2,0.51c6.74,2.37,13.45,4.84,20.22,7.15
							c3.32,1.14,6.65,2.25,9.98,3.35c2.83,0.93,6.27,2.42,9.31,2.24C288.8,533.96,288.84,533.72,288.72,533.62z"/>
					</g>
				</g>
			</g>
			<g>
				<path class="st2" d="M220,423.86l-71.31,95.53c0,0-80.91-11.51-94.6-31.01c-9.01-12.84,45.43-72.8,91.6-70.54L220,423.86z"/>
				<g>
					<path class="st0" d="M92.61,437.16c6.87-6,26.44-20.29,53.14-19.38c0.23,0.01,0.28,0.38,0.04,0.4
						c-19.95,1.24-45.87,14.09-52.98,19.29C92.63,437.6,92.44,437.31,92.61,437.16z"/>
					<path class="st0" d="M125.66,506.57c7.28-10.92,15.13-21.45,23.02-31.95c7.89-10.51,15.76-21.04,23.91-31.35
						c4.61-5.83,9.18-11.68,13.99-17.35c0.13-0.15,0.41,0.02,0.29,0.19c-7.26,10.91-15.08,21.48-22.88,32.02
						c-7.82,10.56-15.76,21.05-23.78,31.46c-4.54,5.88-9.18,11.68-13.99,17.35C125.97,507.22,125.45,506.89,125.66,506.57z"/>
					<path class="st0" d="M220.04,422.7c-4.99-1.16-10.08-1.55-15.18-2.04c-5.09-0.48-10.19-0.88-15.29-1.23
						c-10.15-0.7-31.57-3.33-50.03-1.6c-0.2,0.02,0.93,0.91,1.13,0.89c8.75-1.27,72.9,5.54,78.11,5.44
						c-0.17,0.36-0.34,0.71-0.46,1.1c-0.08,0.26,0.2,0.57,0.46,0.36c0.61-0.49,1.02-1.08,1.59-1.62
						C220.83,423.57,220.69,422.85,220.04,422.7z"/>
					<path class="st0" d="M103.89,510.88c-7.8-1.31-15.4-3.53-22.83-6.22c-7.37-2.77-14.71-6.01-21.09-10.73
						c3.58,1.69,7.2,3.17,10.82,4.65c3.63,1.45,7.3,2.83,10.97,4.18C89.11,505.49,96.52,508.04,103.89,510.88z"/>
				</g>
			</g>
		</g>
		<g>
			<path class="st2" d="M223.17,289.97c0,0-45.45-28.68-69.6-22.62l-16.72,22.77c0,0-6.31,3.68-9.32-0.17
				c-7.47-9.51-14.02-35,4.51-56.42c16.97-19.62,50.36-25.6,79.58-24.25c28.06,1.3,54.89,13.98,50.46,33.05
				C257.64,261.4,223.17,289.97,223.17,289.97z"/>
			<path class="st5" d="M224.09,281.26c0,0,25.8-28.28,26.17-41.87c0.37-13.59-28.09-20.36-45.8-21.61
				c-27.42-1.93-44.64,3.49-56.14,20.37C136.81,255.03,224.09,281.26,224.09,281.26z"/>
			<g>
				<g>
					<g>
						<path class="st8" d="M225.96,278.54c-12.24,5.67-38.33-9.48-50.3-23.63c-0.82-0.97-1.49-12.83-2.99-27.19
							c-0.95-8.71-2.21-18.39-3.99-27.14c-0.38-1.79,57.59,2.13,57.59,2.13s-1.65,19.44,1.56,34.67c0.28,1.27,0.65,2.43,1.11,3.51
							c0.05,0.16,0.14,0.35,0.2,0.58C231.64,248.08,237.79,273.06,225.96,278.54z"/>
					</g>
					<path class="st0" d="M172.1,200.13c5.56,14.27,22.06,48.13,51.48,42.81c2.05-0.37,3.9-0.85,5.55-1.45
						c-0.04-0.25-0.13-0.42-0.19-0.59c-0.45-1.1-0.83-2.24-1.12-3.5c-3.21-15.26-1.55-34.7-1.55-34.7S184.45,199.88,172.1,200.13z"
						/>
				</g>
				<g>
					<g>
						<path class="st8" d="M151.27,132.19c-3.37,20.48,14.62,75.95,30.32,86.76c22.75,15.66,56.21,12.98,68.56-13.51
							c11.97-25.67-12.76-97.54-29.94-106.97C194.91,84.59,156.25,101.93,151.27,132.19z"/>
					</g>
					<g>
						<g>
							<path class="st0" d="M211.58,159.48c-0.08-0.13-0.23,0.28-0.17,0.43c1.45,3.65,2.5,8.08-0.4,10.51
								c-0.09,0.07-0.01,0.26,0.11,0.2C214.99,168.57,213.54,162.71,211.58,159.48z"/>
							<path class="st0" d="M206.89,156.82c-6.1,1.7-2.26,13.78,3.39,12.21C215.85,167.48,212.01,155.39,206.89,156.82z"/>
						</g>
						<g>
							<path class="st0" d="M232.57,152.94c-0.02-0.15,0.35,0.08,0.39,0.24c1.07,3.78,2.93,7.93,6.71,8.1
								c0.12,0.01,0.17,0.2,0.04,0.22C235.4,162.22,232.98,156.69,232.57,152.94z"/>
							<path class="st0" d="M234.67,147.96c5.88-2.37,10.18,9.56,4.74,11.75C234.05,161.88,229.75,149.95,234.67,147.96z"/>
						</g>
						<path class="st0" d="M200.52,154.32c1.66-0.66,3.07-1.54,4.64-2.36c1.77-0.92,3.28-1.48,4.28-3.31
							c0.54-0.98,0.05-2.55-0.85-3.16c-2.11-1.42-4.56-0.83-6.73,0.19c-2.36,1.11-3.9,2.57-5.03,4.92
							C195.73,152.89,198.34,155.18,200.52,154.32z"/>
						<path class="st0" d="M237.41,137.38c-1.76,0.26-3.43,0.2-5.2,0.28c-2,0.09-3.58,0.36-5.36-0.73
							c-0.95-0.58-1.32-2.18-0.84-3.16c1.11-2.28,3.53-2.99,5.93-3.2c2.6-0.22,4.66,0.28,6.82,1.75
							C240.85,133.75,239.74,137.04,237.41,137.38z"/>
						<path class="st0" d="M216.38,196.25c1.18,0.59,2.45,1.51,3.85,1.2c1.34-0.3,2.68-1.38,3.73-2.22c0.1-0.08,0.26,0,0.22,0.14
							c-0.51,1.75-2.27,3.29-4.11,3.54c-1.79,0.24-3.09-0.96-4-2.38C215.95,196.33,216.21,196.16,216.38,196.25z"/>
						<g>
							<g>
								<path class="st0" d="M216.76,183.79c3.13,2.58,6.77,3.38,10.31,2.97c1.58-0.17,3.16-0.62,4.65-1.25
									c0.3-0.1,0.59-0.23,0.84-0.38c0.26-0.12,0.5-0.23,0.78-0.39c0.42-0.2,0.54-0.64,0.49-1.08l-0.01-0.03
									c-0.05-0.14-0.08-0.25-0.16-0.37c0,0,0,0-0.01-0.03l-0.11-0.33c-0.84-2.91-2.51-7.2-2.51-7.2c1.22,0.19,7.36,0.9,6.79-0.58
									c-4.71-12.23-9.94-25.83-17.2-37c-0.22-0.38-0.82-0.09-0.65,0.31c4.06,11.93,10.18,23.07,14.45,34.99
									c-1.92-0.11-5.1-0.42-6.6,0.08c-0.37,0.25,3.38,8.24,3.65,9.58c0,0,0.02,0.05,0.02,0.15c-4.65,2.16-8.76,1.85-14.49,0.1
									C216.65,183.22,216.44,183.57,216.76,183.79z"/>
							</g>
						</g>
						<g>
							<path class="st0" d="M229.55,184.59c0,0-1.46,4.26-4.56,6.62c-1.14,0.87-2.47,1.5-4.05,1.57c-3.24,0.16-4.18-2.56-4.38-5.08
								c-0.17-2.07,0.2-4.02,0.2-4.02S222.42,186.38,229.55,184.59z"/>
							<path class="st10" d="M224.99,191.21c-1.14,0.87-2.47,1.5-4.05,1.57c-3.24,0.16-4.18-2.56-4.38-5.08
								C219.87,187.01,223.73,188.18,224.99,191.21z"/>
						</g>
					</g>
					<g>
						<path d="M173.19,162.39c2.43-12.02-6.63-30.46-1.54-36.36c11.02-12.79,39.25,5.41,56.77,3.28
							c16.97-2.07,21.25-13.7,16.42-27.07c-4.82-13.37-17.7-21.12-37.1-21.53c-20.07-0.42-37,9.81-45.96,17.31
							c0,0,3.4-7.42,1.53-9.35c-1.87-1.93-9.34,5.74-11.52,8.88c-2.21,3.19-3.1,8.71-3.1,8.71s-3.21-0.52-7.85,0.19
							c-4.3,0.66-9.3,4.74-9.48,5.79c-0.18,1.05,6.1,1.05,10.45,0.72c0,0-6.7,11.75-5.35,20.9c1.35,9.15,21.19,50.88,24.68,50.91
							C165.63,184.8,172.2,167.27,173.19,162.39z"/>
						<path d="M143.35,111.63c0.14-0.11,0.37,0.07,0.24,0.22c-3.67,4.09-6.48,8.67-7.51,14.14c-1.2,6.37,0.06,12.9,2.23,18.92
							c4.23,11.7,11.51,21.87,18.05,32.33c0.19,0.31-0.32,0.64-0.53,0.35c-7.64-10.64-15.5-22.24-19.48-34.83
							C132.96,132.04,133.89,119.08,143.35,111.63z"/>
						<path d="M170.4,121.66c4.89-1.33,10.49-1.57,15.51-0.96c4.95,0.6,9.43,3.06,14.02,4.84c10.3,4,21.39,6.71,32.44,4.6
							c0.14-0.03,0.18,0.18,0.04,0.22c-10.02,2.58-20.35,0.82-29.97-2.52c-4.85-1.69-9.57-4.39-14.59-5.48
							c-5.71-1.24-11.57-0.41-17.3,0.21C169.97,122.64,169.83,121.82,170.4,121.66z"/>
						<path d="M171.62,91.87c6.37-4.36,13.51-7.59,20.84-9.97c7.04-2.28,14.41-3.82,21.84-3.57c12.83,0.44,25.41,6.96,30,19.49
							c2.33,6.35,2.56,13.62-0.05,19.92c-0.18,0.43-0.81,0.19-0.67-0.25c3.72-11.96-0.06-25.4-10.71-32.5
							c-11.44-7.62-26-6.46-38.6-2.76c-7.93,2.33-15.35,5.81-22.6,9.72C171.62,91.97,171.57,91.9,171.62,91.87z"/>
					</g>
					<g>
						<path class="st2" d="M209.58,185.49c-7.62,1.45-15.56-2.37-18.99-9.71c-4.06-8.68-0.3-19.04,8.38-23.1
							c8.68-4.06,19.04-0.3,23.1,8.38v0c4.06,8.68,0.3,19.04-8.38,23.1C212.35,184.78,210.97,185.23,209.58,185.49z M203.52,153.63
							c-1.2,0.23-2.4,0.61-3.56,1.15c-7.52,3.52-10.78,12.49-7.26,20.01c3.52,7.52,12.5,10.78,20.01,7.26
							c7.52-3.52,10.77-12.49,7.26-20.01C217,155.68,210.12,152.37,203.52,153.63z"/>
						<path class="st2" d="M247.56,173.31c-6.53,1.24-13.73-4.32-16.45-12.97c-1.38-4.36-1.43-8.87-0.15-12.69
							c1.32-3.95,3.9-6.71,7.27-7.77c3.37-1.07,7.06-0.28,10.41,2.2c3.24,2.4,5.78,6.12,7.15,10.49c2.88,9.14-0.32,18.32-7.12,20.46
							C248.3,173.15,247.93,173.24,247.56,173.31z M239.78,141.89c-0.29,0.05-0.57,0.13-0.86,0.22c-2.63,0.83-4.68,3.06-5.77,6.29
							c-1.12,3.36-1.07,7.35,0.16,11.25c2.5,7.92,9.05,12.94,14.65,11.17c5.58-1.76,8.09-9.63,5.6-17.54
							c-1.23-3.9-3.47-7.21-6.32-9.32C244.81,142.15,242.19,141.43,239.78,141.89z"/>
						<path class="st2" d="M222.12,163.15l-1.96-1.25c1.85-2.9,6.77-7.57,12.18-4.51l-1.14,2.02
							C226.36,156.66,222.29,162.89,222.12,163.15z"/>
						<path class="st2" d="M149.61,190.66l-2.29-0.4c0.19-1.07,1.95-10.5,6.64-12.86c4.39-2.19,34.97-8.76,36.27-9.04l0.49,2.27
							c-8.77,1.87-32.32,7.14-35.71,8.84C151.91,181.04,150.07,188.08,149.61,190.66z"/>
					</g>
					<g>
						<path class="st8" d="M169.62,176.91c0,0-15.65-16.36-23.26-10.5c-7.61,5.85,6.12,30.94,16.45,33.07
							c10.33,2.13,12.49-7.39,12.49-7.39L169.62,176.91z"/>
						<path class="st0" d="M150.48,173.5c-0.16,0.01-0.16,0.23-0.01,0.27c7.28,1.72,11.86,7.51,15.4,13.71
							c-2.43-2.22-5.42-3.18-8.44-0.23c-0.16,0.15,0.06,0.41,0.24,0.34c2.71-1.03,4.81-0.86,7.05,1.1c1.59,1.38,2.81,3.25,4.06,4.94
							c0.42,0.56,1.47,0.07,1.13-0.6c-0.03-0.05-0.05-0.1-0.08-0.15C168.66,184.1,159.98,172.93,150.48,173.5z"/>
					</g>
				</g>
			</g>
			<path class="st2" d="M224.09,281.26c0,0-41.06-44.51-79.75-41.48l9.23,27.58c0,0,22.45-4.76,69.6,22.62L224.09,281.26z"/>
			<g>
				<path class="st0" d="M143.54,270.04c6.7-2.33,13.87-2.28,20.77-1.63c6.95,0.67,13.74,2.42,20.34,4.66
					c6.64,2.14,13.02,5.01,19.33,8.02l9.28,4.91l9.06,5.34l1.02,0.6l0.84-0.69c6.29-5.13,12.14-10.66,17.65-16.57
					c2.74-2.96,5.43-5.98,7.8-9.25c2.38-3.25,4.65-6.62,6.35-10.26c-4.37,6.75-9.97,12.46-15.67,18.02
					c-2.87,2.76-5.86,5.4-8.89,7.98c-3.03,2.57-6.09,5.16-9.22,7.55l1.86-0.09l-9.12-5.56c-3.11-1.73-6.27-3.39-9.43-5.04
					c-3.26-1.47-6.48-3-9.79-4.35c-3.36-1.23-6.67-2.58-10.14-3.5c-6.83-2.14-13.96-3.37-21.11-3.7c-1.78-0.12-3.59-0.04-5.37-0.02
					c-1.79,0.16-3.57,0.26-5.34,0.56C150.21,267.51,146.68,268.38,143.54,270.04z"/>
				<path class="st0" d="M136.85,290.12c3.33-3.4,6.24-7.1,9.06-10.87c2.76-3.81,5.42-7.7,7.66-11.9
					c-3.33,3.39-6.25,7.09-9.06,10.87C141.75,282.04,139.09,285.92,136.85,290.12z"/>
			</g>
			<g>
				<g>
					<path class="st2" d="M205.65,272.57c0,0-1.38,15.16,0.76,36.59c0.85,8.48,7.79,38.43,17.06,36.19
						c9.27-2.24-8.43-19.96-13.06-35.64c-4.7-15.91-1.78-27.92-2.37-37.57L205.65,272.57z"/>
				</g>
				<g class="st5">
					<path d="M205.65,272.57c0,0-1.38,15.16,0.76,36.59c0.85,8.48,7.79,38.43,17.06,36.19c9.27-2.24-8.43-19.96-13.06-35.64
						c-4.7-15.91-1.78-27.92-2.37-37.57L205.65,272.57z"/>
				</g>
			</g>
			<g>
				<g>
					<path class="st2" d="M239.78,266.43c0,0,5.96,12.45,10.91,31.34c1.96,7.48,5.52,35.13-3.07,36.15
						c-8.59,1.03,0.85-19.63-0.16-34.42c-1.03-15.01-7.31-24.29-9.85-32.68L239.78,266.43z"/>
				</g>
				<g class="st5">
					<path d="M239.78,266.43c0,0,5.96,12.45,10.91,31.34c1.96,7.48,5.52,35.13-3.07,36.15c-8.59,1.03,0.85-19.63-0.16-34.42
						c-1.03-15.01-7.31-24.29-9.85-32.68L239.78,266.43z"/>
				</g>
			</g>
		</g>
	</g>
	<g>
		<g>
			<rect x="407.76" y="501.56" class="st1" width="224.46" height="10.07"/>
			<rect x="407.76" y="501.57" class="st0" width="112.97" height="10.07"/>
		</g>
		<g>
			<g>
				<polygon class="st9" points="518.11,511.62 736.86,511.58 767.74,363.01 548.99,363.05 				"/>
			</g>
			<path class="st4" d="M625.97,440.63c-0.84,8.05,5,14.58,13.05,14.58c8.05,0,15.26-6.53,16.11-14.58
				c0.85-8.05-5-14.58-13.05-14.58C634.03,426.05,626.81,432.58,625.97,440.63z"/>
		</g>
	</g>
</g>
</svg>
